<?xml version="1.0" standalone="no"?>
<!DOCTYPE svg PUBLIC "-//W3C//DTD SVG 1.1//EN" "http://www.w3.org/Graphics/SVG/1.1/DTD/svg11.dtd" >
<svg>
<metadata>
Created by FontForge 20090914 at Thu Dec 23 09:19:37 2021
 By www-data
&#194;&#169;2018, McDonald&#226;&#128;&#153;s Corporation. All rights reserved.
</metadata>
<defs>
<font id="Speedee-Bold" horiz-adv-x="0" >
  <font-face 
    font-family="Speedee"
    font-weight="700"
    font-stretch="normal"
    units-per-em="1000"
    panose-1="2 11 8 3 3 5 2 2 2 4"
    ascent="700"
    descent="-300"
    x-height="503.999"
    cap-height="670"
    bbox="-207 -359.004 1249 967.001"
    underline-thickness="40"
    underline-position="-65"
    unicode-range="U+000D-U+FB04"
  />
<missing-glyph horiz-adv-x="500" 
d="M454 0h-408v670h408v-670zM393 54v562h-287v-562h287z" />
    <glyph glyph-name="f_f" unicode="ff" horiz-adv-x="709" 
d="M10 504h71c0.666992 63.333 16.667 114 48 152s80 57 146 57c19.333 0 39 -2.33301 59 -7s39 -11.667 57 -21l-24 -100c-19.333 8.66699 -38.333 13 -57 13c-39.333 0 -59 -25 -59 -75v-19h163c0.666992 63.333 16.667 114 48 152s80 57 146 57
c18.667 0 38.167 -2.33301 58.5 -7s39.5 -11.667 57.5 -21l-24 -100c-19.333 8.66699 -38.333 13 -57 13c-39.333 0 -59 -25 -59 -75v-19h108v-110h-108v-394h-170v394h-163v-394h-170v394h-71v110z" />
    <glyph glyph-name="f_i" unicode="fi" horiz-adv-x="644" 
d="M404 652c0 25.333 9.16699 46.833 27.5 64.5s40.833 26.5 67.5 26.5s49.167 -8.83301 67.5 -26.5s27.5 -39.167 27.5 -64.5s-9.16699 -46.833 -27.5 -64.5s-40.833 -26.5 -67.5 -26.5s-49.167 8.83301 -67.5 26.5s-27.5 39.167 -27.5 64.5zM10 504h71.001
c0.666992 63.333 16.667 114 48 152s80 57 146 57c29.333 0 58.666 -5.33301 87.999 -16l-24 -103c-10 2.66699 -19.667 4 -29 4c-39.333 0 -59 -25 -59 -75v-19h90v-110h-90v-394h-170v394h-71v110zM414.001 504h170v-504h-170v504z" />
    <glyph glyph-name="f_l" unicode="fl" horiz-adv-x="641" 
d="M10 504h71.001c0.666992 63.333 16.667 114 48 152s80 57 146 57c29.333 0 58.666 -5.33301 87.999 -16l-24 -103c-10 2.66699 -19.667 4 -29 4c-39.333 0 -59 -25 -59 -75v-19h90v-110h-90v-394h-170v394h-71v110zM411.001 700h170v-700h-170v700z" />
    <glyph glyph-name="f_f_i" unicode="ffi" horiz-adv-x="977" 
d="M737 652c0 25.333 9.16699 46.833 27.5 64.5s40.833 26.5 67.5 26.5s49.167 -8.83301 67.5 -26.5s27.5 -39.167 27.5 -64.5s-9.16699 -46.833 -27.5 -64.5s-40.833 -26.5 -67.5 -26.5s-49.167 8.83301 -67.5 26.5s-27.5 39.167 -27.5 64.5zM10 504h71.001
c0.666992 63.333 16.667 114 48 152s80 57 146 57c19.333 0 39 -2.33301 59 -7s39 -11.667 57 -21l-24 -100c-19.333 8.66699 -38.333 13 -57 13c-39.333 0 -59 -25 -59 -75v-19h163c0.666992 63.333 16.667 114 48 152s80 57 146 57c29.333 0 58.666 -5.33301 87.999 -16
l-24 -103c-10 2.66699 -19.667 4 -29 4c-39.333 0 -59 -25 -59 -75v-19h90v-110h-90v-394h-170v394h-163v-394h-170v394h-71v110zM747.001 504h170v-504h-170v504z" />
    <glyph glyph-name="f_f_l" unicode="ffl" horiz-adv-x="974" 
d="M10 504h71.001c0.666992 63.333 16.667 114 48 152s80 57 146 57c19.333 0 39 -2.33301 59 -7s39 -11.667 57 -21l-24 -100c-19.333 8.66699 -38.333 13 -57 13c-39.333 0 -59 -25 -59 -75v-19h163c0.666992 63.333 16.667 114 48 152s80 57 146 57
c29.333 0 58.666 -5.33301 87.999 -16l-24 -103c-10 2.66699 -19.667 4 -29 4c-39.333 0 -59 -25 -59 -75v-19h90v-110h-90v-394h-170v394h-163v-394h-170v394h-71v110zM744.001 700h170v-700h-170v700z" />
    <glyph glyph-name=".notdef" horiz-adv-x="500" 
d="M454 0h-408v670h408v-670zM393 54v562h-287v-562h287z" />
    <glyph glyph-name="uni0000" 
 />
    <glyph glyph-name="uni0000" 
 />
    <glyph glyph-name="uni000D" unicode="&#xd;" horiz-adv-x="200" 
 />
    <glyph glyph-name="space" unicode=" " horiz-adv-x="200" 
 />
    <glyph glyph-name="exclam" unicode="!" horiz-adv-x="275" 
d="M48 670h179l-30 -458h-118zM137 170c26 0 47.667 -8.33301 65 -25s26 -38.334 26 -65.001c0 -24.667 -9 -45.834 -27 -63.501s-39.333 -26.5 -64 -26.5c-25.333 0 -46.666 8.83301 -63.999 26.5s-26 38.834 -26 63.501c0 26.667 8.66699 48.334 26 65.001
s38.666 25 63.999 25z" />
    <glyph glyph-name="quotedbl" unicode="&#x22;" horiz-adv-x="469" 
d="M174 440h-79c-12.667 40.667 -21.667 76.5 -27 107.5s-8 63.5 -8 97.5v55h149v-55c0 -34 -2.5 -66.5 -7.5 -97.5s-14.167 -66.833 -27.5 -107.5zM374 440h-79c-12.667 40.667 -21.667 76.5 -27 107.5s-8 63.5 -8 97.5v55h149v-55c0 -34 -2.5 -66.5 -7.5 -97.5
s-14.167 -66.833 -27.5 -107.5z" />
    <glyph glyph-name="numbersign" unicode="#" horiz-adv-x="590" 
d="M49 0l27 155h-66v113h85l23 134h-79v113h99l24 139h134l-24 -139h111l24 139h134l-24 -139h66v-113h-86l-23 -134h80v-113h-99l-27 -155h-134l27 155h-111l-27 -155h-134zM229 268h111l23 134h-111z" />
    <glyph glyph-name="dollar" unicode="$" horiz-adv-x="590" 
d="M263 -110v106.999c-70.667 6 -126.334 27 -167.001 63s-64.334 83.333 -71.001 142h174c4 -28 12.333 -49.5 25 -64.5s29 -24.833 49 -29.5v154l-53 12c-57.333 13.333 -101.333 36.333 -132 69s-46 72 -46 118c0 42 9.5 77.5 28.5 106.5s45.167 51.5 78.5 67.5
s71.333 25.667 114 29v106h69v-107c64 -5.33301 114.333 -26.333 151 -63s59.334 -86.667 68.001 -150h-171c-3.33301 26 -9.66602 47.5 -18.999 64.5s-22.333 28.833 -39 35.5v-155l48 -12c49.333 -12 88 -26.5 116 -43.5s47.667 -37.167 59 -60.5s17 -49.666 17 -78.999
c0 -60 -20.167 -107.667 -60.5 -143s-96.833 -55.333 -169.5 -60v-107h-69zM208 479.999c0 -18 5.16699 -33 15.5 -45s26.833 -21.333 49.5 -28v148c-21.333 -2.66699 -37.5 -10.667 -48.5 -24s-16.5 -30.333 -16.5 -51zM393 183.999c0 15.333 -5.5 28.667 -16.5 40
s-29.167 20.333 -54.5 27v-145c24.667 2.66699 42.667 11.167 54 25.5s17 31.833 17 52.5z" />
    <glyph glyph-name="percent" unicode="%" horiz-adv-x="908" 
d="M226 0l318 660h138l-318 -660h-138zM190 258c-56 0 -97.667 18.5 -125 55.5s-41 87.167 -41 150.5s13.667 113.5 41 150.5s69 55.5 125 55.5s97.667 -18.5 125 -55.5s41 -87.167 41 -150.5s-13.667 -113.5 -41 -150.5s-69 -55.5 -125 -55.5zM190 342
c15.333 0 26 9.66699 32 29s9 50.333 9 93s-3 73.667 -9 93s-16.667 29 -32 29s-26 -9.66699 -32 -29s-9 -50.333 -9 -93s3 -73.667 9 -93s16.667 -29 32 -29zM716 -10c-56 0 -97.667 18.5 -125 55.5s-41 87.167 -41 150.5s13.667 113.5 41 150.5s69 55.5 125 55.5
s97.667 -18.5 125 -55.5s41 -87.167 41 -150.5s-13.667 -113.5 -41 -150.5s-69 -55.5 -125 -55.5zM716 74c15.333 0 26 9.66699 32 29s9 50.333 9 93s-3 73.667 -9 93s-16.667 29 -32 29s-26 -9.66699 -32 -29s-9 -50.333 -9 -93s3 -73.667 9 -93s16.667 -29 32 -29z" />
    <glyph glyph-name="ampersand" unicode="&#x26;" horiz-adv-x="720" 
d="M499 344l146.997 0.00292969c-4 -84.667 -28.667 -157.667 -74 -219c12.667 -4 25.667 -6 39 -6c8.66699 0 16.667 0.333008 24 1s15.333 2.33398 24 5.00098l18 -113c-14 -6 -28 -10.167 -42 -12.5s-29.333 -3.5 -46 -3.5c-23.333 0 -45.166 3.16699 -65.499 9.5
s-39.833 15.166 -58.5 26.499c-24.667 -13.333 -52 -23.666 -82 -30.999s-62 -11 -96 -11c-48.667 0 -91.667 7.83301 -129 23.5s-66.666 37.667 -87.999 66s-32 62.166 -32 101.499c0 38.667 10.333 73.167 31 103.5s52.334 55.5 95.001 75.5
c-22 29.333 -36.833 55.166 -44.5 77.499s-11.5 44.166 -11.5 65.499c0 51.333 18.333 92 55 122s84.334 45 143.001 45c36 0 68.167 -6.33301 96.5 -19s50.666 -30.334 66.999 -53.001s24.5 -49 24.5 -79c0 -42 -11.5 -76 -34.5 -102s-59.167 -48.667 -108.5 -68l114 -141
l2 -2c17.333 38 28 84 32 138zM254.997 517.003c0 -15.333 2.5 -29.833 7.5 -43.5s14.833 -30.167 29.5 -49.5c22 14 36.667 28 44 42s11 30.667 11 50c0 16.667 -4.16699 29.667 -12.5 39s-19.5 14 -33.5 14c-12.667 0 -23.5 -4.5 -32.5 -13.5s-13.5 -21.833 -13.5 -38.5z
M215.997 190.003c0 -26.667 9.5 -48.5 28.5 -65.5s42.5 -25.5 70.5 -25.5c21.333 0 41.333 4 60 12l-19 21l-116 136c-16 -20 -24 -46 -24 -78z" />
    <glyph glyph-name="quotesingle" unicode="'" horiz-adv-x="269" 
d="M174 440h-79c-12.667 40.667 -21.667 76.5 -27 107.5s-8 63.5 -8 97.5v55h149v-55c0 -34 -2.5 -66.5 -7.5 -97.5s-14.167 -66.833 -27.5 -107.5z" />
    <glyph glyph-name="parenleft" unicode="(" horiz-adv-x="353" 
d="M328 -100h-118c-100 126 -150 262.667 -150 410c0 74 12.5 145.5 37.5 214.5s62.5 134.167 112.5 195.5h118c-37.333 -62.667 -64.166 -129.5 -80.499 -200.5s-24.5 -140.833 -24.5 -209.5s8.16699 -138 24.5 -208s43.166 -137.333 80.499 -202z" />
    <glyph glyph-name="parenright" unicode=")" horiz-adv-x="353" 
d="M143 -100h-118c37.333 62.667 64.166 129.5 80.499 200.5s24.5 140.833 24.5 209.5s-8.16699 138 -24.5 208s-43.166 137.333 -80.499 202h118c100 -126 150 -262.667 150 -410c0 -74 -12.5 -145.5 -37.5 -214.5s-62.5 -134.167 -112.5 -195.5z" />
    <glyph glyph-name="asterisk" unicode="*" horiz-adv-x="364" 
d="M125 696l114.001 -0.000976562c-6.66699 -42 -16 -84 -28 -126c37.333 24 74.666 45.667 111.999 65l35 -109c-22 -3.33301 -43.5 -6.16602 -64.5 -8.49902s-42.167 -3.83301 -63.5 -4.5c16.667 -13.333 33 -27.166 49 -41.499s31.667 -29.166 47 -44.499l-92 -67
c-10 19.333 -19.167 38.833 -27.5 58.5l-24.5 59.5c-8 -20 -16.333 -39.833 -25 -59.5l-27 -58.5l-92 67l46.5 44.5c15.667 14.333 32.167 28.166 49.5 41.499c-22 0.666992 -43.5 2.16699 -64.5 4.5s-42.167 5.16602 -63.5 8.49902l35 109c38 -20 75 -41.667 111 -65
l-15 62.5c-4.66699 20.333 -8.66699 41.5 -12 63.5z" />
    <glyph glyph-name="plus" unicode="+" horiz-adv-x="590" 
d="M77 388h159v164h118v-164h159v-116h-159v-165h-118v165h-159v116z" />
    <glyph glyph-name="comma" unicode="," horiz-adv-x="220" 
d="M17 -147l0.000976562 66.002c24 5.33301 43.5 14.166 58.5 26.499s25.5 27.166 31.5 44.499c-25.333 0.666992 -46.333 9 -63 25s-25 37.333 -25 64c0 27.333 8.83301 49.333 26.5 66s40.5 25 68.5 25c27.333 0 50.166 -9.66699 68.499 -29s27.5 -49 27.5 -89
c0 -53.333 -17 -97.833 -51 -133.5s-81.333 -57.5 -142 -65.5z" />
    <glyph glyph-name="hyphen" unicode="-" horiz-adv-x="374" 
d="M25 182v130h324v-130h-324z" />
    <glyph glyph-name="period" unicode="." horiz-adv-x="220" 
d="M109 -10c-25.333 0 -46.666 8.83301 -63.999 26.5s-26 38.834 -26 63.501c0 26.667 8.66699 48.334 26 65.001s38.666 25 63.999 25c26 0 47.667 -8.33301 65 -25s26 -38.334 26 -65.001c0 -24.667 -9 -45.834 -27 -63.501s-39.333 -26.5 -64 -26.5z" />
    <glyph glyph-name="slash" unicode="/" horiz-adv-x="366" 
d="M1 -104l218 789h145l-218 -789h-145z" />
    <glyph glyph-name="zero" unicode="0" horiz-adv-x="586" 
d="M293 -16c-59.333 0 -108.5 14 -147.5 42s-68 67.667 -87 119s-28.5 112 -28.5 182s9.5 130.667 28.5 182s48 91 87 119s88.167 42 147.5 42s108.5 -14 147.5 -42s68 -67.667 87 -119s28.5 -112 28.5 -182s-9.5 -130.667 -28.5 -182s-48 -91 -87 -119
s-88.167 -42 -147.5 -42zM293 106c29.333 0 50.5 18 63.5 54s19.5 91.667 19.5 167s-6.5 131 -19.5 167s-34.167 54 -63.5 54s-50.5 -18 -63.5 -54s-19.5 -91.667 -19.5 -167s6.5 -131 19.5 -167s34.167 -54 63.5 -54z" />
    <glyph glyph-name="one" unicode="1" horiz-adv-x="432" 
d="M22 425l-0.000976562 138c36.667 6.66699 71.834 17 105.501 31s64.167 34 91.5 60h131v-654h-174v464c-25.333 -9.33301 -51 -17.333 -77 -24s-51.667 -11.667 -77 -15z" />
    <glyph glyph-name="two" unicode="2" horiz-adv-x="564" 
d="M35 0l-0.000976562 22c0 56 12.5 104.5 37.5 145.5s64.833 81.167 119.5 120.5l81 58c28.667 20.667 49 39.834 61 57.501s18 38.167 18 61.5c0 27.333 -6 48.333 -18 63s-29.333 22 -52 22c-25.333 0 -44.666 -9.83301 -57.999 -29.5s-21.666 -50.167 -24.999 -91.5
h-166c4 76 29.333 135.167 76 177.5s108 63.5 184 63.5c47.333 0 88.666 -8.16699 123.999 -24.5s62.833 -39.333 82.5 -69s29.5 -64.5 29.5 -104.5c0 -41.333 -9.83301 -78.333 -29.5 -111s-51.167 -64.334 -94.5 -95.001l-92 -65
c-21.333 -15.333 -37.833 -28.333 -49.5 -39s-19.167 -21.667 -22.5 -33h291v-129h-497z" />
    <glyph glyph-name="three" unicode="3" horiz-adv-x="570" 
d="M290 -16c-86 0 -151.002 20.498 -195.002 61.498s-69 95.167 -75 162.5h164c2.66699 -37.333 12.834 -64.333 30.501 -81s40.5 -25 68.5 -25s49.833 7.83301 65.5 23.5s23.5 38.834 23.5 69.501c0 28.667 -9.5 52.334 -28.5 71.001s-55.167 28 -108.5 28h-23v105h22
c42 0 71.5 7 88.5 21s25.5 32.667 25.5 56c0 22.667 -6.16699 41 -18.5 55s-29.833 21 -52.5 21c-44 0 -69 -23.333 -75 -70h-163c7.33301 58 31.5 103.833 72.5 137.5s97.833 50.5 170.5 50.5c48 0 90 -7.33301 126 -22s64.167 -35.5 84.5 -62.5s30.5 -59.833 30.5 -98.5
c0 -28 -6.66699 -54.667 -20 -80s-37.333 -46 -72 -62c30.667 -12 54.5 -26.667 71.5 -44s28.667 -36 35 -56s9.5 -39.667 9.5 -59c0 -42.667 -10.667 -79 -32 -109s-51.166 -53 -89.499 -69s-83.5 -24 -135.5 -24z" />
    <glyph glyph-name="four" unicode="4" horiz-adv-x="572" 
d="M21 125v114l308 414h147v-403h78v-125h-78v-125h-160v125h-295zM169 250h147v200z" />
    <glyph glyph-name="five" unicode="5" horiz-adv-x="567" 
d="M54 275l26.002 379.001h421v-129h-287l-9 -125c16 12 33.833 21.5 53.5 28.5s41.5 10.5 65.5 10.5c44 0 82.333 -9.16699 115 -27.5s58 -43.833 76 -76.5s27 -70.667 27 -114c0 -48.667 -11 -90.834 -33 -126.501s-53 -63 -93 -82s-87 -28.5 -141 -28.5
c-70.667 0 -127.834 17.167 -171.501 51.5s-68.834 81.5 -75.501 141.5h167c4.66699 -24.667 13.5 -43 26.5 -55s31.833 -18 56.5 -18c26 0 46.333 9.5 61 28.5s22 46.167 22 81.5c0 38.667 -8 67.5 -24 86.5s-36 28.5 -60 28.5c-38.667 0 -67.667 -18 -87 -54h-136z" />
    <glyph glyph-name="six" unicode="6" horiz-adv-x="573" 
d="M298 -16c-86 0 -152.169 29.501 -198.502 88.501s-69.5 146.5 -69.5 262.5c0 66 9.66699 124.167 29 174.5s49.333 89.666 90 117.999s93.334 42.5 158.001 42.5c59.333 0 109.833 -14.667 151.5 -44s67.5 -72.333 77.5 -129h-175
c-3.33301 19.333 -10.666 34.333 -21.999 45s-25.333 16 -42 16c-30 0 -52.833 -14.5 -68.5 -43.5s-24.834 -74.833 -27.501 -137.5c34.667 37.333 81.334 56 140.001 56c40.667 0 76.667 -8.83301 108 -26.5s56 -42.667 74 -75s27 -70.5 27 -114.5
c0 -47.333 -10.667 -88.5 -32 -123.5s-51 -62 -89 -81s-81.667 -28.5 -131 -28.5zM290.998 97.001c27.333 0 48.666 9.83301 63.999 29.5s23 47.167 23 82.5s-7.66699 62.833 -23 82.5s-36.666 29.5 -63.999 29.5s-48.666 -9.83301 -63.999 -29.5s-23 -47.167 -23 -82.5
s7.66699 -62.833 23 -82.5s36.666 -29.5 63.999 -29.5z" />
    <glyph glyph-name="seven" unicode="7" horiz-adv-x="512" 
d="M13 525l-0.00195312 128.999h483v-129c-71.333 -90 -126.166 -176.667 -164.499 -260s-61.166 -171.666 -68.499 -264.999h-171c8 67.333 22.167 130.166 42.5 188.499s47.5 114.833 81.5 169.5s75.667 110.334 125 167.001h-328z" />
    <glyph glyph-name="eight" unicode="8" horiz-adv-x="588" 
d="M294 -16c-53.333 0 -100.5 8.16699 -141.5 24.5s-72.833 39.5 -95.5 69.5s-34 65.667 -34 107c0 39.333 11.667 73.166 35 101.499s55.333 49.5 96 63.5c-34 14 -60.667 33.667 -80 59s-29 55 -29 89c0 35.333 10.333 65.833 31 91.5s49.667 45.5 87 59.5s81 21 131 21
s93.667 -7 131 -21s66.333 -33.833 87 -59.5s31 -56.167 31 -91.5c0 -34 -9.66699 -63.667 -29 -89s-46 -45 -80 -59c40.667 -14 72.667 -35.167 96 -63.5s35 -62.166 35 -101.499c0 -41.333 -11.333 -77 -34 -107s-54.5 -53.167 -95.5 -69.5s-88.167 -24.5 -141.5 -24.5z
M294 400c22.667 0 40.667 7.16699 54 21.5s20 35.166 20 62.499s-6.66699 48.166 -20 62.499s-31.333 21.5 -54 21.5s-40.667 -7.16699 -54 -21.5s-20 -35.166 -20 -62.499s6.66699 -48.166 20 -62.499s31.333 -21.5 54 -21.5zM294 89c25.333 0 46.5 8.83301 63.5 26.5
s25.5 43.834 25.5 78.501s-8.5 60.834 -25.5 78.501s-38.167 26.5 -63.5 26.5s-46.5 -8.83301 -63.5 -26.5s-25.5 -43.834 -25.5 -78.501s8.5 -60.834 25.5 -78.501s38.167 -26.5 63.5 -26.5z" />
    <glyph glyph-name="nine" unicode="9" horiz-adv-x="573" 
d="M282 670c48.667 0 92.667 -11.5 132 -34.5s70.666 -59 93.999 -108s35 -112.167 35 -189.5c0 -70 -9.83301 -131.5 -29.5 -184.5s-49.834 -94.5 -90.501 -124.5s-93 -45 -157 -45c-59.333 0 -109.833 14.667 -151.5 44s-67.5 72.333 -77.5 129h175
c3.33301 -19.333 10.666 -34.333 21.999 -45s25.333 -16 42 -16c29.333 0 51.833 14.167 67.5 42.5s24.834 73.833 27.501 136.5c-33.333 -36 -77.666 -54 -132.999 -54c-42.667 0 -80 8.83301 -112 26.5s-57.167 42.5 -75.5 74.5s-27.5 69.667 -27.5 113
c0 48 10.833 89.5 32.5 124.5s51.834 62.167 90.501 81.5s84 29 136 29zM285 557c-28 0 -49.5 -9.83301 -64.5 -29.5s-22.5 -47.167 -22.5 -82.5s7.5 -62.833 22.5 -82.5s36.5 -29.5 64.5 -29.5c26 0 46.5 9.83301 61.5 29.5s22.5 47.167 22.5 82.5s-7.5 62.833 -22.5 82.5
s-35.5 29.5 -61.5 29.5z" />
    <glyph glyph-name="colon" unicode=":" horiz-adv-x="220" 
d="M109 -10c-25.333 0 -46.666 8.83301 -63.999 26.5s-26 38.834 -26 63.501c0 26.667 8.66699 48.334 26 65.001s38.666 25 63.999 25c26 0 47.667 -8.33301 65 -25s26 -38.334 26 -65.001c0 -24.667 -9 -45.834 -27 -63.501s-39.333 -26.5 -64 -26.5zM109 324
c-25.333 0 -46.666 8.83301 -63.999 26.5s-26 38.834 -26 63.501c0 26.667 8.66699 48.334 26 65.001s38.666 25 63.999 25c26 0 47.667 -8.33301 65 -25s26 -38.334 26 -65.001c0 -24.667 -9 -45.834 -27 -63.501s-39.333 -26.5 -64 -26.5z" />
    <glyph glyph-name="semicolon" unicode=";" horiz-adv-x="220" 
d="M17 -147l0.000976562 66.002c24 5.33301 43.5 14.166 58.5 26.499s25.5 27.166 31.5 44.499c-25.333 0.666992 -46.333 9 -63 25s-25 37.333 -25 64c0 27.333 8.83301 49.333 26.5 66s40.5 25 68.5 25c27.333 0 50.166 -9.66699 68.499 -29s27.5 -49 27.5 -89
c0 -53.333 -17 -97.833 -51 -133.5s-81.333 -57.5 -142 -65.5zM109.001 324.002c-25.333 0 -46.666 8.83301 -63.999 26.5s-26 38.834 -26 63.501c0 26.667 8.66699 48.334 26 65.001s38.666 25 63.999 25c26 0 47.667 -8.33301 65 -25s26 -38.334 26 -65.001
c0 -24.667 -9 -45.834 -27 -63.501s-39.333 -26.5 -64 -26.5z" />
    <glyph glyph-name="less" unicode="&#x3c;" horiz-adv-x="590" 
d="M510 90l-436 182v116l436 182v-124l-304 -116l304 -117v-123z" />
    <glyph glyph-name="equal" unicode="=" horiz-adv-x="590" 
d="M77 368v116h436v-116h-436zM77 156v116h436v-116h-436z" />
    <glyph glyph-name="greater" unicode="&#x3e;" horiz-adv-x="590" 
d="M80 90v124l304 116l-304 117v123l436 -182v-116z" />
    <glyph glyph-name="question" unicode="?" horiz-adv-x="475" 
d="M157 477l-164 -0.00195312c3.33301 64 25.833 114.833 67.5 152.5s99.5 56.5 173.5 56.5c46.667 0 88 -7.5 124 -22.5s64 -36.333 84 -64s30 -60.5 30 -98.5c0 -39.333 -9 -71.166 -27 -95.499s-42.667 -47.833 -74 -70.5l-45 -33c-16.667 -12 -27.5 -24.333 -32.5 -37
s-7.5 -27 -7.5 -43v-10h-153v30c0 30 5.66699 54.833 17 74.5s31.333 40.834 60 63.501l38 30c18.667 14.667 31.167 28 37.5 40s9.5 28 9.5 48c0 18.667 -5.5 34.667 -16.5 48s-26.833 20 -47.5 20c-21.333 0 -38.5 -7.16699 -51.5 -21.5s-20.5 -36.833 -22.5 -67.5z
M209 169.998c26 0 47.667 -8.33301 65 -25s26 -38.334 26 -65.001c0 -24.667 -9 -45.834 -27 -63.501s-39.333 -26.5 -64 -26.5c-25.333 0 -46.666 8.83301 -63.999 26.5s-26 38.834 -26 63.501c0 26.667 8.66699 48.334 26 65.001s38.666 25 63.999 25z" />
    <glyph glyph-name="at" unicode="@" horiz-adv-x="955" 
d="M477 -184c-90 0 -168.497 18.0049 -235.497 54.0049s-119 87.333 -156 154s-55.5 145.667 -55.5 237c0 64.667 10.667 124.167 32 178.5s52 101.666 92 141.999s87.5 71.5 142.5 93.5s116.167 33 183.5 33c73.333 0 138.166 -10.333 194.499 -31
s103.833 -49.334 142.5 -86.001s68 -79.5 88 -128.5s30 -101.833 30 -158.5c0 -90.667 -21.167 -160.5 -63.5 -209.5s-97.833 -73.5 -166.5 -73.5c-18 0 -36.167 2.66699 -54.5 8s-34.833 14.666 -49.5 27.999s-25.334 32.333 -32.001 57
c-12.667 -23.333 -32.167 -42 -58.5 -56s-57.166 -21 -92.499 -21c-37.333 0 -69.333 9.33301 -96 28s-47.334 44.167 -62.001 76.5s-22 69.166 -22 110.499c0 42 7.66699 79.167 23 111.5s36.666 57.666 63.999 75.999s59.333 27.5 96 27.5c26.667 0 52 -6.33301 76 -19
s43.333 -31 58 -55l9 71h135v-288c0 -26.667 4.16699 -45.167 12.5 -55.5s19.833 -15.5 34.5 -15.5c14 0 28.5 6.16699 43.5 18.5s27.5 32.833 37.5 61.5s15 68.334 15 119.001c0 58 -13.667 111.5 -41 160.5s-67.833 88.167 -121.5 117.5s-120.167 44 -199.5 44
c-52 0 -99.667 -9.33301 -143 -28s-80.833 -44.5 -112.5 -77.5s-56.167 -71.667 -73.5 -116s-26 -92.166 -26 -143.499c0 -56 9.33301 -106.333 28 -151s44.334 -82.834 77.001 -114.501s70.334 -55.834 113.001 -72.501s88 -25 136 -25c44.667 0 84.667 3.83301 120 11.5
s73.333 21.5 114 41.5l20 -78c-40.667 -20 -81.334 -34.5 -122.001 -43.5s-85.334 -13.5 -134.001 -13.5zM466.003 147.005c22.667 0 41.334 8.49902 56.001 25.499s22 40.5 22 70.5v18c0 29.333 -7.33301 52.5 -22 69.5s-33.334 25.5 -56.001 25.5s-39.834 -10 -51.501 -30
s-17.5 -44.667 -17.5 -74s5.83301 -54.166 17.5 -74.499s28.834 -30.5 51.501 -30.5z" />
    <glyph glyph-name="A" unicode="A" horiz-adv-x="666" 
d="M480 0l-39 124h-222l-39 -124h-173l240 670h173l239 -670h-179zM258 251h143l-71 229z" />
    <glyph glyph-name="B" unicode="B" horiz-adv-x="648" 
d="M74 0l0.000976562 669.999h267c56.667 0 102.667 -7.66699 138 -23s61.333 -36 78 -62s25 -55 25 -87c0 -27.333 -7.33301 -53.666 -22 -78.999s-42.334 -46 -83.001 -62c47.333 -14 82.333 -35.5 105 -64.5s34 -61.833 34 -98.5c0 -58 -21.5 -104.833 -64.5 -140.5
s-106.167 -53.5 -189.5 -53.5h-288zM317.001 553.999h-75.002v-157h75c24.667 0 43.334 4 56.001 12s21.334 18 26.001 30s7 24.333 7 37c0 52 -29.667 78 -89 78zM320.999 290.999l-79 0.000976562v-175h79c41.333 0 70.5 8 87.5 24s25.5 37.333 25.5 64
c0 25.333 -8.16699 46.166 -24.5 62.499s-45.833 24.5 -88.5 24.5z" />
    <glyph glyph-name="C" unicode="C" horiz-adv-x="692" 
d="M360 -16c-70 0 -129.163 14.8291 -177.496 44.4961s-84.833 70.834 -109.5 123.501s-37 113.667 -37 183c0 68.667 12.333 129.334 37 182.001s61.167 94 109.5 124s107.5 45 177.5 45c85.333 0 154.166 -23.333 206.499 -70s85.5 -109.667 99.5 -189h-187
c-7.33301 40.667 -21.333 72.5 -42 95.5s-46.334 34.5 -77.001 34.5c-44.667 0 -78.834 -19.667 -102.501 -59s-35.5 -93.666 -35.5 -162.999s11.833 -123.666 35.5 -162.999s57.834 -59 102.501 -59c30 0 55.167 10.833 75.5 32.5s34.166 52.167 41.499 91.5h187
c-8 -50.667 -25.167 -95 -51.5 -133s-60.833 -67.5 -103.5 -88.5s-92.334 -31.5 -149.001 -31.5z" />
    <glyph glyph-name="D" unicode="D" horiz-adv-x="712" 
d="M74 0v670h235c79.333 0 146.333 -14.5 201 -43.5s96 -68 124 -117s42 -103.833 42 -164.5c0 -68 -14 -127.833 -42 -179.5s-69.333 -92.167 -124 -121.5s-121.667 -44 -201 -44h-235zM309 546l-67 -0.000976562v-421h67c62 0 107.667 18.333 137 55s44 88.334 44 155.001
c0 67.333 -14.667 119.333 -44 156s-75 55 -137 55z" />
    <glyph glyph-name="E" unicode="E" horiz-adv-x="577" 
d="M74 0v670h454v-131h-276v-139h245v-125h-245v-144h280v-131h-458z" />
    <glyph glyph-name="F" unicode="F" horiz-adv-x="563" 
d="M74 0v670h454v-131h-276v-160h235v-127h-235v-252h-178z" />
    <glyph glyph-name="G" unicode="G" horiz-adv-x="718" 
d="M36 335c0 68.667 13.002 129.33 39.002 181.997s64 94 114 124s111.333 45 184 45c79.333 0 144.5 -20.667 195.5 -62s85.167 -99.333 102.5 -174h-187c-18 73.333 -56 110 -114 110c-50 0 -87.667 -20.167 -113 -60.5s-38 -95.166 -38 -164.499
s12.667 -124.166 38 -164.499s63 -60.5 113 -60.5c35.333 0 64.833 9.5 88.5 28.5s39.5 48.5 47.5 88.5h-123v125h298v-42c0 -43.333 -6.33301 -84.5 -19 -123.5s-31.834 -73.667 -57.501 -104s-58.334 -54.333 -98.001 -72s-86.167 -26.5 -139.5 -26.5
c-70 0 -129.667 14.833 -179 44.5s-87 70.834 -113 123.501s-39 113.667 -39 183z" />
    <glyph glyph-name="H" unicode="H" horiz-adv-x="728" 
d="M74 0v670h178v-265h224v265h178v-670h-178v274h-224v-274h-178z" />
    <glyph glyph-name="I" unicode="I" horiz-adv-x="326" 
d="M74 0v670h178v-670h-178z" />
    <glyph glyph-name="J" unicode="J" horiz-adv-x="599" 
d="M272 -16c-77.333 0 -139.167 23.498 -185.5 70.498s-71.833 111.5 -76.5 193.5h177c1.33301 -41.333 8.83301 -74.166 22.5 -98.499s34.5 -36.5 62.5 -36.5c30 0 52 11.333 66 34s21 54.334 21 95.001v428h178v-406c0 -92 -24.333 -161.667 -73 -209
s-112.667 -71 -192 -71z" />
    <glyph glyph-name="K" unicode="K" horiz-adv-x="671" 
d="M74 0l-0.000976562 670.002h178v-286l196 286h205l-257 -331c44.667 -19.333 86 -49 124 -89c30.667 -32.667 58 -70.334 82 -113.001s43.667 -88.334 59 -137.001h-203c-7.33301 30 -17.5 59.833 -30.5 89.5s-28.167 57.167 -45.5 82.5
c-18.667 27.333 -39.167 50.333 -61.5 69s-45.166 29.667 -68.499 33v-274h-178z" />
    <glyph glyph-name="L" unicode="L" horiz-adv-x="542" 
d="M74 0v670h178v-539h260v-131h-438z" />
    <glyph glyph-name="M" unicode="M" horiz-adv-x="851" 
d="M35 0l75 670h175l140 -421l141 421h175l75 -670h-179l-39 409l-119 -360h-111l-120 364l-40 -413h-173z" />
    <glyph glyph-name="N" unicode="N" horiz-adv-x="725" 
d="M74 0v670h167l237 -408v408h173v-670h-164l-240 415v-415h-173z" />
    <glyph glyph-name="O" unicode="O" horiz-adv-x="735" 
d="M367 -16c-70.667 0 -130.667 14.834 -180 44.501s-86.833 71 -112.5 124s-38.5 113.833 -38.5 182.5c0 68 12.833 128.5 38.5 181.5s63.167 94.5 112.5 124.5s109.333 45 180 45c71.333 0 131.666 -15 180.999 -45s86.833 -71.5 112.5 -124.5s38.5 -113.5 38.5 -181.5
c0 -68.667 -12.833 -129.334 -38.5 -182.001s-63.167 -94 -112.5 -124s-109.666 -45 -180.999 -45zM367 113.001c47.333 0 83.5 20 108.5 60s37.5 94 37.5 162s-12.5 122 -37.5 162s-61.167 60 -108.5 60s-83.333 -20 -108 -60s-37 -94 -37 -162s12.333 -122 37 -162
s60.667 -60 108 -60z" />
    <glyph glyph-name="P" unicode="P" horiz-adv-x="611" 
d="M314 234l-62 0.000976562v-234h-178v670h260c86 0 152 -19.333 198 -58s69 -89.667 69 -153c0 -68.667 -23.5 -123.334 -70.5 -164.001s-119.167 -61 -216.5 -61zM308 554.001h-56v-204h56c75.333 0 113 34 113 102s-37.667 102 -113 102z" />
    <glyph glyph-name="Q" unicode="Q" horiz-adv-x="735" 
d="M367 -16c-70.667 0 -130.666 14.8311 -179.999 44.498s-86.833 71 -112.5 124s-38.5 113.833 -38.5 182.5c0 68 12.833 128.5 38.5 181.5s63.167 94.5 112.5 124.5s109.333 45 180 45c71.333 0 131.666 -15 180.999 -45s86.833 -71.5 112.5 -124.5
s38.5 -113.5 38.5 -181.5c0 -75.333 -15.5 -141.166 -46.5 -197.499s-75.833 -97.5 -134.5 -123.5c19.333 -5.33301 41.833 -9 67.5 -11s54.834 -3 87.501 -3v-154c-80.667 4.66699 -143.334 17.834 -188.001 39.501s-79.667 54.5 -105 98.5h-13zM367.001 112.998
c47.333 0 83.5 20 108.5 60s37.5 94 37.5 162s-12.5 122 -37.5 162s-61.167 60 -108.5 60s-83.333 -20 -108 -60s-37 -94 -37 -162s12.333 -122 37 -162s60.667 -60 108 -60z" />
    <glyph glyph-name="R" unicode="R" horiz-adv-x="666" 
d="M74 0l0.000976562 669.999h270c85.333 0 150.833 -18.167 196.5 -54.5s68.5 -82.166 68.5 -137.499c0 -34 -7.83301 -63.333 -23.5 -88s-36.334 -44.5 -62.001 -59.5s-53.5 -25.5 -83.5 -31.5c53.333 -22.667 96.333 -60.334 129 -113.001s56.667 -114.667 72 -186h-186
c-14.667 78 -39.667 140.333 -75 187s-78 71.334 -128 74.001v-261h-178zM308.001 553.999h-56v-184h56c39.333 0 69.333 8 90 24s31 38.667 31 68s-10.333 52 -31 68s-50.667 24 -90 24z" />
    <glyph glyph-name="S" unicode="S" horiz-adv-x="621" 
d="M317 -16c-84.667 0 -151.495 18.8301 -200.495 56.4971s-77.5 91.834 -85.5 162.501h175c5.33301 -38.667 18.666 -65.5 39.999 -80.5s45.666 -22.5 72.999 -22.5c31.333 0 54.333 7.66699 69 23s22 31.333 22 48c0 20.667 -5.5 38.334 -16.5 53.001
s-30.5 25.667 -58.5 33l-111 29c-57.333 14.667 -100.333 37.5 -129 68.5s-43 74.833 -43 131.5c0 43.333 11.5 79.833 34.5 109.5s53.833 52.167 92.5 67.5s82 23 130 23c79.333 0 141.166 -18.667 185.499 -56s71.166 -90.333 80.499 -159h-172
c-4 30.667 -14.333 54.834 -31 72.501s-39.334 26.5 -68.001 26.5c-24.667 0 -44 -6.66699 -58 -20s-21 -30.333 -21 -51c0 -39.333 22.333 -64.666 67 -75.999l105 -27c50 -12.667 88.667 -29.167 116 -49.5s46.333 -43.5 57 -69.5s16 -54.667 16 -86
c0 -64.667 -23.5 -115.334 -70.5 -152.001s-113.167 -55 -198.5 -55z" />
    <glyph glyph-name="T" unicode="T" horiz-adv-x="596" 
d="M209 0v539h-196v131h570v-131h-196v-539h-178z" />
    <glyph glyph-name="U" unicode="U" horiz-adv-x="704" 
d="M351 -16c-92.667 0 -163.999 26 -213.999 78s-75 122.667 -75 212v396h178v-411c0 -43.333 9.5 -78.5 28.5 -105.5s46.5 -40.5 82.5 -40.5c36.667 0 64.667 13.5 84 40.5s29 62.167 29 105.5v411h178v-396c0 -89.333 -25.333 -160 -76 -212s-122.334 -78 -215.001 -78z
" />
    <glyph glyph-name="V" unicode="V" horiz-adv-x="652" 
d="M187 670l142 -477l142 477h173l-234 -670h-169l-233 670h179z" />
    <glyph glyph-name="W" unicode="W" horiz-adv-x="913" 
d="M166 0l-153 670h179l92 -439l115 439h125l114 -439l93 439h169l-153 -670h-181l-108 430l-111 -430h-181z" />
    <glyph glyph-name="X" unicode="X" horiz-adv-x="654" 
d="M204 670l123 -199l125 199h187l-220 -326l230 -344h-189l-134 219l-134 -219h-187l230 343l-220 327h189z" />
    <glyph glyph-name="Y" unicode="Y" horiz-adv-x="634" 
d="M188 670l132 -274l135 274h178l-227 -400v-270h-178v268l-227 402h187z" />
    <glyph glyph-name="Z" unicode="Z" horiz-adv-x="606" 
d="M40 0v99l306 442h-299v129h520v-99l-307 -442h314v-129h-534z" />
    <glyph glyph-name="bracketleft" unicode="[" horiz-adv-x="355" 
d="M70 -100v820h268v-110h-112v-600h112v-110h-268z" />
    <glyph glyph-name="backslash" unicode="\" horiz-adv-x="366" 
d="M147 685l218 -789h-145l-218 789h145z" />
    <glyph glyph-name="bracketright" unicode="]" horiz-adv-x="355" 
d="M285 720v-820h-268v110h112v600h-112v110h268z" />
    <glyph glyph-name="asciicircum" unicode="^" horiz-adv-x="590" 
d="M71 322l163 338h122l163 -338h-123l-103 232l-104 -232h-118z" />
    <glyph glyph-name="underscore" unicode="_" horiz-adv-x="500" 
d="M0 -125v40h500v-40h-500z" />
    <glyph glyph-name="grave" unicode="`" horiz-adv-x="500" 
d="M213 781l150 -156l-59 -69l-179 120z" />
    <glyph glyph-name="a" unicode="a" horiz-adv-x="554" 
d="M184 -13c-46.667 0 -84.834 12.332 -114.501 36.999s-44.5 59.667 -44.5 105c0 36 9.5 65.667 28.5 89s44 41.666 75 54.999s64.667 22.833 101 28.5s71.5 8.83398 105.5 9.50098v11c0 28.667 -5.5 50.834 -16.5 66.501s-26.833 23.5 -47.5 23.5
c-17.333 0 -32 -5.5 -44 -16.5s-19.667 -26.833 -23 -47.5h-160c8.66699 53.333 33.334 94.833 74.001 124.5s93.667 44.5 159 44.5c76 0 132.167 -18.833 168.5 -56.5s54.5 -94.167 54.5 -169.5v-291h-152l-4 66c-17.333 -24.667 -40.5 -44 -69.5 -58
s-59.167 -21 -90.5 -21zM251 91.999c23.333 0 43.167 9.16602 59.5 27.499s24.5 44.833 24.5 79.5v39c-50 -1.33301 -85.833 -10.166 -107.5 -26.499s-32.5 -36.5 -32.5 -60.5c0 -20 5.16699 -34.833 15.5 -44.5s23.833 -14.5 40.5 -14.5z" />
    <glyph glyph-name="b" unicode="b" horiz-adv-x="599" 
d="M364 -13c-30.667 0 -59.501 8.16699 -86.501 24.5s-46.833 40.5 -59.5 72.5l-6 -84h-152v700h170v-256c32.667 48.667 79.334 73 140.001 73c41.333 0 77 -11.5 107 -34.5s53.167 -54.5 69.5 -94.5s24.5 -85.333 24.5 -136c0 -52 -8.66699 -98 -26 -138
s-41.5 -71.167 -72.5 -93.5s-67.167 -33.5 -108.5 -33.5zM311.999 105c27.333 0 48 13.8311 62 41.498s21 62.834 21 105.501s-7 78 -21 106s-34.667 42 -62 42c-25.333 0 -45.666 -12.167 -60.999 -36.5s-23 -58.5 -23 -102.5v-18c0 -43.333 7.66699 -77.166 23 -101.499
s35.666 -36.5 60.999 -36.5z" />
    <glyph glyph-name="c" unicode="c" horiz-adv-x="543" 
d="M284 -13c-48 0 -91.335 10.001 -130.002 30.001s-69.334 49.833 -92.001 89.5s-34 88.167 -34 145.5c0 55.333 11.333 102.833 34 142.5s53.334 70 92.001 91s82 31.5 130 31.5c38.667 0 74.834 -7.16699 108.501 -21.5s61.667 -35.833 84 -64.5
s36.166 -64.667 41.499 -108h-168c-5.33301 30 -13.666 51.5 -24.999 64.5s-25 19.5 -41 19.5c-21.333 0 -40 -11.667 -56 -35s-24 -63.333 -24 -120c0 -56 8 -95.833 24 -119.5s34.667 -35.5 56 -35.5c17.333 0 31.833 6.66699 43.5 20s20.167 37 25.5 71h167
c-7.33301 -46.667 -22.666 -84.834 -45.999 -114.501s-51.5 -51.5 -84.5 -65.5s-68.167 -21 -105.5 -21z" />
    <glyph glyph-name="d" unicode="d" horiz-adv-x="599" 
d="M235 517c26.667 0 51.999 -6.16699 75.999 -18.5s43.333 -30.5 58 -54.5v256h170v-700h-152l-6 82c-31.333 -63.333 -82 -95 -152 -95c-40.667 0 -76.167 11.5 -106.5 34.5s-53.666 54.5 -69.999 94.5s-24.5 85.333 -24.5 136c0 52 8.66699 98 26 138
s41.5 71.167 72.5 93.5s67.167 33.5 108.5 33.5zM286.999 399c-27.333 0 -48 -13.8311 -62 -41.498s-21 -62.834 -21 -105.501s7 -78 21 -106s34.667 -42 62 -42c24.667 0 44.834 12.167 60.501 36.5s23.5 58.5 23.5 102.5v18c0 43.333 -7.83301 77.166 -23.5 101.499
s-35.834 36.5 -60.501 36.5z" />
    <glyph glyph-name="e" unicode="e" horiz-adv-x="553" 
d="M283 -13c-47.333 0 -90.332 9.66602 -128.999 28.999s-69.334 48.5 -92.001 87.5s-34 88.5 -34 148.5c0 54 10.5 100.833 31.5 140.5s50.333 70.334 88 92.001s81.5 32.5 131.5 32.5c52.667 0 97.5 -11.167 134.5 -33.5s65.167 -53.5 84.5 -93.5s29 -86.667 29 -140v-33
h-331c4 -45.333 13.833 -77.5 29.5 -96.5s35.167 -28.5 58.5 -28.5c21.333 0 38 5.66699 50 17s20.333 27.333 25 48h162c-13.333 -56.667 -41.5 -99.167 -84.5 -127.5s-94.167 -42.5 -153.5 -42.5zM279.001 411.999c-22.667 0 -41.5 -9.83203 -56.5 -29.499
s-23.833 -47.834 -26.5 -84.501h163c-2.66699 36 -10.667 64 -24 84s-32 30 -56 30z" />
    <glyph glyph-name="f" unicode="f" horiz-adv-x="376" 
d="M10 504h71c0.666992 63.333 16.667 114 48 152s80 57 146 57c19.333 0 39 -2.33301 59 -7s39 -11.667 57 -21l-24 -100c-19.333 8.66699 -38.333 13 -57 13c-39.333 0 -59 -25 -59 -75v-19h108v-110h-108v-394h-170v394h-71v110z" />
    <glyph glyph-name="g" unicode="g" horiz-adv-x="599" 
d="M283 -223c-62.667 0 -115.835 14.167 -159.502 42.5s-70.5 70.833 -80.5 127.5h160c4.66699 -21.333 14 -38 28 -50s31.333 -18 52 -18c57.333 0 86 37.333 86 112v76c-15.333 -22 -34.666 -39.167 -57.999 -51.5s-49.666 -18.5 -78.999 -18.5
c-42 0 -78.167 11.333 -108.5 34s-53.833 53.5 -70.5 92.5s-25 83.833 -25 134.5s8.83301 95.5 26.5 134.5s42.667 69.5 75 91.5s70.5 33 114.5 33c26 0 52 -7.33301 78 -22s46 -37 60 -67l5 76h152v-462c0 -176.667 -85.333 -265 -256 -265zM286.999 114
c24.667 0 44.834 11.668 60.501 35.001s23.5 56.666 23.5 99.999v18c0 42 -7.83301 74.667 -23.5 98s-35.834 35 -60.501 35c-27.333 0 -48 -13.333 -62 -40s-21 -60.667 -21 -102c0 -42 7 -76.5 21 -103.5s34.667 -40.5 62 -40.5z" />
    <glyph glyph-name="h" unicode="h" horiz-adv-x="601" 
d="M60 0v699.999h170v-263c14 24.667 33.167 44.167 57.5 58.5s52.833 21.5 85.5 21.5c54 0 96.5 -16.5 127.5 -49.5s46.5 -77.5 46.5 -133.5v-334h-170v308c0 26.667 -5.66699 47.834 -17 63.501s-28.333 23.5 -51 23.5c-20.667 0 -39 -8.83301 -55 -26.5
s-24 -45.5 -24 -83.5v-285h-170z" />
    <glyph glyph-name="i" unicode="i" horiz-adv-x="290" 
d="M145 561c-26.667 0 -49.167 8.83301 -67.5 26.5s-27.5 39.167 -27.5 64.5s9.16699 46.833 27.5 64.5s40.833 26.5 67.5 26.5s49.167 -8.83301 67.5 -26.5s27.5 -39.167 27.5 -64.5s-9.16699 -46.833 -27.5 -64.5s-40.833 -26.5 -67.5 -26.5zM60 0v504h170v-504h-170z" />
    <glyph glyph-name="j" unicode="j" horiz-adv-x="296" 
d="M148 561c-26.667 0 -49.167 8.83301 -67.5 26.5s-27.5 39.167 -27.5 64.5s9.16699 46.833 27.5 64.5s40.833 26.5 67.5 26.5s49.167 -8.83301 67.5 -26.5s27.5 -39.167 27.5 -64.5s-9.16699 -46.833 -27.5 -64.5s-40.833 -26.5 -67.5 -26.5zM-58 -204l21 103.999
c14 -4.66699 28 -7 42 -7c38.667 0 58 24.667 58 74v537h170v-514c0 -65.333 -15.5 -117.166 -46.5 -155.499s-80.167 -57.5 -147.5 -57.5c-15.333 0 -31.5 1.5 -48.5 4.5s-33.167 7.83301 -48.5 14.5z" />
    <glyph glyph-name="k" unicode="k" horiz-adv-x="570" 
d="M60 0l-0.000976562 700h170v-397l140 201h180l-189 -230c37.333 -25.333 70.666 -55 99.999 -89c21.333 -24.667 40.833 -52.334 58.5 -83.001s33.834 -64.667 48.501 -102h-184c-13.333 46.667 -31.666 86.334 -54.999 119.001c-14 19.333 -29 37.5 -45 54.5
s-34 32.5 -54 46.5v-220h-170z" />
    <glyph glyph-name="l" unicode="l" horiz-adv-x="290" 
d="M60 0v700h170v-700h-170z" />
    <glyph glyph-name="m" unicode="m" horiz-adv-x="894" 
d="M60 504h151.999l5 -77c12 27.333 30.833 49.166 56.5 65.499s56.834 24.5 93.501 24.5c35.333 0 65.833 -8 91.5 -24s45.167 -38 58.5 -66c12 27.333 31.167 49.166 57.5 65.499s58.833 24.5 97.5 24.5c52 0 93 -16.5 123 -49.5s45 -77.5 45 -133.5v-334h-170v308
c0 26.667 -5.16699 47.834 -15.5 63.501s-25.833 23.5 -46.5 23.5c-19.333 0 -36.333 -8.83301 -51 -26.5s-22 -45.5 -22 -83.5v-285h-170v308c0 26.667 -5.16699 47.834 -15.5 63.501s-25.833 23.5 -46.5 23.5c-19.333 0 -36.333 -8.83301 -51 -26.5s-22 -45.5 -22 -83.5
v-285h-170v504z" />
    <glyph glyph-name="n" unicode="n" horiz-adv-x="601" 
d="M60 0v504h152l5 -77c12.667 27.333 32.5 49.166 59.5 65.499s59.167 24.5 96.5 24.5c54 0 96.5 -16.5 127.5 -49.5s46.5 -77.5 46.5 -133.5v-334h-170v308c0 26.667 -5.66699 47.834 -17 63.501s-28.333 23.5 -51 23.5c-20.667 0 -39 -8.83301 -55 -26.5
s-24 -45.5 -24 -83.5v-285h-170z" />
    <glyph glyph-name="o" unicode="o" horiz-adv-x="578" 
d="M289 -13c-54 0 -100.5 11.667 -139.5 35s-69 54.833 -90 94.5s-31.5 84.834 -31.5 135.501s10.5 95.834 31.5 135.501s51 71.167 90 94.5s85.5 35 139.5 35s100.5 -11.667 139.5 -35s69 -54.833 90 -94.5s31.5 -84.834 31.5 -135.501s-10.5 -95.834 -31.5 -135.501
s-51 -71.167 -90 -94.5s-85.5 -35 -139.5 -35zM289 97c26.667 0 47.5 13.833 62.5 41.5s22.5 65.5 22.5 113.5s-7.5 85.833 -22.5 113.5s-35.833 41.5 -62.5 41.5s-47.5 -13.833 -62.5 -41.5s-22.5 -65.5 -22.5 -113.5s7.5 -85.833 22.5 -113.5s35.833 -41.5 62.5 -41.5z
" />
    <glyph glyph-name="p" unicode="p" horiz-adv-x="599" 
d="M60 -210v714h152l6 -82c31.333 63.333 82 95 152 95c41.333 0 77 -11.5 107 -34.5s53.167 -54.5 69.5 -94.5s24.5 -85.333 24.5 -136c0 -52 -8.66699 -98 -26 -138s-41.5 -71.167 -72.5 -93.5s-67.167 -33.5 -108.5 -33.5c-26.667 0 -52 6.16699 -76 18.5
s-43.333 30.5 -58 54.5v-270h-170zM312 105c27.333 0 48 13.8311 62 41.498s21 62.834 21 105.501s-7 78 -21 106s-34.667 42 -62 42c-25.333 0 -45.666 -12.167 -60.999 -36.5s-23 -58.5 -23 -102.5v-18c0 -43.333 7.66699 -77.166 23 -101.499s35.666 -36.5 60.999 -36.5z
" />
    <glyph glyph-name="q" unicode="q" horiz-adv-x="599" 
d="M235 517c30.667 0 59.5 -8.16699 86.5 -24.5s46.833 -40.5 59.5 -72.5l6 84h152v-714h-170v270c-32.667 -48.667 -79.334 -73 -140.001 -73c-40.667 0 -76.167 11.5 -106.5 34.5s-53.666 54.5 -69.999 94.5s-24.5 85.333 -24.5 136c0 52 8.66699 98 26 138
s41.5 71.167 72.5 93.5s67.167 33.5 108.5 33.5zM287 399c-27.333 0 -48 -13.8311 -62 -41.498s-21 -62.834 -21 -105.501s7 -78 21 -106s34.667 -42 62 -42c24.667 0 44.834 12.167 60.501 36.5s23.5 58.5 23.5 102.5v18c0 43.333 -7.83301 77.166 -23.5 101.499
s-35.834 36.5 -60.501 36.5z" />
    <glyph glyph-name="r" unicode="r" horiz-adv-x="390" 
d="M60 0v504.001h149l8 -88c8.66699 24 23.667 46 45 66s49.666 30 84.999 30c6.66699 0 12.334 -0.333008 17.001 -1s9 -1.33398 13 -2.00098v-157c-4 1.33301 -10 2.5 -18 3.5s-15.667 1.5 -23 1.5c-30.667 0 -56 -9.5 -76 -28.5s-30 -48.167 -30 -87.5v-241h-170z" />
    <glyph glyph-name="s" unicode="s" horiz-adv-x="528" 
d="M267 -13c-71.333 0 -127.171 14.8359 -167.504 44.5029s-63.5 72.167 -69.5 127.5h165c3.33301 -27.333 12.333 -46.166 27 -56.499s30.334 -15.5 47.001 -15.5c19.333 0 34.333 4.16699 45 12.5s16 18.833 16 31.5c0 11.333 -4.5 22 -13.5 32s-25.833 18.333 -50.5 25
l-84 22c-43.333 11.333 -77.166 28.666 -101.499 51.999s-36.5 55.666 -36.5 96.999c0 35.333 10 64.666 30 87.999s47 40.833 81 52.5s72.333 17.5 115 17.5c62.667 0 112.334 -14 149.001 -42s59.667 -68.333 69 -121h-164c-2.66699 19.333 -9 34.666 -19 45.999
s-24.333 17 -43 17c-17.333 0 -30.666 -4.5 -39.999 -13.5s-14 -19.833 -14 -32.5c0 -12 4 -22.5 12 -31.5s22.667 -16.167 44 -21.5l72 -18c57.333 -14.667 98 -33.5 122 -56.5s36 -54.167 36 -93.5c0 -52 -20 -92.167 -60 -120.5s-95.667 -42.5 -167 -42.5z" />
    <glyph glyph-name="t" unicode="t" horiz-adv-x="399" 
d="M260 -13c-61.333 0 -106.832 17.168 -136.499 51.501s-44.5 77.833 -44.5 130.5v225h-65v110h65v142h170v-142h119v-110h-119v-223c0 -22 5 -38.333 15 -49s23.333 -16 40 -16c9.33301 0 19 1 29 3s19.667 5 29 9l26 -104
c-15.333 -8.66699 -34.833 -15.334 -58.5 -20.001s-46.834 -7 -69.501 -7z" />
    <glyph glyph-name="u" unicode="u" horiz-adv-x="591" 
d="M531 504v-503.999h-152l-6 82c-12 -28 -31.167 -50.833 -57.5 -68.5s-58.5 -26.5 -96.5 -26.5c-49.333 0 -88.833 16.5 -118.5 49.5s-44.5 77.5 -44.5 133.5v334h170v-308c0 -26.667 5.16699 -47.834 15.5 -63.501s25.833 -23.5 46.5 -23.5
c19.333 0 36.333 8.83301 51 26.5s22 45.5 22 83.5v285h170z" />
    <glyph glyph-name="v" unicode="v" horiz-adv-x="539" 
d="M181 0l-178 504h176l97 -344l95 344h165l-178 -504h-177z" />
    <glyph glyph-name="w" unicode="w" horiz-adv-x="800" 
d="M150 0l-147 504h176l70 -345l85 345h146l89 -346l68 346h160l-147 -504h-172l-78 275l-78 -275h-172z" />
    <glyph glyph-name="x" unicode="x" horiz-adv-x="541" 
d="M2 0l185 258l-175 246h185l79 -137l88 137h171l-177 -245l183 -259h-185l-86 148l-97 -148h-171z" />
    <glyph glyph-name="y" unicode="y" horiz-adv-x="536" 
d="M4 -198l35 103.999c20.667 -8.66699 41 -13 61 -13c15.333 0 29.166 4.66699 41.499 14s24.833 28.333 37.5 57l19 44l-195 496h176l96 -318l93 318h165l-214 -547c-24 -61.333 -52 -106.666 -84 -135.999s-70.667 -44 -116 -44c-23.333 0 -44.666 2.16699 -63.999 6.5
s-36.333 10.5 -51 18.5z" />
    <glyph glyph-name="z" unicode="z" horiz-adv-x="503" 
d="M39 0v80l221 305h-215v119h417v-78l-227 -307h239v-119h-435z" />
    <glyph glyph-name="braceleft" unicode="{" horiz-adv-x="389" 
d="M25 255v109.998h29c29.333 0 49.166 6.83301 59.499 20.5s15.5 30.834 15.5 51.501c0 23.333 -2.83301 45.5 -8.5 66.5s-8.5 45.5 -8.5 73.5c0 45.333 14.333 80.5 43 105.5s80.667 37.5 156 37.5h63v-110h-45c-23.333 0 -40.333 -5 -51 -15s-16 -26.667 -16 -50
c0 -16 1.5 -30.333 4.5 -43l9 -38.5c3 -13 4.5 -28.5 4.5 -46.5c0 -34.667 -10.333 -60.167 -31 -76.5s-43.667 -26.5 -69 -30.5c25.333 -4 48.333 -14.167 69 -30.5s31 -41.833 31 -76.5c0 -18 -1.5 -33.667 -4.5 -47l-9 -38.5c-3 -12.333 -4.5 -26.5 -4.5 -42.5
c0 -23.333 5.33301 -40 16 -50s27.667 -15 51 -15h45v-110h-63c-75.333 0 -127.333 12.5 -156 37.5s-43 60.167 -43 105.5c0 28 2.83301 52.5 8.5 73.5s8.5 43.167 8.5 66.5c0 20.667 -5.16699 37.834 -15.5 51.501s-30.166 20.5 -59.499 20.5h-29z" />
    <glyph glyph-name="bar" unicode="|" horiz-adv-x="281" 
d="M72 -100v820h137v-820h-137z" />
    <glyph glyph-name="braceright" unicode="}" horiz-adv-x="389" 
d="M15 -100v110.002h45c22.667 0 39.5 5 50.5 15s16.5 26.667 16.5 50c0 16 -1.5 30.167 -4.5 42.5l-9 38.5c-3 13.333 -4.5 29 -4.5 47c0 34.667 10.333 60.167 31 76.5s43.667 26.5 69 30.5c-25.333 4 -48.333 14.167 -69 30.5s-31 41.833 -31 76.5
c0 18 1.5 33.5 4.5 46.5l9 38.5c3 12.667 4.5 27 4.5 43c0 23.333 -5.5 40 -16.5 50s-27.833 15 -50.5 15h-45v110h63c74.667 0 126.5 -12.5 155.5 -37.5s43.5 -60.167 43.5 -105.5c0 -28 -2.83301 -52.5 -8.5 -73.5s-8.5 -43.167 -8.5 -66.5
c0 -20.667 5.33301 -37.834 16 -51.501s30.334 -20.5 59.001 -20.5h29v-110h-29c-28.667 0 -48.334 -6.83301 -59.001 -20.5s-16 -30.834 -16 -51.501c0 -23.333 2.83301 -45.5 8.5 -66.5s8.5 -45.5 8.5 -73.5c0 -45.333 -14.5 -80.5 -43.5 -105.5
s-80.833 -37.5 -155.5 -37.5h-63z" />
    <glyph glyph-name="asciitilde" unicode="~" horiz-adv-x="590" 
d="M273 258c-12.667 14 -23.5 24.667 -32.5 32s-17.833 11 -26.5 11c-12 0 -21.833 -7 -29.5 -21s-11.5 -39 -11.5 -75h-117c0 36.667 5.83301 70.167 17.5 100.5s28.667 54.5 51 72.5s48.833 27 79.5 27c26 0 48.833 -6.16699 68.5 -18.5s35.834 -25.833 48.501 -40.5
c12.667 -14 23.5 -24.667 32.5 -32s17.833 -11 26.5 -11c12 0 21.833 7 29.5 21s11.5 39 11.5 75h117c0 -36.667 -5.83301 -70.167 -17.5 -100.5s-28.667 -54.5 -51 -72.5s-48.833 -27 -79.5 -27c-26 0 -48.833 6.16699 -68.5 18.5s-35.834 25.833 -48.501 40.5z" />
    <glyph glyph-name="uni00A0" unicode="&#xa0;" horiz-adv-x="200" 
 />
    <glyph glyph-name="exclamdown" unicode="&#xa1;" horiz-adv-x="275" 
d="M138 334c-26 0 -47.667 8.33301 -65 25s-26 38.334 -26 65.001c0 24.667 9 45.834 27 63.501s39.333 26.5 64 26.5c25.333 0 46.666 -8.83301 63.999 -26.5s26 -38.834 26 -63.501c0 -26.667 -8.66699 -48.334 -26 -65.001s-38.666 -25 -63.999 -25zM227 -166h-179
l30 458h118z" />
    <glyph glyph-name="cent" unicode="&#xa2;" horiz-adv-x="590" 
d="M270 0l-0.00195312 71.999c-41.333 4.66699 -78.333 17.667 -111 39s-58.5 50.333 -77.5 87s-28.5 80.667 -28.5 132c0 48.667 9.5 91.5 28.5 128.5s44.833 66.5 77.5 88.5s69.667 35.667 111 41v72h69v-72c50.667 -5.33301 94.834 -24 132.501 -56s60.167 -78 67.5 -138
h-151c-4 26 -11.5 46 -22.5 60s-23.167 23 -36.5 27v-303c13.333 4.66699 25.833 13.667 37.5 27s19.834 32.666 24.501 57.999h150c-10 -59.333 -34 -104.666 -72 -135.999s-81.333 -49.666 -130 -54.999v-72h-69zM218.998 329.999c0 -45.333 5.66699 -79.999 17 -103.999
s26 -39.333 44 -46v300c-18 -6.66699 -32.667 -21.834 -44 -45.501s-17 -58.5 -17 -104.5z" />
    <glyph glyph-name="sterling" unicode="&#xa3;" horiz-adv-x="590" 
d="M426 266l-115.997 -0.000976562c0.666992 -7.33301 1 -14.666 1 -21.999c0 -30.667 -5.83301 -55.5 -17.5 -74.5s-26.167 -33.833 -43.5 -44.5h290v-125h-510v110c23.333 0 43.166 5.66699 59.499 17s28.666 25.5 36.999 42.5s12.5 34.5 12.5 52.5
c0 14.667 -1.33301 29.334 -4 44.001h-103v110h74c-4 14.667 -7.33301 30.167 -10 46.5s-4 34.166 -4 53.499c0 58.667 21.333 105.667 64 141s99.667 53 171 53c60.667 0 111.667 -16.5 153 -49.5s67.666 -78.5 78.999 -136.5h-176c-5.33301 26.667 -13 45.667 -23 57
s-23 17 -39 17c-15.333 0 -28.5 -6.16699 -39.5 -18.5s-16.5 -30.5 -16.5 -54.5c0 -19.333 2 -38 6 -56s8.66699 -35.667 14 -53h141v-110z" />
    <glyph glyph-name="currency" unicode="&#xa4;" horiz-adv-x="590" 
d="M67 332c0 22.667 3.16699 44.167 9.5 64.5s14.833 39.166 25.5 56.499l-69 69l72 72l71 -71c36 20.667 75.667 31 119 31c42.667 0 82 -10.667 118 -32l72 71l72 -72l-70 -70c10.667 -17.333 19 -36 25 -56s9 -41 9 -63c0 -22.667 -3 -44 -9 -64s-14.333 -38.667 -25 -56
l70 -70l-72 -72l-72 71c-36 -21.333 -75.333 -32 -118 -32c-43.333 0 -83 10.333 -119 31l-71 -71l-72 72l69 69c-10.667 17.333 -19.167 36.333 -25.5 57s-9.5 42.334 -9.5 65.001zM197 332c0 -32.667 9.16699 -59.667 27.5 -81s41.833 -32 70.5 -32
c27.333 0 50.166 10.667 68.499 32s27.5 48.333 27.5 81c0 32 -9.16699 58.667 -27.5 80s-41.166 32 -68.499 32c-28.667 0 -52.167 -10.667 -70.5 -32s-27.5 -48 -27.5 -80z" />
    <glyph glyph-name="yen" unicode="&#xa5;" horiz-adv-x="590" 
d="M212 0v117h-134v80h134v49h-134v80h103l-166 328h173l111 -263l109 263h167l-166 -328h103v-80h-134v-49h134v-80h-134v-117h-166z" />
    <glyph glyph-name="section" unicode="&#xa7;" horiz-adv-x="524" 
d="M446 376l0.000976562 -118.001l-217 63c-52.667 15.333 -93.334 32 -122.001 50s-48.667 38.833 -60 62.5s-17 50.834 -17 81.501c0 52.667 20 94.334 60 125.001s95.333 46 166 46s126.334 -14.667 167.001 -44s64 -71.333 70 -126h-159
c-2.66699 27.333 -12.334 46.166 -29.001 56.499s-33.667 15.5 -51 15.5c-22 0 -38.667 -5.83301 -50 -17.5s-17 -27.5 -17 -47.5c0 -19.333 4.83301 -36 14.5 -50s28.167 -25.667 55.5 -35zM77.001 200.999l-0.000976562 117.995l217 -63
c52 -15.333 92.5 -32.166 121.5 -50.499s49.167 -39.166 60.5 -62.499s17 -50.333 17 -81c0 -53.333 -20 -95.166 -60 -125.499s-95.333 -45.5 -166 -45.5c-71.333 0 -127.166 14.667 -167.499 44s-63.5 71.333 -69.5 126h159c2.66699 -27.333 12.5 -46.166 29.5 -56.499
s33.833 -15.5 50.5 -15.5c22 0 38.667 5.83301 50 17.5s17 27.167 17 46.5s-5 36.333 -15 51s-28.333 26.334 -55 35.001z" />
    <glyph glyph-name="dieresis" unicode="&#xa8;" horiz-adv-x="500" 
d="M350 561c-22 0 -40.833 7.66699 -56.5 23s-23.5 34.333 -23.5 57c0 21.333 7.83301 39.666 23.5 54.999s34.5 23 56.5 23c21.333 0 40 -7.66699 56 -23s24 -33.666 24 -54.999c0 -22.667 -8 -41.667 -24 -57s-34.667 -23 -56 -23zM150 561
c-22 0 -40.833 7.66699 -56.5 23s-23.5 34.333 -23.5 57c0 21.333 7.83301 39.666 23.5 54.999s34.5 23 56.5 23c21.333 0 40 -7.66699 56 -23s24 -33.666 24 -54.999c0 -22.667 -8 -41.667 -24 -57s-34.667 -23 -56 -23z" />
    <glyph glyph-name="copyright" unicode="&#xa9;" horiz-adv-x="833" 
d="M417 0c-64.667 0 -122.334 14.333 -173.001 43s-90.334 68.334 -119.001 119.001s-43 108.334 -43 173.001s14.333 122.334 43 173.001s68.334 90.334 119.001 119.001s108.334 43 173.001 43s122.334 -14.333 173.001 -43s90.334 -68.334 119.001 -119.001
s43 -108.334 43 -173.001s-14.333 -122.334 -43 -173.001s-68.334 -90.334 -119.001 -119.001s-108.334 -43 -173.001 -43zM417 75c50 0 93.667 10.833 131 32.5s66.5 52.167 87.5 91.5s31.5 84.666 31.5 135.999s-10.5 96.666 -31.5 135.999s-50.167 69.833 -87.5 91.5
s-81 32.5 -131 32.5s-93.667 -10.833 -131 -32.5s-66.5 -52.167 -87.5 -91.5s-31.5 -84.666 -31.5 -135.999s10.5 -96.666 31.5 -135.999s50.167 -69.833 87.5 -91.5s81 -32.5 131 -32.5zM425 142c-35.333 0 -66.9971 7.66699 -94.9971 23s-50 37.5 -66 66.5
s-24 63.5 -24 103.5c0 39.333 8.33301 73.5 25 102.5s39 51.5 67 67.5s59 24 93 24c41.333 0 78.166 -12 110.499 -36s52.166 -61 59.499 -111h-128c-2.66699 22 -7.66699 37.667 -15 47s-16.333 14 -27 14c-12.667 0 -24.334 -8.33301 -35.001 -25s-16 -44.334 -16 -83.001
c0 -38 5.33301 -65.333 16 -82s22.334 -25 35.001 -25c11.333 0 20.666 4.33301 27.999 13s12.666 23.334 15.999 44.001h127c-9.33301 -50 -30.166 -86.333 -62.499 -109s-68.5 -34 -108.5 -34z" />
    <glyph glyph-name="ordfeminine" unicode="&#xaa;" horiz-adv-x="437" 
d="M137 278c-36 0 -64.499 9.16602 -85.499 27.499s-31.5 42.5 -31.5 72.5c0 26 7 47.833 21 65.5s32.333 31.667 55 42s47.167 17.833 73.5 22.5s52.166 7.33398 77.499 8.00098v8c0 18.667 -3.16699 33.667 -9.5 45s-16.833 17 -31.5 17c-12.667 0 -22.334 -4 -29.001 -12
s-11.334 -18.333 -14.001 -31h-126c6.66699 40 25.334 71.167 56.001 93.5s70.667 33.5 120 33.5c60.667 0 104.834 -14.167 132.501 -42.5s41.5 -70.833 41.5 -127.5v-215h-119l-10 54c-12 -19.333 -28.667 -34.333 -50 -45s-45 -16 -71 -16zM192.001 362.999
c16 0 29.168 5.83203 39.501 17.499s15.5 26.834 15.5 45.501v33c-30.667 -1.33301 -52.834 -7.83301 -66.501 -19.5s-20.5 -25.5 -20.5 -41.5c0 -10.667 3 -19.167 9 -25.5s13.667 -9.5 23 -9.5z" />
    <glyph glyph-name="guillemotleft" unicode="&#xab;" horiz-adv-x="623" 
d="M168 52l-138 201l138 201h159l-131 -199l134 -203h-162zM448 52l-138 201l138 201h159l-131 -199l134 -203h-162z" />
    <glyph glyph-name="logicalnot" unicode="&#xac;" horiz-adv-x="590" 
d="M395 181v137h-318v116h436v-253h-118z" />
    <glyph glyph-name="uni00AD" unicode="&#xad;" horiz-adv-x="374" 
d="M25 182v130h324v-130h-324z" />
    <glyph glyph-name="registered" unicode="&#xae;" horiz-adv-x="550" 
d="M275 188c-48.667 0 -91.334 10.333 -128.001 31s-65.334 49.334 -86.001 86.001s-31 79.667 -31 129s10.333 92.333 31 129s49.334 65.334 86.001 86.001s79.334 31 128.001 31s91.334 -10.333 128.001 -31s65.334 -49.334 86.001 -86.001s31 -79.667 31 -129
s-10.333 -92.333 -31 -129s-49.334 -65.334 -86.001 -86.001s-79.334 -31 -128.001 -31zM275 249c53.333 0 95.666 16.5 126.999 49.5s47 78.167 47 135.5c0 58 -15.667 103.5 -47 136.5s-73.666 49.5 -126.999 49.5c-55.333 0 -98.166 -16.5 -128.499 -49.5
s-45.5 -78.5 -45.5 -136.5c0 -57.333 15.167 -102.5 45.5 -135.5s73.166 -49.5 128.499 -49.5zM177 314l0.000976562 247h105c65.333 0 98 -25 98 -75c0 -16 -5.33301 -29 -16 -39s-24.334 -17 -41.001 -21c18.667 -8 33.667 -21.833 45 -41.5s19.333 -43.167 24 -70.5h-72
c-5.33301 28.667 -13.5 51.167 -24.5 67.5s-26.833 24.5 -47.5 24.5h-2v-92h-69zM270.001 516l-24 0.000976562v-64h24c14.667 0 25.167 3 31.5 9s9.5 13.333 9.5 22c0 9.33301 -3.16699 17.166 -9.5 23.499s-16.833 9.5 -31.5 9.5z" />
    <glyph glyph-name="macron" unicode="&#xaf;" horiz-adv-x="500" 
d="M87 589v106h326v-106h-326z" />
    <glyph glyph-name="degree" unicode="&#xb0;" horiz-adv-x="319" 
d="M159 424c-42 0 -76.667 12.667 -104 38s-41 58.666 -41 99.999s13.667 74.666 41 99.999s62 38 104 38s76.667 -12.667 104 -38s41 -58.666 41 -99.999s-13.667 -74.666 -41 -99.999s-62 -38 -104 -38zM159 496c16.667 0 30.5 5.83301 41.5 17.5s16.5 27.834 16.5 48.501
s-5.5 36.834 -16.5 48.501s-24.833 17.5 -41.5 17.5s-30.5 -5.83301 -41.5 -17.5s-16.5 -27.834 -16.5 -48.501s5.5 -36.834 16.5 -48.501s24.833 -17.5 41.5 -17.5z" />
    <glyph glyph-name="uni00B2" unicode="&#xb2;" horiz-adv-x="373" 
d="M29 378l-0.00195312 14c0 34 7.83301 63.667 23.5 89s40.834 50.333 75.501 75l45 32c16.667 12 28.667 22.667 36 32s11 20.333 11 33c0 30 -11.667 45 -35 45c-12.667 0 -22.5 -5.33301 -29.5 -16s-11.167 -27.667 -12.5 -51h-115c2.66699 47.333 18.667 84 48 110
s68.333 39 117 39c44.667 0 80.834 -11.167 108.501 -33.5s41.5 -51.833 41.5 -88.5c0 -24.667 -6 -47.167 -18 -67.5s-31.667 -39.5 -59 -57.5l-53 -35c-20 -12.667 -32.333 -23 -37 -31h170v-89h-317z" />
    <glyph glyph-name="uni00B3" unicode="&#xb3;" horiz-adv-x="367" 
d="M186 368c-50.667 0 -90.668 11.666 -120.001 34.999s-46.333 57.666 -51 102.999h113c2.66699 -38 20 -57 52 -57c31.333 0 47 15.333 47 46c0 19.333 -6.16699 33.5 -18.5 42.5s-31.833 13.5 -58.5 13.5h-11v70h11c25.333 0 43.166 3.16699 53.499 9.5
s15.5 16.5 15.5 30.5c0 26.667 -13 40 -39 40c-21.333 0 -33.666 -13 -36.999 -39h-113c6 38.667 22.5 68 49.5 88s62.833 30 107.5 30s80.834 -10.167 108.501 -30.5s41.5 -47.166 41.5 -80.499c0 -40 -22.333 -68.333 -67 -85c52.667 -17.333 79 -48.666 79 -93.999
c0 -37.333 -14.667 -67 -44 -89s-69 -33 -119 -33z" />
    <glyph glyph-name="acute" unicode="&#xb4;" horiz-adv-x="500" 
d="M149 625l150 156l88 -105l-179 -120z" />
    <glyph glyph-name="paragraph" unicode="&#xb6;" horiz-adv-x="624" 
d="M270 -105v321h-12c-78.667 0 -137.834 21 -177.501 63s-59.5 96.667 -59.5 164c0 68.667 19.833 123.667 59.5 165s98.834 62 177.501 62h286v-775h-98v677h-78v-677h-98z" />
    <glyph glyph-name="periodcentered" unicode="&#xb7;" horiz-adv-x="220" 
d="M109 158c-25.333 0 -46.666 8.83301 -63.999 26.5s-26 38.834 -26 63.501c0 26.667 8.66699 48.334 26 65.001s38.666 25 63.999 25c26 0 47.667 -8.33301 65 -25s26 -38.334 26 -65.001c0 -24.667 -9 -45.834 -27 -63.501s-39.333 -26.5 -64 -26.5z" />
    <glyph glyph-name="cedilla" unicode="&#xb8;" horiz-adv-x="500" 
d="M180 0l70 0.000976562l-9 -59c6.66699 2 14.334 3 23.001 3c30 0 54.5 -9 73.5 -27s28.5 -41.667 28.5 -71c0 -36.667 -12.333 -65.5 -37 -86.5s-60 -31.5 -106 -31.5c-26.667 0 -53 3.66699 -79 11l7 74c23.333 -6 44.666 -9 63.999 -9c36 0 54 13.333 54 40
c0 11.333 -3.5 20.666 -10.5 27.999s-16.167 11 -27.5 11c-13.333 0 -26 -3.66699 -38 -11h-28z" />
    <glyph glyph-name="uni00B9" unicode="&#xb9;" horiz-adv-x="290" 
d="M17 622v95.001c23.333 4 45.166 10 65.499 18s38.833 19.667 55.5 35h91v-392h-121v264c-31.333 -10.667 -61.666 -17.334 -90.999 -20.001z" />
    <glyph glyph-name="ordmasculine" unicode="&#xba;" horiz-adv-x="444" 
d="M221 278c-40.667 0 -76 8.83301 -106 26.5s-53.167 41.334 -69.5 71.001s-24.5 62.167 -24.5 97.5c0 36.667 8.16699 69.834 24.5 99.501s39.5 53.334 69.5 71.001s65.333 26.5 106 26.5c41.333 0 77 -8.83301 107 -26.5s53.167 -41.334 69.5 -71.001
s24.5 -62.834 24.5 -99.501c0 -35.333 -8.16699 -67.833 -24.5 -97.5s-39.5 -53.334 -69.5 -71.001s-65.667 -26.5 -107 -26.5zM221 367c18 0 31.833 9.16602 41.5 27.499s14.5 44.5 14.5 78.5c0 72 -18.667 108 -56 108c-16.667 0 -29.834 -9.16699 -39.501 -27.5
s-14.5 -45.166 -14.5 -80.499c0 -34 4.83301 -60.167 14.5 -78.5s22.834 -27.5 39.501 -27.5z" />
    <glyph glyph-name="guillemotright" unicode="&#xbb;" horiz-adv-x="623" 
d="M175 454l138 -201l-138 -201h-159l131 199l-134 203h162zM455 454l138 -201l-138 -201h-159l131 199l-134 203h162z" />
    <glyph glyph-name="onequarter" unicode="&#xbc;" horiz-adv-x="812" 
d="M177 0l318 660h138l-318 -660h-138zM465 72v75l189 245h101v-236h44v-84h-44v-72h-111v72h-179zM564 156h80v106zM17 512v95.001c23.333 4 45.166 10 65.499 18s38.833 19.667 55.5 35h91v-392h-121v264c-31.333 -10.667 -61.666 -17.334 -90.999 -20.001z" />
    <glyph glyph-name="onehalf" unicode="&#xbd;" horiz-adv-x="872" 
d="M177 0l318 660h138l-318 -660h-138zM528 0l-0.00195312 14c0 34 7.83301 63.667 23.5 89s40.834 50.333 75.501 75l45 32c16.667 12 28.667 22.667 36 32s11 20.333 11 33c0 30 -11.667 45 -35 45c-12.667 0 -22.5 -5.33301 -29.5 -16s-11.167 -27.667 -12.5 -51h-115
c2.66699 47.333 18.667 84 48 110s68.333 39 117 39c44.667 0 80.834 -11.167 108.501 -33.5s41.5 -51.833 41.5 -88.5c0 -24.667 -6 -47.167 -18 -67.5s-31.667 -39.5 -59 -57.5l-53 -35c-20 -12.667 -32.333 -23 -37 -31h170v-89h-317zM16.998 512v95.001
c23.333 4 45.166 10 65.499 18s38.833 19.667 55.5 35h91v-392h-121v264c-31.333 -10.667 -61.666 -17.334 -90.999 -20.001z" />
    <glyph glyph-name="threequarters" unicode="&#xbe;" horiz-adv-x="870" 
d="M235 0l318 660h138l-318 -660h-138zM523 72v75l189 245h101v-236h44v-84h-44v-72h-111v72h-179zM622 156h80v106zM186 258c-50.667 0 -90.668 11.666 -120.001 34.999s-46.333 57.666 -51 102.999h113c2.66699 -38 20 -57 52 -57c31.333 0 47 15.333 47 46
c0 19.333 -6.16699 33.5 -18.5 42.5s-31.833 13.5 -58.5 13.5h-11v70h11c25.333 0 43.166 3.16699 53.499 9.5s15.5 16.5 15.5 30.5c0 26.667 -13 40 -39 40c-21.333 0 -33.666 -13 -36.999 -39h-113c6 38.667 22.5 68 49.5 88s62.833 30 107.5 30
s80.834 -10.167 108.501 -30.5s41.5 -47.166 41.5 -80.499c0 -40 -22.333 -68.333 -67 -85c52.667 -17.333 79 -48.666 79 -93.999c0 -37.333 -14.667 -67 -44 -89s-69 -33 -119 -33z" />
    <glyph glyph-name="questiondown" unicode="&#xbf;" horiz-adv-x="475" 
d="M266 334c-26 0 -47.667 8.33301 -65 25s-26 38.334 -26 65.001c0 24.667 9 45.834 27 63.501s39.333 26.5 64 26.5c25.333 0 46.666 -8.83301 63.999 -26.5s26 -38.834 26 -63.501c0 -26.667 -8.66699 -48.334 -26 -65.001s-38.666 -25 -63.999 -25zM318 27
l164 0.00195312c-3.33301 -64 -25.833 -114.833 -67.5 -152.5s-99.5 -56.5 -173.5 -56.5c-47.333 0 -88.833 7.5 -124.5 22.5s-63.5 36.333 -83.5 64s-30 60.5 -30 98.5c0 39.333 9 71.166 27 95.499s42.667 47.833 74 70.5l45 33c16.667 12 27.5 24.333 32.5 37
s7.5 27 7.5 43v10h153v-30c0 -30 -5.66699 -54.833 -17 -74.5s-31.333 -40.834 -60 -63.501l-38 -30c-18.667 -14.667 -31.167 -28 -37.5 -40s-9.5 -28 -9.5 -48c0 -18.667 5.5 -34.667 16.5 -48s26.833 -20 47.5 -20c21.333 0 38.5 7.16699 51.5 21.5
s20.5 36.833 22.5 67.5z" />
    <glyph glyph-name="Agrave" unicode="&#xc0;" horiz-adv-x="666" 
d="M480 0l-39 124h-222l-39 -124h-173l240 670h173l239 -670h-179zM258 251h143l-71 229zM231 940l225 -145l-42 -83l-252 97z" />
    <glyph glyph-name="Aacute" unicode="&#xc1;" horiz-adv-x="666" 
d="M480 0l-39 124h-222l-39 -124h-173l240 670h173l239 -670h-179zM258 251h143l-71 229zM210 795l225 145l69 -131l-252 -97z" />
    <glyph glyph-name="Acircumflex" unicode="&#xc2;" horiz-adv-x="666" 
d="M480 0l-39 124h-222l-39 -124h-173l240 670h173l239 -670h-179zM258 251h143l-71 229zM369 915l162 -125l-53 -80l-145 90l-145 -90l-53 80l162 125h72z" />
    <glyph glyph-name="Atilde" unicode="&#xc3;" horiz-adv-x="666" 
d="M480 0l-39 124h-222l-39 -124h-173l240 670h173l239 -670h-179zM258 251h143l-71 229zM310 777c-10 7.33301 -18.667 13 -26 17s-14.333 6 -21 6c-8 0 -15.167 -4.5 -21.5 -13.5s-11.833 -24.833 -16.5 -47.5h-99c3.33301 31.333 10.666 59.833 21.999 85.5
s26 46.167 44 61.5s38.333 23 61 23c19.333 0 37 -4 53 -12s32.667 -18.667 50 -32c10 -7.33301 18.667 -13 26 -17s14.333 -6 21 -6c8 0 15.167 4.5 21.5 13.5s11.833 24.833 16.5 47.5h99c-3.33301 -31.333 -10.666 -59.833 -21.999 -85.5s-26 -46.167 -44 -61.5
s-38.333 -23 -61 -23c-19.333 0 -37 4 -53 12s-32.667 18.667 -50 32z" />
    <glyph glyph-name="Adieresis" unicode="&#xc4;" horiz-adv-x="666" 
d="M480 0l-39 124h-222l-39 -124h-173l240 670h173l239 -670h-179zM258 251h143l-71 229zM448 736c-23.333 0 -43 8 -59 24s-24 36 -24 60s8 44 24 60s35.667 24 59 24s43 -8 59 -24s24 -36 24 -60s-8 -44 -24 -60s-35.667 -24 -59 -24zM218 736c-23.333 0 -43 8 -59 24
s-24 36 -24 60s8 44 24 60s35.667 24 59 24s43 -8 59 -24s24 -36 24 -60s-8 -44 -24 -60s-35.667 -24 -59 -24z" />
    <glyph glyph-name="Aring" unicode="&#xc5;" horiz-adv-x="666" 
d="M480 0l-39 124h-222l-39 -124h-173l240 670h173l239 -670h-179zM258 251h143l-71 229zM333 718c-36.667 0 -66.667 11.5 -90 34.5s-35 52.167 -35 87.5c0 37.333 11.667 67 35 89s53.333 33 90 33c37.333 0 67.833 -11 91.5 -33s35.5 -51.667 35.5 -89
c0 -35.333 -11.833 -64.5 -35.5 -87.5s-54.167 -34.5 -91.5 -34.5zM333 788c14 0 25.667 4.83301 35 14.5s14 22.167 14 37.5c0 14.667 -4.5 27 -13.5 37s-20.833 15 -35.5 15s-26.5 -5 -35.5 -15s-13.5 -22.333 -13.5 -37c0 -15.333 4.5 -27.833 13.5 -37.5
s20.833 -14.5 35.5 -14.5z" />
    <glyph glyph-name="AE" unicode="&#xc6;" horiz-adv-x="970" 
d="M7 0l391 670h523v-131h-276v-139h245v-125h-245v-144h280v-131h-458v122h-221l-66 -122h-173zM316 253h151v281z" />
    <glyph glyph-name="Ccedilla" unicode="&#xc7;" horiz-adv-x="692" 
d="M360 -16c-70 0 -129.163 14.8291 -177.496 44.4961s-84.833 70.834 -109.5 123.501s-37 113.667 -37 183c0 68.667 12.333 129.334 37 182.001s61.167 94 109.5 124s107.5 45 177.5 45c85.333 0 154.166 -23.333 206.499 -70s85.5 -109.667 99.5 -189h-187
c-7.33301 40.667 -21.333 72.5 -42 95.5s-46.334 34.5 -77.001 34.5c-44.667 0 -78.834 -19.667 -102.501 -59s-35.5 -93.666 -35.5 -162.999s11.833 -123.666 35.5 -162.999s57.834 -59 102.501 -59c30 0 55.167 10.833 75.5 32.5s34.166 52.167 41.499 91.5h187
c-8 -50.667 -25.167 -95 -51.5 -133s-60.833 -67.5 -103.5 -88.5s-92.334 -31.5 -149.001 -31.5zM309.004 -0.00390625l75.999 -0.000976562l-6 -58c4.66699 1.33301 10.667 2 18 2c30.667 0 55.834 -9.16699 75.501 -27.5s29.5 -42.833 29.5 -73.5
c0 -37.333 -12.5 -66.833 -37.5 -88.5s-60.167 -32.5 -105.5 -32.5c-12 0 -26 1 -42 3s-30.333 5.33301 -43 10l7 79c12.667 -4 25.167 -6.66699 37.5 -8s23.166 -2 32.499 -2c32 0 48 12.333 48 37c0 10.667 -3.16699 19.334 -9.5 26.001s-14.833 10 -25.5 10
c-13.333 0 -25.666 -3.66699 -36.999 -11h-32z" />
    <glyph glyph-name="Egrave" unicode="&#xc8;" horiz-adv-x="577" 
d="M74 0v670h454v-131h-276v-139h245v-125h-245v-144h280v-131h-458zM199 940l225 -145l-42 -83l-252 97z" />
    <glyph glyph-name="Eacute" unicode="&#xc9;" horiz-adv-x="577" 
d="M74 0v670h454v-131h-276v-139h245v-125h-245v-144h280v-131h-458zM178 795l225 145l69 -131l-252 -97z" />
    <glyph glyph-name="Ecircumflex" unicode="&#xca;" horiz-adv-x="577" 
d="M74 0v670h454v-131h-276v-139h245v-125h-245v-144h280v-131h-458zM337 915l162 -125l-53 -80l-145 90l-145 -90l-53 80l162 125h72z" />
    <glyph glyph-name="Edieresis" unicode="&#xcb;" horiz-adv-x="577" 
d="M74 0v670h454v-131h-276v-139h245v-125h-245v-144h280v-131h-458zM416 736c-23.333 0 -43 8 -59 24s-24 36 -24 60s8 44 24 60s35.667 24 59 24s43 -8 59 -24s24 -36 24 -60s-8 -44 -24 -60s-35.667 -24 -59 -24zM186 736c-23.333 0 -43 8 -59 24s-24 36 -24 60
s8 44 24 60s35.667 24 59 24s43 -8 59 -24s24 -36 24 -60s-8 -44 -24 -60s-35.667 -24 -59 -24z" />
    <glyph glyph-name="Igrave" unicode="&#xcc;" horiz-adv-x="326" 
d="M74 0v670h178v-670h-178zM61 940l225 -145l-42 -83l-252 97z" />
    <glyph glyph-name="Iacute" unicode="&#xcd;" horiz-adv-x="326" 
d="M74 0v670h178v-670h-178zM40 795l225 145l69 -131l-252 -97z" />
    <glyph glyph-name="Icircumflex" unicode="&#xce;" horiz-adv-x="326" 
d="M74 0v670h178v-670h-178zM199 915l162 -125l-53 -80l-145 90l-145 -90l-53 80l162 125h72z" />
    <glyph glyph-name="Idieresis" unicode="&#xcf;" horiz-adv-x="326" 
d="M74 0v670h178v-670h-178zM278 736c-23.333 0 -43 8 -59 24s-24 36 -24 60s8 44 24 60s35.667 24 59 24s43 -8 59 -24s24 -36 24 -60s-8 -44 -24 -60s-35.667 -24 -59 -24zM48 736c-23.333 0 -43 8 -59 24s-24 36 -24 60s8 44 24 60s35.667 24 59 24s43 -8 59 -24
s24 -36 24 -60s-8 -44 -24 -60s-35.667 -24 -59 -24z" />
    <glyph glyph-name="Eth" unicode="&#xd0;" horiz-adv-x="732" 
d="M94 0v281.999h-80v115h80v273h235c79.333 0 146.333 -14.667 201 -44s96 -69.166 124 -119.499s42 -107.5 42 -171.5c0 -64.667 -14 -122.167 -42 -172.5s-69.333 -90 -124 -119s-121.667 -43.5 -201 -43.5h-235zM408 281.999l-146 -0.000976562v-157h67
c62 0 107.667 18.333 137 55s44 88.334 44 155.001c0 67.333 -14.667 119.333 -44 156s-75 55 -137 55h-67v-149h146v-115z" />
    <glyph glyph-name="Ntilde" unicode="&#xd1;" horiz-adv-x="725" 
d="M74 0v670h167l237 -408v408h173v-670h-164l-240 415v-415h-173zM339 777c-10 7.33301 -18.667 13 -26 17s-14.333 6 -21 6c-8 0 -15.167 -4.5 -21.5 -13.5s-11.833 -24.833 -16.5 -47.5h-99c3.33301 31.333 10.666 59.833 21.999 85.5s26 46.167 44 61.5s38.333 23 61 23
c19.333 0 37 -4 53 -12s32.667 -18.667 50 -32c10 -7.33301 18.667 -13 26 -17s14.333 -6 21 -6c8 0 15.167 4.5 21.5 13.5s11.833 24.833 16.5 47.5h99c-3.33301 -31.333 -10.666 -59.833 -21.999 -85.5s-26 -46.167 -44 -61.5s-38.333 -23 -61 -23c-19.333 0 -37 4 -53 12
s-32.667 18.667 -50 32z" />
    <glyph glyph-name="Ograve" unicode="&#xd2;" horiz-adv-x="735" 
d="M367 -16c-70.667 0 -130.667 14.834 -180 44.501s-86.833 71 -112.5 124s-38.5 113.833 -38.5 182.5c0 68 12.833 128.5 38.5 181.5s63.167 94.5 112.5 124.5s109.333 45 180 45c71.333 0 131.666 -15 180.999 -45s86.833 -71.5 112.5 -124.5s38.5 -113.5 38.5 -181.5
c0 -68.667 -12.833 -129.334 -38.5 -182.001s-63.167 -94 -112.5 -124s-109.666 -45 -180.999 -45zM367 113.001c47.333 0 83.5 20 108.5 60s37.5 94 37.5 162s-12.5 122 -37.5 162s-61.167 60 -108.5 60s-83.333 -20 -108 -60s-37 -94 -37 -162s12.333 -122 37 -162
s60.667 -60 108 -60zM265 940.001l225 -145l-42 -83l-252 97z" />
    <glyph glyph-name="Oacute" unicode="&#xd3;" horiz-adv-x="735" 
d="M367 -16c-70.667 0 -130.667 14.834 -180 44.501s-86.833 71 -112.5 124s-38.5 113.833 -38.5 182.5c0 68 12.833 128.5 38.5 181.5s63.167 94.5 112.5 124.5s109.333 45 180 45c71.333 0 131.666 -15 180.999 -45s86.833 -71.5 112.5 -124.5s38.5 -113.5 38.5 -181.5
c0 -68.667 -12.833 -129.334 -38.5 -182.001s-63.167 -94 -112.5 -124s-109.666 -45 -180.999 -45zM367 113.001c47.333 0 83.5 20 108.5 60s37.5 94 37.5 162s-12.5 122 -37.5 162s-61.167 60 -108.5 60s-83.333 -20 -108 -60s-37 -94 -37 -162s12.333 -122 37 -162
s60.667 -60 108 -60zM244 795.001l225 145l69 -131l-252 -97z" />
    <glyph glyph-name="Ocircumflex" unicode="&#xd4;" horiz-adv-x="735" 
d="M367 -16c-70.667 0 -130.667 14.834 -180 44.501s-86.833 71 -112.5 124s-38.5 113.833 -38.5 182.5c0 68 12.833 128.5 38.5 181.5s63.167 94.5 112.5 124.5s109.333 45 180 45c71.333 0 131.666 -15 180.999 -45s86.833 -71.5 112.5 -124.5s38.5 -113.5 38.5 -181.5
c0 -68.667 -12.833 -129.334 -38.5 -182.001s-63.167 -94 -112.5 -124s-109.666 -45 -180.999 -45zM367 113.001c47.333 0 83.5 20 108.5 60s37.5 94 37.5 162s-12.5 122 -37.5 162s-61.167 60 -108.5 60s-83.333 -20 -108 -60s-37 -94 -37 -162s12.333 -122 37 -162
s60.667 -60 108 -60zM403 915.001l162 -125l-53 -80l-145 90l-145 -90l-53 80l162 125h72z" />
    <glyph glyph-name="Otilde" unicode="&#xd5;" horiz-adv-x="735" 
d="M367 -16c-70.667 0 -130.667 14.834 -180 44.501s-86.833 71 -112.5 124s-38.5 113.833 -38.5 182.5c0 68 12.833 128.5 38.5 181.5s63.167 94.5 112.5 124.5s109.333 45 180 45c71.333 0 131.666 -15 180.999 -45s86.833 -71.5 112.5 -124.5s38.5 -113.5 38.5 -181.5
c0 -68.667 -12.833 -129.334 -38.5 -182.001s-63.167 -94 -112.5 -124s-109.666 -45 -180.999 -45zM367 113.001c47.333 0 83.5 20 108.5 60s37.5 94 37.5 162s-12.5 122 -37.5 162s-61.167 60 -108.5 60s-83.333 -20 -108 -60s-37 -94 -37 -162s12.333 -122 37 -162
s60.667 -60 108 -60zM344 777.001c-10 7.33301 -18.667 13 -26 17s-14.333 6 -21 6c-8 0 -15.167 -4.5 -21.5 -13.5s-11.833 -24.833 -16.5 -47.5h-99c3.33301 31.333 10.666 59.833 21.999 85.5s26 46.167 44 61.5s38.333 23 61 23c19.333 0 37 -4 53 -12
s32.667 -18.667 50 -32c10 -7.33301 18.667 -13 26 -17s14.333 -6 21 -6c8 0 15.167 4.5 21.5 13.5s11.833 24.833 16.5 47.5h99c-3.33301 -31.333 -10.666 -59.833 -21.999 -85.5s-26 -46.167 -44 -61.5s-38.333 -23 -61 -23c-19.333 0 -37 4 -53 12s-32.667 18.667 -50 32
z" />
    <glyph glyph-name="Odieresis" unicode="&#xd6;" horiz-adv-x="735" 
d="M367 -16c-70.667 0 -130.667 14.834 -180 44.501s-86.833 71 -112.5 124s-38.5 113.833 -38.5 182.5c0 68 12.833 128.5 38.5 181.5s63.167 94.5 112.5 124.5s109.333 45 180 45c71.333 0 131.666 -15 180.999 -45s86.833 -71.5 112.5 -124.5s38.5 -113.5 38.5 -181.5
c0 -68.667 -12.833 -129.334 -38.5 -182.001s-63.167 -94 -112.5 -124s-109.666 -45 -180.999 -45zM367 113.001c47.333 0 83.5 20 108.5 60s37.5 94 37.5 162s-12.5 122 -37.5 162s-61.167 60 -108.5 60s-83.333 -20 -108 -60s-37 -94 -37 -162s12.333 -122 37 -162
s60.667 -60 108 -60zM482 736.001c-23.333 0 -43 8 -59 24s-24 36 -24 60s8 44 24 60s35.667 24 59 24s43 -8 59 -24s24 -36 24 -60s-8 -44 -24 -60s-35.667 -24 -59 -24zM252 736.001c-23.333 0 -43 8 -59 24s-24 36 -24 60s8 44 24 60s35.667 24 59 24s43 -8 59 -24
s24 -36 24 -60s-8 -44 -24 -60s-35.667 -24 -59 -24z" />
    <glyph glyph-name="multiply" unicode="&#xd7;" horiz-adv-x="590" 
d="M159 115l-79 79l136 136l-136 136l79 79l136 -136l136 136l79 -79l-136 -136l136 -136l-79 -79l-136 136z" />
    <glyph glyph-name="Oslash" unicode="&#xd8;" horiz-adv-x="735" 
d="M74 8l48.999 72.998c-58 62.667 -87 147.334 -87 254.001c0 68 12.833 128.5 38.5 181.5s63.167 94.5 112.5 124.5s109.333 45 180 45c54 0 102.667 -9.33301 146 -28l48 71l99 -67l-49 -73c28.667 -31.333 50.5 -68.666 65.5 -111.999s22.5 -90.666 22.5 -141.999
c0 -68.667 -12.833 -129.334 -38.5 -182.001s-63.167 -94 -112.5 -124s-109.666 -45 -180.999 -45c-54 0 -102.667 9.33301 -146 28l-48 -71zM221.999 334.998c0 -38.667 4 -73 12 -103l204 304c-20 14 -43.667 21 -71 21c-47.333 0 -83.333 -20 -108 -60s-37 -94 -37 -162z
M366.999 112.998c47.333 0 83.5 20 108.5 60s37.5 94 37.5 162c0 39.333 -4 74 -12 104l-205 -305c20 -14 43.667 -21 71 -21z" />
    <glyph glyph-name="Ugrave" unicode="&#xd9;" horiz-adv-x="704" 
d="M351 -16c-92.667 0 -163.999 26 -213.999 78s-75 122.667 -75 212v396h178v-411c0 -43.333 9.5 -78.5 28.5 -105.5s46.5 -40.5 82.5 -40.5c36.667 0 64.667 13.5 84 40.5s29 62.167 29 105.5v411h178v-396c0 -89.333 -25.333 -160 -76 -212s-122.334 -78 -215.001 -78z
M250.001 940l225 -145l-42 -83l-252 97z" />
    <glyph glyph-name="Uacute" unicode="&#xda;" horiz-adv-x="704" 
d="M351 -16c-92.667 0 -163.999 26 -213.999 78s-75 122.667 -75 212v396h178v-411c0 -43.333 9.5 -78.5 28.5 -105.5s46.5 -40.5 82.5 -40.5c36.667 0 64.667 13.5 84 40.5s29 62.167 29 105.5v411h178v-396c0 -89.333 -25.333 -160 -76 -212s-122.334 -78 -215.001 -78z
M229.001 795l225 145l69 -131l-252 -97z" />
    <glyph glyph-name="Ucircumflex" unicode="&#xdb;" horiz-adv-x="704" 
d="M351 -16c-92.667 0 -163.999 26 -213.999 78s-75 122.667 -75 212v396h178v-411c0 -43.333 9.5 -78.5 28.5 -105.5s46.5 -40.5 82.5 -40.5c36.667 0 64.667 13.5 84 40.5s29 62.167 29 105.5v411h178v-396c0 -89.333 -25.333 -160 -76 -212s-122.334 -78 -215.001 -78z
M388.001 915l162 -125l-53 -80l-145 90l-145 -90l-53 80l162 125h72z" />
    <glyph glyph-name="Udieresis" unicode="&#xdc;" horiz-adv-x="704" 
d="M351 -16c-92.667 0 -163.999 26 -213.999 78s-75 122.667 -75 212v396h178v-411c0 -43.333 9.5 -78.5 28.5 -105.5s46.5 -40.5 82.5 -40.5c36.667 0 64.667 13.5 84 40.5s29 62.167 29 105.5v411h178v-396c0 -89.333 -25.333 -160 -76 -212s-122.334 -78 -215.001 -78z
M467.001 736c-23.333 0 -43 8 -59 24s-24 36 -24 60s8 44 24 60s35.667 24 59 24s43 -8 59 -24s24 -36 24 -60s-8 -44 -24 -60s-35.667 -24 -59 -24zM237.001 736c-23.333 0 -43 8 -59 24s-24 36 -24 60s8 44 24 60s35.667 24 59 24s43 -8 59 -24s24 -36 24 -60
s-8 -44 -24 -60s-35.667 -24 -59 -24z" />
    <glyph glyph-name="Yacute" unicode="&#xdd;" horiz-adv-x="634" 
d="M188 670l132 -274l135 274h178l-227 -400v-270h-178v268l-227 402h187zM197 795l225 145l69 -131l-252 -97z" />
    <glyph glyph-name="Thorn" unicode="&#xde;" horiz-adv-x="624" 
d="M74 670l178 -0.000976562v-107h82c86 0 152 -19.5 198 -58.5s69 -89.833 69 -152.5c0 -69.333 -23.5 -124.166 -70.5 -164.499s-119.167 -60.5 -216.5 -60.5h-62v-127h-178v670zM308 446.999h-56v-204h56c75.333 0 113 34 113 102s-37.667 102 -113 102z" />
    <glyph glyph-name="germandbls" unicode="&#xdf;" horiz-adv-x="616" 
d="M331 103c24.667 0 45.001 9.16992 61.001 27.5029s24 45.166 24 80.499c0 31.333 -9 56.666 -27 75.999s-45 29 -81 29h-23v109h22c20 0 36.167 7.83301 48.5 23.5s18.5 37.167 18.5 64.5c0 56.667 -23.333 85 -70 85c-22.667 0 -40.667 -8.5 -54 -25.5
s-20 -42.833 -20 -77.5v-495h-170v448c0 86.667 21.5 152.5 64.5 197.5s105.167 67.5 186.5 67.5c46.667 0 87.5 -8.16699 122.5 -24.5s62.167 -38.833 81.5 -67.5s29 -62 29 -100c0 -32 -6.5 -60.833 -19.5 -86.5s-36.833 -45.5 -71.5 -59.5c36.667 -10 65 -24.667 85 -44
s33.833 -40.833 41.5 -64.5s11.5 -47.834 11.5 -72.501c0 -66 -20.833 -117 -62.5 -153s-96.834 -54 -165.501 -54c-15.333 0 -31.5 1.5 -48.5 4.5s-33.167 7.83301 -48.5 14.5l21 104c14 -4.66699 28.667 -7 44 -7z" />
    <glyph glyph-name="agrave" unicode="&#xe0;" horiz-adv-x="554" 
d="M184 -13c-46.667 0 -84.834 12.332 -114.501 36.999s-44.5 59.667 -44.5 105c0 36 9.5 65.667 28.5 89s44 41.666 75 54.999s64.667 22.833 101 28.5s71.5 8.83398 105.5 9.50098v11c0 28.667 -5.5 50.834 -16.5 66.501s-26.833 23.5 -47.5 23.5
c-17.333 0 -32 -5.5 -44 -16.5s-19.667 -26.833 -23 -47.5h-160c8.66699 53.333 33.334 94.833 74.001 124.5s93.667 44.5 159 44.5c76 0 132.167 -18.833 168.5 -56.5s54.5 -94.167 54.5 -169.5v-291h-152l-4 66c-17.333 -24.667 -40.5 -44 -69.5 -58
s-59.167 -21 -90.5 -21zM251 91.999c23.333 0 43.167 9.16602 59.5 27.499s24.5 44.833 24.5 79.5v39c-50 -1.33301 -85.833 -10.166 -107.5 -26.499s-32.5 -36.5 -32.5 -60.5c0 -20 5.16699 -34.833 15.5 -44.5s23.833 -14.5 40.5 -14.5zM230.001 780.998l150 -156l-59 -69
l-179 120z" />
    <glyph glyph-name="aacute" unicode="&#xe1;" horiz-adv-x="554" 
d="M184 -13c-46.667 0 -84.834 12.332 -114.501 36.999s-44.5 59.667 -44.5 105c0 36 9.5 65.667 28.5 89s44 41.666 75 54.999s64.667 22.833 101 28.5s71.5 8.83398 105.5 9.50098v11c0 28.667 -5.5 50.834 -16.5 66.501s-26.833 23.5 -47.5 23.5
c-17.333 0 -32 -5.5 -44 -16.5s-19.667 -26.833 -23 -47.5h-160c8.66699 53.333 33.334 94.833 74.001 124.5s93.667 44.5 159 44.5c76 0 132.167 -18.833 168.5 -56.5s54.5 -94.167 54.5 -169.5v-291h-152l-4 66c-17.333 -24.667 -40.5 -44 -69.5 -58
s-59.167 -21 -90.5 -21zM251 91.999c23.333 0 43.167 9.16602 59.5 27.499s24.5 44.833 24.5 79.5v39c-50 -1.33301 -85.833 -10.166 -107.5 -26.499s-32.5 -36.5 -32.5 -60.5c0 -20 5.16699 -34.833 15.5 -44.5s23.833 -14.5 40.5 -14.5zM180.001 624.998l150 156l88 -105
l-179 -120z" />
    <glyph glyph-name="acircumflex" unicode="&#xe2;" horiz-adv-x="554" 
d="M184 -13c-46.667 0 -84.834 12.332 -114.501 36.999s-44.5 59.667 -44.5 105c0 36 9.5 65.667 28.5 89s44 41.666 75 54.999s64.667 22.833 101 28.5s71.5 8.83398 105.5 9.50098v11c0 28.667 -5.5 50.834 -16.5 66.501s-26.833 23.5 -47.5 23.5
c-17.333 0 -32 -5.5 -44 -16.5s-19.667 -26.833 -23 -47.5h-160c8.66699 53.333 33.334 94.833 74.001 124.5s93.667 44.5 159 44.5c76 0 132.167 -18.833 168.5 -56.5s54.5 -94.167 54.5 -169.5v-291h-152l-4 66c-17.333 -24.667 -40.5 -44 -69.5 -58
s-59.167 -21 -90.5 -21zM251 91.999c23.333 0 43.167 9.16602 59.5 27.499s24.5 44.833 24.5 79.5v39c-50 -1.33301 -85.833 -10.166 -107.5 -26.499s-32.5 -36.5 -32.5 -60.5c0 -20 5.16699 -34.833 15.5 -44.5s23.833 -14.5 40.5 -14.5zM321.001 769.998l137 -146l-57 -67
l-121 100l-121 -100l-57 67l137 146h82z" />
    <glyph glyph-name="atilde" unicode="&#xe3;" horiz-adv-x="554" 
d="M184 -13c-46.667 0 -84.834 12.332 -114.501 36.999s-44.5 59.667 -44.5 105c0 36 9.5 65.667 28.5 89s44 41.666 75 54.999s64.667 22.833 101 28.5s71.5 8.83398 105.5 9.50098v11c0 28.667 -5.5 50.834 -16.5 66.501s-26.833 23.5 -47.5 23.5
c-17.333 0 -32 -5.5 -44 -16.5s-19.667 -26.833 -23 -47.5h-160c8.66699 53.333 33.334 94.833 74.001 124.5s93.667 44.5 159 44.5c76 0 132.167 -18.833 168.5 -56.5s54.5 -94.167 54.5 -169.5v-291h-152l-4 66c-17.333 -24.667 -40.5 -44 -69.5 -58
s-59.167 -21 -90.5 -21zM251 91.999c23.333 0 43.167 9.16602 59.5 27.499s24.5 44.833 24.5 79.5v39c-50 -1.33301 -85.833 -10.166 -107.5 -26.499s-32.5 -36.5 -32.5 -60.5c0 -20 5.16699 -34.833 15.5 -44.5s23.833 -14.5 40.5 -14.5zM260.001 610.998
c-11.333 8.66699 -20 14.667 -26 18s-11.667 5 -17 5c-14.667 0 -25.334 -19 -32.001 -57h-93c2.66699 44.667 14.334 82.5 35.001 113.5s48.334 46.5 83.001 46.5c18 0 34.167 -4 48.5 -12s28.166 -17.333 41.499 -28c11.333 -8.66699 20 -14.667 26 -18s11.667 -5 17 -5
c14.667 0 25.334 19 32.001 57h93c-2.66699 -44.667 -14.334 -82.5 -35.001 -113.5s-48.334 -46.5 -83.001 -46.5c-18 0 -34.167 4 -48.5 12s-28.166 17.333 -41.499 28z" />
    <glyph glyph-name="adieresis" unicode="&#xe4;" horiz-adv-x="554" 
d="M184 -13c-46.667 0 -84.834 12.332 -114.501 36.999s-44.5 59.667 -44.5 105c0 36 9.5 65.667 28.5 89s44 41.666 75 54.999s64.667 22.833 101 28.5s71.5 8.83398 105.5 9.50098v11c0 28.667 -5.5 50.834 -16.5 66.501s-26.833 23.5 -47.5 23.5
c-17.333 0 -32 -5.5 -44 -16.5s-19.667 -26.833 -23 -47.5h-160c8.66699 53.333 33.334 94.833 74.001 124.5s93.667 44.5 159 44.5c76 0 132.167 -18.833 168.5 -56.5s54.5 -94.167 54.5 -169.5v-291h-152l-4 66c-17.333 -24.667 -40.5 -44 -69.5 -58
s-59.167 -21 -90.5 -21zM251 91.999c23.333 0 43.167 9.16602 59.5 27.499s24.5 44.833 24.5 79.5v39c-50 -1.33301 -85.833 -10.166 -107.5 -26.499s-32.5 -36.5 -32.5 -60.5c0 -20 5.16699 -34.833 15.5 -44.5s23.833 -14.5 40.5 -14.5zM380.001 560.998
c-22 0 -40.833 7.66699 -56.5 23s-23.5 34.333 -23.5 57c0 21.333 7.83301 39.666 23.5 54.999s34.5 23 56.5 23c21.333 0 40 -7.66699 56 -23s24 -33.666 24 -54.999c0 -22.667 -8 -41.667 -24 -57s-34.667 -23 -56 -23zM180.001 560.998c-22 0 -40.833 7.66699 -56.5 23
s-23.5 34.333 -23.5 57c0 21.333 7.83301 39.666 23.5 54.999s34.5 23 56.5 23c21.333 0 40 -7.66699 56 -23s24 -33.666 24 -54.999c0 -22.667 -8 -41.667 -24 -57s-34.667 -23 -56 -23z" />
    <glyph glyph-name="aring" unicode="&#xe5;" horiz-adv-x="554" 
d="M184 -13c-46.667 0 -84.834 12.332 -114.501 36.999s-44.5 59.667 -44.5 105c0 36 9.5 65.667 28.5 89s44 41.666 75 54.999s64.667 22.833 101 28.5s71.5 8.83398 105.5 9.50098v11c0 28.667 -5.5 50.834 -16.5 66.501s-26.833 23.5 -47.5 23.5
c-17.333 0 -32 -5.5 -44 -16.5s-19.667 -26.833 -23 -47.5h-160c8.66699 53.333 33.334 94.833 74.001 124.5s93.667 44.5 159 44.5c76 0 132.167 -18.833 168.5 -56.5s54.5 -94.167 54.5 -169.5v-291h-152l-4 66c-17.333 -24.667 -40.5 -44 -69.5 -58
s-59.167 -21 -90.5 -21zM251 91.999c23.333 0 43.167 9.16602 59.5 27.499s24.5 44.833 24.5 79.5v39c-50 -1.33301 -85.833 -10.166 -107.5 -26.499s-32.5 -36.5 -32.5 -60.5c0 -20 5.16699 -34.833 15.5 -44.5s23.833 -14.5 40.5 -14.5zM280.001 550.998
c-36 0 -65.5 11.167 -88.5 33.5s-34.5 51.166 -34.5 86.499c0 36.667 11.5 65.834 34.5 87.501s52.5 32.5 88.5 32.5c37.333 0 67.5 -10.833 90.5 -32.5s34.5 -50.834 34.5 -87.501c0 -35.333 -11.667 -64.166 -35 -86.499s-53.333 -33.5 -90 -33.5zM280.001 616.998
c14.667 0 26.834 5 36.501 15s14.5 23 14.5 39c0 15.333 -4.83301 28.166 -14.5 38.499s-21.834 15.5 -36.501 15.5s-26.834 -5.16699 -36.501 -15.5s-14.5 -23.166 -14.5 -38.499c0 -16 4.83301 -29 14.5 -39s21.834 -15 36.501 -15z" />
    <glyph glyph-name="ae" unicode="&#xe6;" horiz-adv-x="840" 
d="M808 157c-13.333 -56.667 -41.332 -99.167 -83.999 -127.5s-92.334 -42.5 -149.001 -42.5c-42 0 -78.833 8.16699 -110.5 24.5s-56.5 40.166 -74.5 71.499c-16.667 -29.333 -42.834 -52.666 -78.501 -69.999s-74.5 -26 -116.5 -26c-50 0 -90.833 12.333 -122.5 37
s-47.5 59.667 -47.5 105c0 36 9.66699 65.667 29 89s44.5 41.666 75.5 54.999s64.5 22.833 100.5 28.5s71 9.16699 105 10.5v10c0 28.667 -5.5 50.834 -16.5 66.501s-26.833 23.5 -47.5 23.5c-17.333 0 -32 -5.5 -44 -16.5s-19.667 -26.833 -23 -47.5h-160
c8.66699 53.333 33.167 94.833 73.5 124.5s92.833 44.5 157.5 44.5c30.667 0 57.834 -5.33301 81.501 -16s44.167 -27 61.5 -49c18.667 20.667 40.834 36.667 66.501 48s54.5 17 86.5 17c50 0 93.167 -11.167 129.5 -33.5s64.333 -53.5 84 -93.5s29.5 -86.667 29.5 -140v-33
h-331c3.33301 -45.333 13.166 -77.5 29.499 -96.5s35.833 -28.5 58.5 -28.5c21.333 0 38 5.66699 50 17s20.333 27.333 25 48h162zM566.001 412c-22.667 0 -41.5 -9.83203 -56.5 -29.499s-23.833 -47.834 -26.5 -84.501h163c-2.66699 36 -10.667 64 -24 84s-32 30 -56 30z
M251.001 92.001c23.333 0 43.167 8.99902 59.5 26.999s24.5 43.667 24.5 77v42c-50 -1.33301 -85.833 -10.166 -107.5 -26.499s-32.5 -36.5 -32.5 -60.5c0 -20 5.16699 -34.833 15.5 -44.5s23.833 -14.5 40.5 -14.5z" />
    <glyph glyph-name="ccedilla" unicode="&#xe7;" horiz-adv-x="543" 
d="M284 -13c-48 0 -91.335 10.001 -130.002 30.001s-69.334 49.833 -92.001 89.5s-34 88.167 -34 145.5c0 55.333 11.333 102.833 34 142.5s53.334 70 92.001 91s82 31.5 130 31.5c38.667 0 74.834 -7.16699 108.501 -21.5s61.667 -35.833 84 -64.5
s36.166 -64.667 41.499 -108h-168c-5.33301 30 -13.666 51.5 -24.999 64.5s-25 19.5 -41 19.5c-21.333 0 -40 -11.667 -56 -35s-24 -63.333 -24 -120c0 -56 8 -95.833 24 -119.5s34.667 -35.5 56 -35.5c17.333 0 31.833 6.66699 43.5 20s20.167 37 25.5 71h167
c-7.33301 -46.667 -22.666 -84.834 -45.999 -114.501s-51.5 -51.5 -84.5 -65.5s-68.167 -21 -105.5 -21zM235.998 0.000976562l70 0.000976562l-9 -59c6.66699 2 14.334 3 23.001 3c30 0 54.5 -9 73.5 -27s28.5 -41.667 28.5 -71c0 -36.667 -12.333 -65.5 -37 -86.5
s-60 -31.5 -106 -31.5c-26.667 0 -53 3.66699 -79 11l7 74c23.333 -6 44.666 -9 63.999 -9c36 0 54 13.333 54 40c0 11.333 -3.5 20.666 -10.5 27.999s-16.167 11 -27.5 11c-13.333 0 -26 -3.66699 -38 -11h-28z" />
    <glyph glyph-name="egrave" unicode="&#xe8;" horiz-adv-x="553" 
d="M283 -13c-47.333 0 -90.332 9.66602 -128.999 28.999s-69.334 48.5 -92.001 87.5s-34 88.5 -34 148.5c0 54 10.5 100.833 31.5 140.5s50.333 70.334 88 92.001s81.5 32.5 131.5 32.5c52.667 0 97.5 -11.167 134.5 -33.5s65.167 -53.5 84.5 -93.5s29 -86.667 29 -140v-33
h-331c4 -45.333 13.833 -77.5 29.5 -96.5s35.167 -28.5 58.5 -28.5c21.333 0 38 5.66699 50 17s20.333 27.333 25 48h162c-13.333 -56.667 -41.5 -99.167 -84.5 -127.5s-94.167 -42.5 -153.5 -42.5zM279.001 411.999c-22.667 0 -41.5 -9.83203 -56.5 -29.499
s-23.833 -47.834 -26.5 -84.501h163c-2.66699 36 -10.667 64 -24 84s-32 30 -56 30zM229.001 781l150 -156l-59 -69l-179 120z" />
    <glyph glyph-name="eacute" unicode="&#xe9;" horiz-adv-x="553" 
d="M283 -13c-47.333 0 -90.332 9.66602 -128.999 28.999s-69.334 48.5 -92.001 87.5s-34 88.5 -34 148.5c0 54 10.5 100.833 31.5 140.5s50.333 70.334 88 92.001s81.5 32.5 131.5 32.5c52.667 0 97.5 -11.167 134.5 -33.5s65.167 -53.5 84.5 -93.5s29 -86.667 29 -140v-33
h-331c4 -45.333 13.833 -77.5 29.5 -96.5s35.167 -28.5 58.5 -28.5c21.333 0 38 5.66699 50 17s20.333 27.333 25 48h162c-13.333 -56.667 -41.5 -99.167 -84.5 -127.5s-94.167 -42.5 -153.5 -42.5zM279.001 411.999c-22.667 0 -41.5 -9.83203 -56.5 -29.499
s-23.833 -47.834 -26.5 -84.501h163c-2.66699 36 -10.667 64 -24 84s-32 30 -56 30zM179.001 625l150 156l88 -105l-179 -120z" />
    <glyph glyph-name="ecircumflex" unicode="&#xea;" horiz-adv-x="553" 
d="M283 -13c-47.333 0 -90.332 9.66602 -128.999 28.999s-69.334 48.5 -92.001 87.5s-34 88.5 -34 148.5c0 54 10.5 100.833 31.5 140.5s50.333 70.334 88 92.001s81.5 32.5 131.5 32.5c52.667 0 97.5 -11.167 134.5 -33.5s65.167 -53.5 84.5 -93.5s29 -86.667 29 -140v-33
h-331c4 -45.333 13.833 -77.5 29.5 -96.5s35.167 -28.5 58.5 -28.5c21.333 0 38 5.66699 50 17s20.333 27.333 25 48h162c-13.333 -56.667 -41.5 -99.167 -84.5 -127.5s-94.167 -42.5 -153.5 -42.5zM279.001 411.999c-22.667 0 -41.5 -9.83203 -56.5 -29.499
s-23.833 -47.834 -26.5 -84.501h163c-2.66699 36 -10.667 64 -24 84s-32 30 -56 30zM320.001 770l137 -146l-57 -67l-121 100l-121 -100l-57 67l137 146h82z" />
    <glyph glyph-name="edieresis" unicode="&#xeb;" horiz-adv-x="553" 
d="M283 -13c-47.333 0 -90.332 9.66602 -128.999 28.999s-69.334 48.5 -92.001 87.5s-34 88.5 -34 148.5c0 54 10.5 100.833 31.5 140.5s50.333 70.334 88 92.001s81.5 32.5 131.5 32.5c52.667 0 97.5 -11.167 134.5 -33.5s65.167 -53.5 84.5 -93.5s29 -86.667 29 -140v-33
h-331c4 -45.333 13.833 -77.5 29.5 -96.5s35.167 -28.5 58.5 -28.5c21.333 0 38 5.66699 50 17s20.333 27.333 25 48h162c-13.333 -56.667 -41.5 -99.167 -84.5 -127.5s-94.167 -42.5 -153.5 -42.5zM279.001 411.999c-22.667 0 -41.5 -9.83203 -56.5 -29.499
s-23.833 -47.834 -26.5 -84.501h163c-2.66699 36 -10.667 64 -24 84s-32 30 -56 30zM379.001 561c-22 0 -40.833 7.66699 -56.5 23s-23.5 34.333 -23.5 57c0 21.333 7.83301 39.666 23.5 54.999s34.5 23 56.5 23c21.333 0 40 -7.66699 56 -23s24 -33.666 24 -54.999
c0 -22.667 -8 -41.667 -24 -57s-34.667 -23 -56 -23zM179.001 561c-22 0 -40.833 7.66699 -56.5 23s-23.5 34.333 -23.5 57c0 21.333 7.83301 39.666 23.5 54.999s34.5 23 56.5 23c21.333 0 40 -7.66699 56 -23s24 -33.666 24 -54.999c0 -22.667 -8 -41.667 -24 -57
s-34.667 -23 -56 -23z" />
    <glyph glyph-name="igrave" unicode="&#xec;" horiz-adv-x="290" 
d="M60 0v504h170v-504h-170zM119 781l114 -166l-72 -59l-146 133z" />
    <glyph glyph-name="iacute" unicode="&#xed;" horiz-adv-x="290" 
d="M60 0v504h170v-504h-170zM57 615l114 166l104 -92l-146 -133z" />
    <glyph glyph-name="icircumflex" unicode="&#xee;" horiz-adv-x="290" 
d="M60 0v504h170v-504h-170zM186 755l122 -151l-62 -62l-101 98l-101 -98l-62 62l122 151h82z" />
    <glyph glyph-name="idieresis" unicode="&#xef;" horiz-adv-x="290" 
d="M60 0v504h170v-504h-170zM56 561c-22 0 -40.833 7.66699 -56.5 23s-23.5 34.333 -23.5 57c0 21.333 7.83301 39.666 23.5 54.999s34.5 23 56.5 23c21.333 0 40 -7.66699 56 -23s24 -33.666 24 -54.999c0 -22.667 -8 -41.667 -24 -57s-34.667 -23 -56 -23zM234 561
c-22 0 -40.833 7.66699 -56.5 23s-23.5 34.333 -23.5 57c0 21.333 7.83301 39.666 23.5 54.999s34.5 23 56.5 23c21.333 0 40 -7.66699 56 -23s24 -33.666 24 -54.999c0 -22.667 -8 -41.667 -24 -57s-34.667 -23 -56 -23z" />
    <glyph glyph-name="eth" unicode="&#xf0;" horiz-adv-x="570" 
d="M285 -13c-52.667 0 -98.1689 11 -136.502 33s-68 52.5 -89 91.5s-31.5 83.833 -31.5 134.5c0 46.667 9 88.5 27 125.5s42.333 66.167 73 87.5s65 32 103 32c26.667 0 51.834 -6 75.501 -18s42.834 -29.667 57.501 -53c-2.66699 26.667 -11.167 52 -25.5 76
s-34.166 45 -59.499 63l-69 -55l-49 62l38 30c-21.333 6.66699 -44 11 -68 13l27 118c60 -4 113.333 -15.667 160 -35l86 68l48 -63l-60 -47c51.333 -38 89.166 -87.667 113.499 -149s36.5 -130.333 36.5 -207c0 -62.667 -10.667 -117 -32 -163s-51.333 -81.5 -90 -106.5
s-83.667 -37.5 -135 -37.5zM284.998 97c26.667 0 46.834 12.333 60.501 37s20.5 58.334 20.5 101.001s-6.83301 76.334 -20.5 101.001s-33.834 37 -60.501 37s-46.834 -12.333 -60.501 -37s-20.5 -58.334 -20.5 -101.001s6.83301 -76.334 20.5 -101.001
s33.834 -37 60.501 -37z" />
    <glyph glyph-name="ntilde" unicode="&#xf1;" horiz-adv-x="601" 
d="M60 0v504h152l5 -77c12.667 27.333 32.5 49.166 59.5 65.499s59.167 24.5 96.5 24.5c54 0 96.5 -16.5 127.5 -49.5s46.5 -77.5 46.5 -133.5v-334h-170v308c0 26.667 -5.66699 47.834 -17 63.501s-28.333 23.5 -51 23.5c-20.667 0 -39 -8.83301 -55 -26.5
s-24 -45.5 -24 -83.5v-285h-170zM283 611c-11.333 8.66699 -20 14.667 -26 18s-11.667 5 -17 5c-14.667 0 -25.334 -19 -32.001 -57h-93c2.66699 44.667 14.334 82.5 35.001 113.5s48.334 46.5 83.001 46.5c18 0 34.167 -4 48.5 -12s28.166 -17.333 41.499 -28
c11.333 -8.66699 20 -14.667 26 -18s11.667 -5 17 -5c14.667 0 25.334 19 32.001 57h93c-2.66699 -44.667 -14.334 -82.5 -35.001 -113.5s-48.334 -46.5 -83.001 -46.5c-18 0 -34.167 4 -48.5 12s-28.166 17.333 -41.499 28z" />
    <glyph glyph-name="ograve" unicode="&#xf2;" horiz-adv-x="578" 
d="M289 -13c-54 0 -100.5 11.667 -139.5 35s-69 54.833 -90 94.5s-31.5 84.834 -31.5 135.501s10.5 95.834 31.5 135.501s51 71.167 90 94.5s85.5 35 139.5 35s100.5 -11.667 139.5 -35s69 -54.833 90 -94.5s31.5 -84.834 31.5 -135.501s-10.5 -95.834 -31.5 -135.501
s-51 -71.167 -90 -94.5s-85.5 -35 -139.5 -35zM289 97c26.667 0 47.5 13.833 62.5 41.5s22.5 65.5 22.5 113.5s-7.5 85.833 -22.5 113.5s-35.833 41.5 -62.5 41.5s-47.5 -13.833 -62.5 -41.5s-22.5 -65.5 -22.5 -113.5s7.5 -85.833 22.5 -113.5s35.833 -41.5 62.5 -41.5z
M239 781l150 -156l-59 -69l-179 120z" />
    <glyph glyph-name="oacute" unicode="&#xf3;" horiz-adv-x="578" 
d="M289 -13c-54 0 -100.5 11.667 -139.5 35s-69 54.833 -90 94.5s-31.5 84.834 -31.5 135.501s10.5 95.834 31.5 135.501s51 71.167 90 94.5s85.5 35 139.5 35s100.5 -11.667 139.5 -35s69 -54.833 90 -94.5s31.5 -84.834 31.5 -135.501s-10.5 -95.834 -31.5 -135.501
s-51 -71.167 -90 -94.5s-85.5 -35 -139.5 -35zM289 97c26.667 0 47.5 13.833 62.5 41.5s22.5 65.5 22.5 113.5s-7.5 85.833 -22.5 113.5s-35.833 41.5 -62.5 41.5s-47.5 -13.833 -62.5 -41.5s-22.5 -65.5 -22.5 -113.5s7.5 -85.833 22.5 -113.5s35.833 -41.5 62.5 -41.5z
M189 625l150 156l88 -105l-179 -120z" />
    <glyph glyph-name="ocircumflex" unicode="&#xf4;" horiz-adv-x="578" 
d="M289 -13c-54 0 -100.5 11.667 -139.5 35s-69 54.833 -90 94.5s-31.5 84.834 -31.5 135.501s10.5 95.834 31.5 135.501s51 71.167 90 94.5s85.5 35 139.5 35s100.5 -11.667 139.5 -35s69 -54.833 90 -94.5s31.5 -84.834 31.5 -135.501s-10.5 -95.834 -31.5 -135.501
s-51 -71.167 -90 -94.5s-85.5 -35 -139.5 -35zM289 97c26.667 0 47.5 13.833 62.5 41.5s22.5 65.5 22.5 113.5s-7.5 85.833 -22.5 113.5s-35.833 41.5 -62.5 41.5s-47.5 -13.833 -62.5 -41.5s-22.5 -65.5 -22.5 -113.5s7.5 -85.833 22.5 -113.5s35.833 -41.5 62.5 -41.5z
M330 770l137 -146l-57 -67l-121 100l-121 -100l-57 67l137 146h82z" />
    <glyph glyph-name="otilde" unicode="&#xf5;" horiz-adv-x="578" 
d="M289 -13c-54 0 -100.5 11.667 -139.5 35s-69 54.833 -90 94.5s-31.5 84.834 -31.5 135.501s10.5 95.834 31.5 135.501s51 71.167 90 94.5s85.5 35 139.5 35s100.5 -11.667 139.5 -35s69 -54.833 90 -94.5s31.5 -84.834 31.5 -135.501s-10.5 -95.834 -31.5 -135.501
s-51 -71.167 -90 -94.5s-85.5 -35 -139.5 -35zM289 97c26.667 0 47.5 13.833 62.5 41.5s22.5 65.5 22.5 113.5s-7.5 85.833 -22.5 113.5s-35.833 41.5 -62.5 41.5s-47.5 -13.833 -62.5 -41.5s-22.5 -65.5 -22.5 -113.5s7.5 -85.833 22.5 -113.5s35.833 -41.5 62.5 -41.5z
M269 611c-11.333 8.66699 -20 14.667 -26 18s-11.667 5 -17 5c-14.667 0 -25.334 -19 -32.001 -57h-93c2.66699 44.667 14.334 82.5 35.001 113.5s48.334 46.5 83.001 46.5c18 0 34.167 -4 48.5 -12s28.166 -17.333 41.499 -28c11.333 -8.66699 20 -14.667 26 -18
s11.667 -5 17 -5c14.667 0 25.334 19 32.001 57h93c-2.66699 -44.667 -14.334 -82.5 -35.001 -113.5s-48.334 -46.5 -83.001 -46.5c-18 0 -34.167 4 -48.5 12s-28.166 17.333 -41.499 28z" />
    <glyph glyph-name="odieresis" unicode="&#xf6;" horiz-adv-x="578" 
d="M289 -13c-54 0 -100.5 11.667 -139.5 35s-69 54.833 -90 94.5s-31.5 84.834 -31.5 135.501s10.5 95.834 31.5 135.501s51 71.167 90 94.5s85.5 35 139.5 35s100.5 -11.667 139.5 -35s69 -54.833 90 -94.5s31.5 -84.834 31.5 -135.501s-10.5 -95.834 -31.5 -135.501
s-51 -71.167 -90 -94.5s-85.5 -35 -139.5 -35zM289 97c26.667 0 47.5 13.833 62.5 41.5s22.5 65.5 22.5 113.5s-7.5 85.833 -22.5 113.5s-35.833 41.5 -62.5 41.5s-47.5 -13.833 -62.5 -41.5s-22.5 -65.5 -22.5 -113.5s7.5 -85.833 22.5 -113.5s35.833 -41.5 62.5 -41.5z
M389 561c-22 0 -40.833 7.66699 -56.5 23s-23.5 34.333 -23.5 57c0 21.333 7.83301 39.666 23.5 54.999s34.5 23 56.5 23c21.333 0 40 -7.66699 56 -23s24 -33.666 24 -54.999c0 -22.667 -8 -41.667 -24 -57s-34.667 -23 -56 -23zM189 561c-22 0 -40.833 7.66699 -56.5 23
s-23.5 34.333 -23.5 57c0 21.333 7.83301 39.666 23.5 54.999s34.5 23 56.5 23c21.333 0 40 -7.66699 56 -23s24 -33.666 24 -54.999c0 -22.667 -8 -41.667 -24 -57s-34.667 -23 -56 -23z" />
    <glyph glyph-name="divide" unicode="&#xf7;" horiz-adv-x="590" 
d="M294 453c-21.333 0 -39.166 7.33301 -53.499 22s-21.5 32.334 -21.5 53.001c0 22 7.16699 40 21.5 54s32.166 21 53.499 21s39.333 -7 54 -21s22 -32 22 -54c0 -20.667 -7.33301 -38.334 -22 -53.001s-32.667 -22 -54 -22zM76 272v116h437v-116h-437zM294 57
c-21.333 0 -39.166 7.33301 -53.499 22s-21.5 32.334 -21.5 53.001c0 22 7.16699 40 21.5 54s32.166 21 53.499 21s39.333 -7 54 -21s22 -32 22 -54c0 -20.667 -7.33301 -38.334 -22 -53.001s-32.667 -22 -54 -22z" />
    <glyph glyph-name="oslash" unicode="&#xf8;" horiz-adv-x="578" 
d="M54 -1l44 64c-46.667 48.667 -70 111.667 -70 189c0 50.667 10.5 95.834 31.5 135.501s51 71.167 90 94.5s85.5 35 139.5 35c37.333 0 71.666 -6 102.999 -18l44 65l88 -59l-43 -64c46 -49.333 69 -112.333 69 -189c0 -50.667 -10.5 -95.834 -31.5 -135.501
s-51 -71.167 -90 -94.5s-85.5 -35 -139.5 -35c-37.333 0 -71.666 6 -102.999 18l-44 -65zM204 252c0 -16 1 -31 3 -45l124 185c-12 10 -26 15 -42 15c-26.667 0 -47.5 -13.833 -62.5 -41.5s-22.5 -65.5 -22.5 -113.5zM289 97c26.667 0 47.5 13.833 62.5 41.5
s22.5 65.5 22.5 113.5c0 16.667 -1 32 -3 46l-125 -185c12.667 -10.667 27 -16 43 -16z" />
    <glyph glyph-name="ugrave" unicode="&#xf9;" horiz-adv-x="594" 
d="M531 504v-503.999h-152l-6 82c-12 -28 -31.167 -50.833 -57.5 -68.5s-58.5 -26.5 -96.5 -26.5c-49.333 0 -88.833 16.5 -118.5 49.5s-44.5 77.5 -44.5 133.5v334h170v-308c0 -26.667 5.16699 -47.834 15.5 -63.501s25.833 -23.5 46.5 -23.5
c19.333 0 36.333 8.83301 51 26.5s22 45.5 22 83.5v285h170zM243 781.001l150 -156l-59 -69l-179 120z" />
    <glyph glyph-name="uacute" unicode="&#xfa;" horiz-adv-x="594" 
d="M531 504v-503.999h-152l-6 82c-12 -28 -31.167 -50.833 -57.5 -68.5s-58.5 -26.5 -96.5 -26.5c-49.333 0 -88.833 16.5 -118.5 49.5s-44.5 77.5 -44.5 133.5v334h170v-308c0 -26.667 5.16699 -47.834 15.5 -63.501s25.833 -23.5 46.5 -23.5
c19.333 0 36.333 8.83301 51 26.5s22 45.5 22 83.5v285h170zM193 625.001l150 156l88 -105l-179 -120z" />
    <glyph glyph-name="ucircumflex" unicode="&#xfb;" horiz-adv-x="594" 
d="M531 504v-503.999h-152l-6 82c-12 -28 -31.167 -50.833 -57.5 -68.5s-58.5 -26.5 -96.5 -26.5c-49.333 0 -88.833 16.5 -118.5 49.5s-44.5 77.5 -44.5 133.5v334h170v-308c0 -26.667 5.16699 -47.834 15.5 -63.501s25.833 -23.5 46.5 -23.5
c19.333 0 36.333 8.83301 51 26.5s22 45.5 22 83.5v285h170zM334 770.001l137 -146l-57 -67l-121 100l-121 -100l-57 67l137 146h82z" />
    <glyph glyph-name="udieresis" unicode="&#xfc;" horiz-adv-x="594" 
d="M531 504v-503.999h-152l-6 82c-12 -28 -31.167 -50.833 -57.5 -68.5s-58.5 -26.5 -96.5 -26.5c-49.333 0 -88.833 16.5 -118.5 49.5s-44.5 77.5 -44.5 133.5v334h170v-308c0 -26.667 5.16699 -47.834 15.5 -63.501s25.833 -23.5 46.5 -23.5
c19.333 0 36.333 8.83301 51 26.5s22 45.5 22 83.5v285h170zM393 561.001c-22 0 -40.833 7.66699 -56.5 23s-23.5 34.333 -23.5 57c0 21.333 7.83301 39.666 23.5 54.999s34.5 23 56.5 23c21.333 0 40 -7.66699 56 -23s24 -33.666 24 -54.999c0 -22.667 -8 -41.667 -24 -57
s-34.667 -23 -56 -23zM193 561.001c-22 0 -40.833 7.66699 -56.5 23s-23.5 34.333 -23.5 57c0 21.333 7.83301 39.666 23.5 54.999s34.5 23 56.5 23c21.333 0 40 -7.66699 56 -23s24 -33.666 24 -54.999c0 -22.667 -8 -41.667 -24 -57s-34.667 -23 -56 -23z" />
    <glyph glyph-name="yacute" unicode="&#xfd;" horiz-adv-x="536" 
d="M4 -198l35 103.999c20.667 -8.66699 41 -13 61 -13c15.333 0 29.166 4.66699 41.499 14s24.833 28.333 37.5 57l19 44l-195 496h176l96 -318l93 318h165l-214 -547c-24 -61.333 -52 -106.666 -84 -135.999s-70.667 -44 -116 -44c-23.333 0 -44.666 2.16699 -63.999 6.5
s-36.333 10.5 -51 18.5zM173 624.999l150 156l88 -105l-179 -120z" />
    <glyph glyph-name="thorn" unicode="&#xfe;" horiz-adv-x="599" 
d="M364 -13c-26.667 0 -52.001 6.16699 -76.001 18.5s-43.333 30.5 -58 54.5v-270h-170v910h170v-256c32.667 48.667 79.334 73 140.001 73c41.333 0 77 -11.5 107 -34.5s53.167 -54.5 69.5 -94.5s24.5 -85.333 24.5 -136c0 -52 -8.66699 -98 -26 -138
s-41.5 -71.167 -72.5 -93.5s-67.167 -33.5 -108.5 -33.5zM311.999 105c27.333 0 48 13.8311 62 41.498s21 62.834 21 105.501s-7 78 -21 106s-34.667 42 -62 42c-25.333 0 -45.666 -12.167 -60.999 -36.5s-23 -58.5 -23 -102.5v-18c0 -43.333 7.66699 -77.166 23 -101.499
s35.666 -36.5 60.999 -36.5z" />
    <glyph glyph-name="ydieresis" unicode="&#xff;" horiz-adv-x="536" 
d="M4 -198l35 103.999c20.667 -8.66699 41 -13 61 -13c15.333 0 29.166 4.66699 41.499 14s24.833 28.333 37.5 57l19 44l-195 496h176l96 -318l93 318h165l-214 -547c-24 -61.333 -52 -106.666 -84 -135.999s-70.667 -44 -116 -44c-23.333 0 -44.666 2.16699 -63.999 6.5
s-36.333 10.5 -51 18.5zM373 560.999c-22 0 -40.833 7.66699 -56.5 23s-23.5 34.333 -23.5 57c0 21.333 7.83301 39.666 23.5 54.999s34.5 23 56.5 23c21.333 0 40 -7.66699 56 -23s24 -33.666 24 -54.999c0 -22.667 -8 -41.667 -24 -57s-34.667 -23 -56 -23zM173 560.999
c-22 0 -40.833 7.66699 -56.5 23s-23.5 34.333 -23.5 57c0 21.333 7.83301 39.666 23.5 54.999s34.5 23 56.5 23c21.333 0 40 -7.66699 56 -23s24 -33.666 24 -54.999c0 -22.667 -8 -41.667 -24 -57s-34.667 -23 -56 -23z" />
    <glyph glyph-name="Amacron" unicode="&#x100;" horiz-adv-x="666" 
d="M480 0l-39 124h-222l-39 -124h-173l240 670h173l239 -670h-179zM258 251h143l-71 229zM145 752v118h376v-118h-376z" />
    <glyph glyph-name="amacron" unicode="&#x101;" horiz-adv-x="554" 
d="M184 -13c-46.667 0 -84.834 12.332 -114.501 36.999s-44.5 59.667 -44.5 105c0 36 9.5 65.667 28.5 89s44 41.666 75 54.999s64.667 22.833 101 28.5s71.5 8.83398 105.5 9.50098v11c0 28.667 -5.5 50.834 -16.5 66.501s-26.833 23.5 -47.5 23.5
c-17.333 0 -32 -5.5 -44 -16.5s-19.667 -26.833 -23 -47.5h-160c8.66699 53.333 33.334 94.833 74.001 124.5s93.667 44.5 159 44.5c76 0 132.167 -18.833 168.5 -56.5s54.5 -94.167 54.5 -169.5v-291h-152l-4 66c-17.333 -24.667 -40.5 -44 -69.5 -58
s-59.167 -21 -90.5 -21zM251 91.999c23.333 0 43.167 9.16602 59.5 27.499s24.5 44.833 24.5 79.5v39c-50 -1.33301 -85.833 -10.166 -107.5 -26.499s-32.5 -36.5 -32.5 -60.5c0 -20 5.16699 -34.833 15.5 -44.5s23.833 -14.5 40.5 -14.5zM117.001 588.998v106h326v-106
h-326z" />
    <glyph glyph-name="Abreve" unicode="&#x102;" horiz-adv-x="666" 
d="M480 0l-39 124h-222l-39 -124h-173l240 670h173l239 -670h-179zM258 251h143l-71 229zM333 739c-36.667 0 -68.1689 7.16699 -94.502 21.5s-46.833 33.833 -61.5 58.5s-23 51.667 -25 81h105c2.66699 -14.667 10.334 -27.834 23.001 -39.501s30.334 -17.5 53.001 -17.5
c22 0 39.167 5.83301 51.5 17.5s19.833 24.834 22.5 39.501h105c-2 -29.333 -10 -56.333 -24 -81s-34 -44.167 -60 -58.5s-57.667 -21.5 -95 -21.5z" />
    <glyph glyph-name="abreve" unicode="&#x103;" horiz-adv-x="554" 
d="M184 -13c-46.667 0 -84.834 12.332 -114.501 36.999s-44.5 59.667 -44.5 105c0 36 9.5 65.667 28.5 89s44 41.666 75 54.999s64.667 22.833 101 28.5s71.5 8.83398 105.5 9.50098v11c0 28.667 -5.5 50.834 -16.5 66.501s-26.833 23.5 -47.5 23.5
c-17.333 0 -32 -5.5 -44 -16.5s-19.667 -26.833 -23 -47.5h-160c8.66699 53.333 33.334 94.833 74.001 124.5s93.667 44.5 159 44.5c76 0 132.167 -18.833 168.5 -56.5s54.5 -94.167 54.5 -169.5v-291h-152l-4 66c-17.333 -24.667 -40.5 -44 -69.5 -58
s-59.167 -21 -90.5 -21zM251 91.999c23.333 0 43.167 9.16602 59.5 27.499s24.5 44.833 24.5 79.5v39c-50 -1.33301 -85.833 -10.166 -107.5 -26.499s-32.5 -36.5 -32.5 -60.5c0 -20 5.16699 -34.833 15.5 -44.5s23.833 -14.5 40.5 -14.5zM280.001 568.998
c-48.667 0 -87.5 16 -116.5 48s-44.833 72 -47.5 120h99c2 -19.333 8.66699 -35.833 20 -49.5s26.333 -20.5 45 -20.5c19.333 0 34.5 6.83301 45.5 20.5s17.5 30.167 19.5 49.5h99c-2.66699 -48 -18 -88 -46 -120s-67.333 -48 -118 -48z" />
    <glyph glyph-name="Aogonek" unicode="&#x104;" horiz-adv-x="666" 
d="M480 0l-39 124h-222l-39 -124h-173l240 670h173l239 -670h-179zM258 251h143l-71 229zM542 -268c-48.667 0 -86.333 12.3311 -113 36.998s-40 54.334 -40 89.001c0 25.333 6.5 49.5 19.5 72.5s36.833 46.167 71.5 69.5h124
c-32.667 -5.33301 -55.334 -17.833 -68.001 -37.5s-19 -39.167 -19 -58.5c0 -22.667 5.83301 -40 17.5 -52s26.834 -18 45.501 -18c18 0 36.667 4 56 12v-99c-15.333 -5.33301 -30.5 -9.16602 -45.5 -11.499s-31.167 -3.5 -48.5 -3.5z" />
    <glyph glyph-name="aogonek" unicode="&#x105;" horiz-adv-x="554" 
d="M184 -13c-46.667 0 -84.834 12.332 -114.501 36.999s-44.5 59.667 -44.5 105c0 36 9.5 65.667 28.5 89s44 41.666 75 54.999s64.667 22.833 101 28.5s71.5 8.83398 105.5 9.50098v11c0 28.667 -5.5 50.834 -16.5 66.501s-26.833 23.5 -47.5 23.5
c-17.333 0 -32 -5.5 -44 -16.5s-19.667 -26.833 -23 -47.5h-160c8.66699 53.333 33.334 94.833 74.001 124.5s93.667 44.5 159 44.5c76 0 132.167 -18.833 168.5 -56.5s54.5 -94.167 54.5 -169.5v-291h-152l-4 66c-17.333 -24.667 -40.5 -44 -69.5 -58
s-59.167 -21 -90.5 -21zM251 91.999c23.333 0 43.167 9.16602 59.5 27.499s24.5 44.833 24.5 79.5v39c-50 -1.33301 -85.833 -10.166 -107.5 -26.499s-32.5 -36.5 -32.5 -60.5c0 -20 5.16699 -34.833 15.5 -44.5s23.833 -14.5 40.5 -14.5zM409.001 -262.002
c-47.333 0 -84.168 12.001 -110.501 36.001s-39.5 52.333 -39.5 85c0 25.333 6.5 49.5 19.5 72.5s36.167 45.833 69.5 68.5h123c-34 -5.33301 -57.5 -17.333 -70.5 -36s-19.5 -39.334 -19.5 -62.001c0 -21.333 6.5 -38 19.5 -50s27.833 -18 44.5 -18
c20.667 0 39 3.33301 55 10v-92c-27.333 -9.33301 -57.666 -14 -90.999 -14z" />
    <glyph glyph-name="Cacute" unicode="&#x106;" horiz-adv-x="692" 
d="M360 -16c-70 0 -129.163 14.8291 -177.496 44.4961s-84.833 70.834 -109.5 123.501s-37 113.667 -37 183c0 68.667 12.333 129.334 37 182.001s61.167 94 109.5 124s107.5 45 177.5 45c85.333 0 154.166 -23.333 206.499 -70s85.5 -109.667 99.5 -189h-187
c-7.33301 40.667 -21.333 72.5 -42 95.5s-46.334 34.5 -77.001 34.5c-44.667 0 -78.834 -19.667 -102.501 -59s-35.5 -93.666 -35.5 -162.999s11.833 -123.666 35.5 -162.999s57.834 -59 102.501 -59c30 0 55.167 10.833 75.5 32.5s34.166 52.167 41.499 91.5h187
c-8 -50.667 -25.167 -95 -51.5 -133s-60.833 -67.5 -103.5 -88.5s-92.334 -31.5 -149.001 -31.5zM228.004 794.996l225 145l69 -131l-252 -97z" />
    <glyph glyph-name="cacute" unicode="&#x107;" horiz-adv-x="543" 
d="M284 -13c-48 0 -91.335 10.001 -130.002 30.001s-69.334 49.833 -92.001 89.5s-34 88.167 -34 145.5c0 55.333 11.333 102.833 34 142.5s53.334 70 92.001 91s82 31.5 130 31.5c38.667 0 74.834 -7.16699 108.501 -21.5s61.667 -35.833 84 -64.5
s36.166 -64.667 41.499 -108h-168c-5.33301 30 -13.666 51.5 -24.999 64.5s-25 19.5 -41 19.5c-21.333 0 -40 -11.667 -56 -35s-24 -63.333 -24 -120c0 -56 8 -95.833 24 -119.5s34.667 -35.5 56 -35.5c17.333 0 31.833 6.66699 43.5 20s20.167 37 25.5 71h167
c-7.33301 -46.667 -22.666 -84.834 -45.999 -114.501s-51.5 -51.5 -84.5 -65.5s-68.167 -21 -105.5 -21zM183.998 625.001l150 156l88 -105l-179 -120z" />
    <glyph glyph-name="Cdotaccent" unicode="&#x10a;" horiz-adv-x="692" 
d="M360 -16c-70 0 -129.163 14.8291 -177.496 44.4961s-84.833 70.834 -109.5 123.501s-37 113.667 -37 183c0 68.667 12.333 129.334 37 182.001s61.167 94 109.5 124s107.5 45 177.5 45c85.333 0 154.166 -23.333 206.499 -70s85.5 -109.667 99.5 -189h-187
c-7.33301 40.667 -21.333 72.5 -42 95.5s-46.334 34.5 -77.001 34.5c-44.667 0 -78.834 -19.667 -102.501 -59s-35.5 -93.666 -35.5 -162.999s11.833 -123.666 35.5 -162.999s57.834 -59 102.501 -59c30 0 55.167 10.833 75.5 32.5s34.166 52.167 41.499 91.5h187
c-8 -50.667 -25.167 -95 -51.5 -133s-60.833 -67.5 -103.5 -88.5s-92.334 -31.5 -149.001 -31.5zM351.004 726.996c-26.667 0 -49.5 9.16699 -68.5 27.5s-28.5 40.166 -28.5 65.499s9.5 47.166 28.5 65.499s41.833 27.5 68.5 27.5s49.5 -9.16699 68.5 -27.5
s28.5 -40.166 28.5 -65.499s-9.5 -47.166 -28.5 -65.499s-41.833 -27.5 -68.5 -27.5z" />
    <glyph glyph-name="cdotaccent" unicode="&#x10b;" horiz-adv-x="543" 
d="M284 -13c-48 0 -91.335 10.001 -130.002 30.001s-69.334 49.833 -92.001 89.5s-34 88.167 -34 145.5c0 55.333 11.333 102.833 34 142.5s53.334 70 92.001 91s82 31.5 130 31.5c38.667 0 74.834 -7.16699 108.501 -21.5s61.667 -35.833 84 -64.5
s36.166 -64.667 41.499 -108h-168c-5.33301 30 -13.666 51.5 -24.999 64.5s-25 19.5 -41 19.5c-21.333 0 -40 -11.667 -56 -35s-24 -63.333 -24 -120c0 -56 8 -95.833 24 -119.5s34.667 -35.5 56 -35.5c17.333 0 31.833 6.66699 43.5 20s20.167 37 25.5 71h167
c-7.33301 -46.667 -22.666 -84.834 -45.999 -114.501s-51.5 -51.5 -84.5 -65.5s-68.167 -21 -105.5 -21zM283.998 561.001c-26.667 0 -49.167 8.83301 -67.5 26.5s-27.5 39.167 -27.5 64.5s9.16699 46.833 27.5 64.5s40.833 26.5 67.5 26.5s49.167 -8.83301 67.5 -26.5
s27.5 -39.167 27.5 -64.5s-9.16699 -46.833 -27.5 -64.5s-40.833 -26.5 -67.5 -26.5z" />
    <glyph glyph-name="Ccaron" unicode="&#x10c;" horiz-adv-x="692" 
d="M360 -16c-70 0 -129.163 14.8291 -177.496 44.4961s-84.833 70.834 -109.5 123.501s-37 113.667 -37 183c0 68.667 12.333 129.334 37 182.001s61.167 94 109.5 124s107.5 45 177.5 45c85.333 0 154.166 -23.333 206.499 -70s85.5 -109.667 99.5 -189h-187
c-7.33301 40.667 -21.333 72.5 -42 95.5s-46.334 34.5 -77.001 34.5c-44.667 0 -78.834 -19.667 -102.501 -59s-35.5 -93.666 -35.5 -162.999s11.833 -123.666 35.5 -162.999s57.834 -59 102.501 -59c30 0 55.167 10.833 75.5 32.5s34.166 52.167 41.499 91.5h187
c-8 -50.667 -25.167 -95 -51.5 -133s-60.833 -67.5 -103.5 -88.5s-92.334 -31.5 -149.001 -31.5zM315.004 724.996l-162 125l53 80l145 -90l145 90l53 -80l-162 -125h-72z" />
    <glyph glyph-name="ccaron" unicode="&#x10d;" horiz-adv-x="543" 
d="M284 -13c-48 0 -91.335 10.001 -130.002 30.001s-69.334 49.833 -92.001 89.5s-34 88.167 -34 145.5c0 55.333 11.333 102.833 34 142.5s53.334 70 92.001 91s82 31.5 130 31.5c38.667 0 74.834 -7.16699 108.501 -21.5s61.667 -35.833 84 -64.5
s36.166 -64.667 41.499 -108h-168c-5.33301 30 -13.666 51.5 -24.999 64.5s-25 19.5 -41 19.5c-21.333 0 -40 -11.667 -56 -35s-24 -63.333 -24 -120c0 -56 8 -95.833 24 -119.5s34.667 -35.5 56 -35.5c17.333 0 31.833 6.66699 43.5 20s20.167 37 25.5 71h167
c-7.33301 -46.667 -22.666 -84.834 -45.999 -114.501s-51.5 -51.5 -84.5 -65.5s-68.167 -21 -105.5 -21zM463.998 707.001l-139 -140h-82l-139 140l59 73l121 -99l121 99z" />
    <glyph glyph-name="Dcaron" unicode="&#x10e;" horiz-adv-x="712" 
d="M74 0v670h235c79.333 0 146.333 -14.5 201 -43.5s96 -68 124 -117s42 -103.833 42 -164.5c0 -68 -14 -127.833 -42 -179.5s-69.333 -92.167 -124 -121.5s-121.667 -44 -201 -44h-235zM309 546l-67 -0.000976562v-421h67c62 0 107.667 18.333 137 55s44 88.334 44 155.001
c0 67.333 -14.667 119.333 -44 156s-75 55 -137 55zM279 724.999l-162 125l53 80l145 -90l145 90l53 -80l-162 -125h-72z" />
    <glyph glyph-name="dcaron" unicode="&#x10f;" horiz-adv-x="704" 
d="M235 517c26.667 0 51.999 -6.16699 75.999 -18.5s43.333 -30.5 58 -54.5v256h170v-700h-152l-6 82c-31.333 -63.333 -82 -95 -152 -95c-40.667 0 -76.167 11.5 -106.5 34.5s-53.666 54.5 -69.999 94.5s-24.5 85.333 -24.5 136c0 52 8.66699 98 26 138
s41.5 71.167 72.5 93.5s67.167 33.5 108.5 33.5zM286.999 399c-27.333 0 -48 -13.8311 -62 -41.498s-21 -62.834 -21 -105.501s7 -78 21 -106s34.667 -42 62 -42c24.667 0 44.834 12.167 60.501 36.5s23.5 58.5 23.5 102.5v18c0 43.333 -7.83301 77.166 -23.5 101.499
s-35.834 36.5 -60.501 36.5zM689.999 516.002h-78.001v184h126v-8c0 -17.333 -2 -37.333 -6 -60s-9.66699 -44.667 -17 -66s-15.666 -38 -24.999 -50z" />
    <glyph glyph-name="Dcroat" unicode="&#x110;" horiz-adv-x="732" 
d="M94 0v281.999h-80v115h80v273h235c79.333 0 146.333 -14.667 201 -44s96 -69.166 124 -119.499s42 -107.5 42 -171.5c0 -64.667 -14 -122.167 -42 -172.5s-69.333 -90 -124 -119s-121.667 -43.5 -201 -43.5h-235zM408 281.999l-146 -0.000976562v-157h67
c62 0 107.667 18.333 137 55s44 88.334 44 155.001c0 67.333 -14.667 119.333 -44 156s-75 55 -137 55h-67v-149h146v-115z" />
    <glyph glyph-name="dcroat" unicode="&#x111;" horiz-adv-x="614" 
d="M229 -13c-40.667 0 -76.168 11.001 -106.501 33.001s-53.666 52.167 -69.999 90.5s-24.5 82.166 -24.5 131.499c0 50.667 8.66699 95 26 133s41.5 67.833 72.5 89.5s67.167 32.5 108.5 32.5c26.667 0 52 -6.16699 76 -18.5s43.333 -30.5 58 -54.5v120h-127v90h127v66h170
v-66h65v-90h-65v-544h-152l-7 78c-16 -30 -36.833 -52.667 -62.5 -68s-55.167 -23 -88.5 -23zM286.999 379.001c-27.333 0 -48 -13.002 -62 -39.002s-21 -58.667 -21 -98s7 -72.166 21 -98.499s34.667 -39.5 62 -39.5c24.667 0 44.834 11.333 60.501 34
s23.5 54.334 23.5 95.001v18c0 40.667 -7.83301 72.167 -23.5 94.5s-35.834 33.5 -60.501 33.5z" />
    <glyph glyph-name="Emacron" unicode="&#x112;" horiz-adv-x="577" 
d="M74 0v670h454v-131h-276v-139h245v-125h-245v-144h280v-131h-458zM113 752v118h376v-118h-376z" />
    <glyph glyph-name="emacron" unicode="&#x113;" horiz-adv-x="553" 
d="M283 -13c-47.333 0 -90.332 9.66602 -128.999 28.999s-69.334 48.5 -92.001 87.5s-34 88.5 -34 148.5c0 54 10.5 100.833 31.5 140.5s50.333 70.334 88 92.001s81.5 32.5 131.5 32.5c52.667 0 97.5 -11.167 134.5 -33.5s65.167 -53.5 84.5 -93.5s29 -86.667 29 -140v-33
h-331c4 -45.333 13.833 -77.5 29.5 -96.5s35.167 -28.5 58.5 -28.5c21.333 0 38 5.66699 50 17s20.333 27.333 25 48h162c-13.333 -56.667 -41.5 -99.167 -84.5 -127.5s-94.167 -42.5 -153.5 -42.5zM279.001 411.999c-22.667 0 -41.5 -9.83203 -56.5 -29.499
s-23.833 -47.834 -26.5 -84.501h163c-2.66699 36 -10.667 64 -24 84s-32 30 -56 30zM116.001 589v106h326v-106h-326z" />
    <glyph glyph-name="Edotaccent" unicode="&#x116;" horiz-adv-x="577" 
d="M74 0v670h454v-131h-276v-139h245v-125h-245v-144h280v-131h-458zM301 727c-26.667 0 -49.5 9.16699 -68.5 27.5s-28.5 40.166 -28.5 65.499s9.5 47.166 28.5 65.499s41.833 27.5 68.5 27.5s49.5 -9.16699 68.5 -27.5s28.5 -40.166 28.5 -65.499
s-9.5 -47.166 -28.5 -65.499s-41.833 -27.5 -68.5 -27.5z" />
    <glyph glyph-name="edotaccent" unicode="&#x117;" horiz-adv-x="553" 
d="M283 -13c-47.333 0 -90.332 9.66602 -128.999 28.999s-69.334 48.5 -92.001 87.5s-34 88.5 -34 148.5c0 54 10.5 100.833 31.5 140.5s50.333 70.334 88 92.001s81.5 32.5 131.5 32.5c52.667 0 97.5 -11.167 134.5 -33.5s65.167 -53.5 84.5 -93.5s29 -86.667 29 -140v-33
h-331c4 -45.333 13.833 -77.5 29.5 -96.5s35.167 -28.5 58.5 -28.5c21.333 0 38 5.66699 50 17s20.333 27.333 25 48h162c-13.333 -56.667 -41.5 -99.167 -84.5 -127.5s-94.167 -42.5 -153.5 -42.5zM279.001 411.999c-22.667 0 -41.5 -9.83203 -56.5 -29.499
s-23.833 -47.834 -26.5 -84.501h163c-2.66699 36 -10.667 64 -24 84s-32 30 -56 30zM279.001 561c-26.667 0 -49.167 8.83301 -67.5 26.5s-27.5 39.167 -27.5 64.5s9.16699 46.833 27.5 64.5s40.833 26.5 67.5 26.5s49.167 -8.83301 67.5 -26.5s27.5 -39.167 27.5 -64.5
s-9.16699 -46.833 -27.5 -64.5s-40.833 -26.5 -67.5 -26.5z" />
    <glyph glyph-name="Eogonek" unicode="&#x118;" horiz-adv-x="577" 
d="M74 0v670h454v-131h-276v-139h245v-125h-245v-144h280v-131h-458zM438 -268c-48.667 0 -86.333 12.3311 -113 36.998s-40 54.334 -40 89.001c0 25.333 6.5 49.5 19.5 72.5s36.833 46.167 71.5 69.5h124c-32.667 -5.33301 -55.334 -17.833 -68.001 -37.5
s-19 -39.167 -19 -58.5c0 -22.667 5.83301 -40 17.5 -52s26.834 -18 45.501 -18c18 0 36.667 4 56 12v-99c-15.333 -5.33301 -30.5 -9.16602 -45.5 -11.499s-31.167 -3.5 -48.5 -3.5z" />
    <glyph glyph-name="eogonek" unicode="&#x119;" horiz-adv-x="553" 
d="M283 -13c-47.333 0 -90.332 9.66602 -128.999 28.999s-69.334 48.5 -92.001 87.5s-34 88.5 -34 148.5c0 54 10.5 100.833 31.5 140.5s50.333 70.334 88 92.001s81.5 32.5 131.5 32.5c52.667 0 97.5 -11.167 134.5 -33.5s65.167 -53.5 84.5 -93.5s29 -86.667 29 -140v-33
h-331c4 -45.333 13.833 -77.5 29.5 -96.5s35.167 -28.5 58.5 -28.5c21.333 0 38 5.66699 50 17s20.333 27.333 25 48h162c-13.333 -56.667 -41.5 -99.167 -84.5 -127.5s-94.167 -42.5 -153.5 -42.5zM279.001 411.999c-22.667 0 -41.5 -9.83203 -56.5 -29.499
s-23.833 -47.834 -26.5 -84.501h163c-2.66699 36 -10.667 64 -24 84s-32 30 -56 30zM370.001 -262c-47.333 0 -84.168 12 -110.501 36s-39.5 52.333 -39.5 85c0 25.333 6.5 49.5 19.5 72.5s36.167 45.833 69.5 68.5l122 29c-34 -24.667 -57.333 -46.167 -70 -64.5
s-19 -39.833 -19 -64.5c0 -20 6.33301 -36 19 -48s27.667 -18 45 -18c20.667 0 39 3.33301 55 10v-92c-27.333 -9.33301 -57.666 -14 -90.999 -14z" />
    <glyph glyph-name="Ecaron" unicode="&#x11a;" horiz-adv-x="577" 
d="M74 0v670h454v-131h-276v-139h245v-125h-245v-144h280v-131h-458zM265 725l-162 125l53 80l145 -90l145 90l53 -80l-162 -125h-72z" />
    <glyph glyph-name="ecaron" unicode="&#x11b;" horiz-adv-x="553" 
d="M283 -13c-47.333 0 -90.332 9.66602 -128.999 28.999s-69.334 48.5 -92.001 87.5s-34 88.5 -34 148.5c0 54 10.5 100.833 31.5 140.5s50.333 70.334 88 92.001s81.5 32.5 131.5 32.5c52.667 0 97.5 -11.167 134.5 -33.5s65.167 -53.5 84.5 -93.5s29 -86.667 29 -140v-33
h-331c4 -45.333 13.833 -77.5 29.5 -96.5s35.167 -28.5 58.5 -28.5c21.333 0 38 5.66699 50 17s20.333 27.333 25 48h162c-13.333 -56.667 -41.5 -99.167 -84.5 -127.5s-94.167 -42.5 -153.5 -42.5zM279.001 411.999c-22.667 0 -41.5 -9.83203 -56.5 -29.499
s-23.833 -47.834 -26.5 -84.501h163c-2.66699 36 -10.667 64 -24 84s-32 30 -56 30zM459.001 707l-139 -140h-82l-139 140l59 73l121 -99l121 99z" />
    <glyph glyph-name="Gbreve" unicode="&#x11e;" horiz-adv-x="718" 
d="M36 335c0 68.667 13.002 129.33 39.002 181.997s64 94 114 124s111.333 45 184 45c79.333 0 144.5 -20.667 195.5 -62s85.167 -99.333 102.5 -174h-187c-18 73.333 -56 110 -114 110c-50 0 -87.667 -20.167 -113 -60.5s-38 -95.166 -38 -164.499
s12.667 -124.166 38 -164.499s63 -60.5 113 -60.5c35.333 0 64.833 9.5 88.5 28.5s39.5 48.5 47.5 88.5h-123v125h298v-42c0 -43.333 -6.33301 -84.5 -19 -123.5s-31.834 -73.667 -57.501 -104s-58.334 -54.333 -98.001 -72s-86.167 -26.5 -139.5 -26.5
c-70 0 -129.667 14.833 -179 44.5s-87 70.834 -113 123.501s-39 113.667 -39 183zM370.002 738.996c-36.667 0 -68.1689 7.16699 -94.502 21.5s-46.833 33.833 -61.5 58.5s-23 51.667 -25 81h105c2.66699 -14.667 10.334 -27.834 23.001 -39.501s30.334 -17.5 53.001 -17.5
c22 0 39.167 5.83301 51.5 17.5s19.833 24.834 22.5 39.501h105c-2 -29.333 -10 -56.333 -24 -81s-34 -44.167 -60 -58.5s-57.667 -21.5 -95 -21.5z" />
    <glyph glyph-name="gbreve" unicode="&#x11f;" horiz-adv-x="599" 
d="M283 -223c-62.667 0 -115.835 14.167 -159.502 42.5s-70.5 70.833 -80.5 127.5h160c4.66699 -21.333 14 -38 28 -50s31.333 -18 52 -18c57.333 0 86 37.333 86 112v76c-15.333 -22 -34.666 -39.167 -57.999 -51.5s-49.666 -18.5 -78.999 -18.5
c-42 0 -78.167 11.333 -108.5 34s-53.833 53.5 -70.5 92.5s-25 83.833 -25 134.5s8.83301 95.5 26.5 134.5s42.667 69.5 75 91.5s70.5 33 114.5 33c26 0 52 -7.33301 78 -22s46 -37 60 -67l5 76h152v-462c0 -176.667 -85.333 -265 -256 -265zM286.999 114
c24.667 0 44.834 11.668 60.501 35.001s23.5 56.666 23.5 99.999v18c0 42 -7.83301 74.667 -23.5 98s-35.834 35 -60.501 35c-27.333 0 -48 -13.333 -62 -40s-21 -60.667 -21 -102c0 -42 7 -76.5 21 -103.5s34.667 -40.5 62 -40.5zM292.999 569.001
c-48.667 0 -87.5 16 -116.5 48s-44.833 72 -47.5 120h99c2 -19.333 8.66699 -35.833 20 -49.5s26.333 -20.5 45 -20.5c19.333 0 34.5 6.83301 45.5 20.5s17.5 30.167 19.5 49.5h99c-2.66699 -48 -18 -88 -46 -120s-67.333 -48 -118 -48z" />
    <glyph glyph-name="Gdotaccent" unicode="&#x120;" horiz-adv-x="718" 
d="M36 335c0 68.667 13.002 129.33 39.002 181.997s64 94 114 124s111.333 45 184 45c79.333 0 144.5 -20.667 195.5 -62s85.167 -99.333 102.5 -174h-187c-18 73.333 -56 110 -114 110c-50 0 -87.667 -20.167 -113 -60.5s-38 -95.166 -38 -164.499
s12.667 -124.166 38 -164.499s63 -60.5 113 -60.5c35.333 0 64.833 9.5 88.5 28.5s39.5 48.5 47.5 88.5h-123v125h298v-42c0 -43.333 -6.33301 -84.5 -19 -123.5s-31.834 -73.667 -57.501 -104s-58.334 -54.333 -98.001 -72s-86.167 -26.5 -139.5 -26.5
c-70 0 -129.667 14.833 -179 44.5s-87 70.834 -113 123.501s-39 113.667 -39 183zM370.002 726.996c-26.667 0 -49.5 9.16699 -68.5 27.5s-28.5 40.166 -28.5 65.499s9.5 47.166 28.5 65.499s41.833 27.5 68.5 27.5s49.5 -9.16699 68.5 -27.5s28.5 -40.166 28.5 -65.499
s-9.5 -47.166 -28.5 -65.499s-41.833 -27.5 -68.5 -27.5z" />
    <glyph glyph-name="gdotaccent" unicode="&#x121;" horiz-adv-x="599" 
d="M283 -223c-62.667 0 -115.835 14.167 -159.502 42.5s-70.5 70.833 -80.5 127.5h160c4.66699 -21.333 14 -38 28 -50s31.333 -18 52 -18c57.333 0 86 37.333 86 112v76c-15.333 -22 -34.666 -39.167 -57.999 -51.5s-49.666 -18.5 -78.999 -18.5
c-42 0 -78.167 11.333 -108.5 34s-53.833 53.5 -70.5 92.5s-25 83.833 -25 134.5s8.83301 95.5 26.5 134.5s42.667 69.5 75 91.5s70.5 33 114.5 33c26 0 52 -7.33301 78 -22s46 -37 60 -67l5 76h152v-462c0 -176.667 -85.333 -265 -256 -265zM286.999 114
c24.667 0 44.834 11.668 60.501 35.001s23.5 56.666 23.5 99.999v18c0 42 -7.83301 74.667 -23.5 98s-35.834 35 -60.501 35c-27.333 0 -48 -13.333 -62 -40s-21 -60.667 -21 -102c0 -42 7 -76.5 21 -103.5s34.667 -40.5 62 -40.5zM292.999 561.001
c-26.667 0 -49.167 8.83301 -67.5 26.5s-27.5 39.167 -27.5 64.5s9.16699 46.833 27.5 64.5s40.833 26.5 67.5 26.5s49.167 -8.83301 67.5 -26.5s27.5 -39.167 27.5 -64.5s-9.16699 -46.833 -27.5 -64.5s-40.833 -26.5 -67.5 -26.5z" />
    <glyph glyph-name="uni0122" unicode="&#x122;" horiz-adv-x="718" 
d="M36 335c0 68.667 13.002 129.33 39.002 181.997s64 94 114 124s111.333 45 184 45c79.333 0 144.5 -20.667 195.5 -62s85.167 -99.333 102.5 -174h-187c-18 73.333 -56 110 -114 110c-50 0 -87.667 -20.167 -113 -60.5s-38 -95.166 -38 -164.499
s12.667 -124.166 38 -164.499s63 -60.5 113 -60.5c35.333 0 64.833 9.5 88.5 28.5s39.5 48.5 47.5 88.5h-123v125h298v-42c0 -43.333 -6.33301 -84.5 -19 -123.5s-31.834 -73.667 -57.501 -104s-58.334 -54.333 -98.001 -72s-86.167 -26.5 -139.5 -26.5
c-70 0 -129.667 14.833 -179 44.5s-87 70.834 -113 123.501s-39 113.667 -39 183zM274.002 -359.004v66.998c24.667 6 44.334 14.5 59.001 25.5s25 25.833 31 44.5c-18.667 0.666992 -36.334 8.33398 -53.001 23.001s-25 34.667 -25 60c0 24 8 43.667 24 59s35.667 23 59 23
c24 0 44.5 -9.16699 61.5 -27.5s25.5 -44.166 25.5 -77.499c0 -50.667 -16.667 -94 -50 -130s-77.333 -58.333 -132 -67z" />
    <glyph glyph-name="uni0123" unicode="&#x123;" horiz-adv-x="599" 
d="M283 -223c-62.667 0 -115.835 14.167 -159.502 42.5s-70.5 70.833 -80.5 127.5h160c4.66699 -21.333 14 -38 28 -50s31.333 -18 52 -18c57.333 0 86 37.333 86 112v76c-15.333 -22 -34.666 -39.167 -57.999 -51.5s-49.666 -18.5 -78.999 -18.5
c-42 0 -78.167 11.333 -108.5 34s-53.833 53.5 -70.5 92.5s-25 83.833 -25 134.5s8.83301 95.5 26.5 134.5s42.667 69.5 75 91.5s70.5 33 114.5 33c26 0 52 -7.33301 78 -22s46 -37 60 -67l5 76h152v-462c0 -176.667 -85.333 -265 -256 -265zM286.999 114
c24.667 0 44.834 11.668 60.501 35.001s23.5 56.666 23.5 99.999v18c0 42 -7.83301 74.667 -23.5 98s-35.834 35 -60.501 35c-27.333 0 -48 -13.333 -62 -40s-21 -60.667 -21 -102c0 -42 7 -76.5 21 -103.5s34.667 -40.5 62 -40.5zM381.999 851.001v-62
c-48.667 -12.667 -77.667 -36 -87 -70c18 -0.666992 34.833 -8.16699 50.5 -22.5s23.5 -33.5 23.5 -57.5c0 -22.667 -7.66699 -41.334 -23 -56.001s-34 -22 -56 -22c-22.667 0 -42.167 8.66699 -58.5 26s-24.5 42.333 -24.5 75c0 30.667 7.33301 59.334 22 86.001
s35 49 61 67s56.667 30 92 36z" />
    <glyph glyph-name="Hbar" unicode="&#x126;" horiz-adv-x="768" 
d="M94 0v478h-80v105h80v87h178v-87h224v87h178v-87h80v-105h-80v-478h-178v264h-224v-264h-178zM272 393h224v85h-224v-85z" />
    <glyph glyph-name="hbar" unicode="&#x127;" horiz-adv-x="621" 
d="M80 0v543.999h-66v90h66v66h170v-66h126v-90h-126v-127c14 24.667 33.167 44.167 57.5 58.5s52.833 21.5 85.5 21.5c54 0 96.5 -16.5 127.5 -49.5s46.5 -77.5 46.5 -133.5v-314h-170v288c0 26.667 -5.66699 47.834 -17 63.501s-28.333 23.5 -51 23.5
c-20.667 0 -39 -8.83301 -55 -26.5s-24 -45.5 -24 -83.5v-265h-170z" />
    <glyph glyph-name="Itilde" unicode="&#x128;" horiz-adv-x="326" 
d="M74 0v670h178v-670h-178zM140 777c-10 7.33301 -18.667 13 -26 17s-14.333 6 -21 6c-8 0 -15.167 -4.5 -21.5 -13.5s-11.833 -24.833 -16.5 -47.5h-99c3.33301 31.333 10.666 59.833 21.999 85.5s26 46.167 44 61.5s38.333 23 61 23c19.333 0 37 -4 53 -12
s32.667 -18.667 50 -32c10 -7.33301 18.667 -13 26 -17s14.333 -6 21 -6c8 0 15.167 4.5 21.5 13.5s11.833 24.833 16.5 47.5h99c-3.33301 -31.333 -10.666 -59.833 -21.999 -85.5s-26 -46.167 -44 -61.5s-38.333 -23 -61 -23c-19.333 0 -37 4 -53 12s-32.667 18.667 -50 32
z" />
    <glyph glyph-name="itilde" unicode="&#x129;" horiz-adv-x="290" 
d="M60 0v504h170v-504h-170zM126 614c-9.33301 9.33301 -17 15.5 -23 18.5s-11.667 4.5 -17 4.5c-7.33301 0 -14 -4.5 -20 -13.5s-10 -24.167 -12 -45.5h-84c3.33301 44 14.166 81.333 32.499 112s43.833 46 76.5 46c17.333 0 32.5 -3.83301 45.5 -11.5
s26.167 -17.834 39.5 -30.501c9.33301 -9.33301 17 -15.5 23 -18.5s11.667 -4.5 17 -4.5c7.33301 0 14 4.5 20 13.5s10 24.167 12 45.5h84c-3.33301 -44 -14.166 -81.333 -32.499 -112s-43.833 -46 -76.5 -46c-17.333 0 -32.5 3.83301 -45.5 11.5
s-26.167 17.834 -39.5 30.501z" />
    <glyph glyph-name="Imacron" unicode="&#x12a;" horiz-adv-x="326" 
d="M74 0v670h178v-670h-178zM-25 752v118h376v-118h-376z" />
    <glyph glyph-name="imacron" unicode="&#x12b;" horiz-adv-x="290" 
d="M60 0v504h170v-504h-170zM-12 589v106h314v-106h-314z" />
    <glyph glyph-name="Iogonek" unicode="&#x12e;" horiz-adv-x="326" 
d="M74 0v670h178v-670h-178zM158 -268c-48.667 0 -86.333 12.3311 -113 36.998s-40 54.334 -40 89.001c0 25.333 6.5 49.5 19.5 72.5s36.833 46.167 71.5 69.5h124c-32.667 -5.33301 -55.334 -17.833 -68.001 -37.5s-19 -39.167 -19 -58.5c0 -22.667 5.83301 -40 17.5 -52
s26.834 -18 45.501 -18c18 0 36.667 4 56 12v-99c-15.333 -5.33301 -30.5 -9.16602 -45.5 -11.499s-31.167 -3.5 -48.5 -3.5z" />
    <glyph glyph-name="iogonek" unicode="&#x12f;" horiz-adv-x="290" 
d="M145 561c-26.667 0 -49.167 8.83301 -67.5 26.5s-27.5 39.167 -27.5 64.5s9.16699 46.833 27.5 64.5s40.833 26.5 67.5 26.5s49.167 -8.83301 67.5 -26.5s27.5 -39.167 27.5 -64.5s-9.16699 -46.833 -27.5 -64.5s-40.833 -26.5 -67.5 -26.5zM60 0v504h170v-504h-170z
M139 -262c-47.333 0 -84.168 12.001 -110.501 36.001s-39.5 52.333 -39.5 85c0 25.333 6.5 49.5 19.5 72.5s36.167 45.833 69.5 68.5h123c-34 -5.33301 -57.5 -17.333 -70.5 -36s-19.5 -39.334 -19.5 -62.001c0 -21.333 6.5 -38 19.5 -50s27.833 -18 44.5 -18
c20.667 0 39 3.33301 55 10v-92c-27.333 -9.33301 -57.666 -14 -90.999 -14z" />
    <glyph glyph-name="Idotaccent" unicode="&#x130;" horiz-adv-x="326" 
d="M74 0v670h178v-670h-178zM163 727c-26.667 0 -49.5 9.16699 -68.5 27.5s-28.5 40.166 -28.5 65.499s9.5 47.166 28.5 65.499s41.833 27.5 68.5 27.5s49.5 -9.16699 68.5 -27.5s28.5 -40.166 28.5 -65.499s-9.5 -47.166 -28.5 -65.499s-41.833 -27.5 -68.5 -27.5z" />
    <glyph glyph-name="dotlessi" unicode="&#x131;" horiz-adv-x="290" 
d="M60 0v504h170v-504h-170z" />
    <glyph glyph-name="IJ" unicode="&#x132;" horiz-adv-x="671" 
d="M336 -16c-81.333 0 -145.668 21.5 -193.001 64.5s-74.333 101.833 -81 176.5h177c3.33301 -32.667 13.5 -59.5 30.5 -80.5s39.167 -31.5 66.5 -31.5c30 0 53.333 11.833 70 35.5s25 57.167 25 100.5v421h178v-406c0 -88 -24.167 -156.667 -72.5 -206
s-115.166 -74 -200.499 -74zM239.998 312h-178v358h178v-358z" />
    <glyph glyph-name="ij" unicode="&#x133;" horiz-adv-x="591" 
d="M45 652c0 25.333 9.16699 46.833 27.5 64.5s40.833 26.5 67.5 26.5s49.167 -8.83301 67.5 -26.5s27.5 -39.167 27.5 -64.5s-9.16699 -46.833 -27.5 -64.5s-40.833 -26.5 -67.5 -26.5s-49.167 8.83301 -67.5 26.5s-27.5 39.167 -27.5 64.5zM351 652
c0 25.333 9.16699 46.833 27.5 64.5s40.833 26.5 67.5 26.5s49.167 -8.83301 67.5 -26.5s27.5 -39.167 27.5 -64.5s-9.16699 -46.833 -27.5 -64.5s-40.833 -26.5 -67.5 -26.5s-49.167 8.83301 -67.5 26.5s-27.5 39.167 -27.5 64.5zM51 -53l160 -0.000976562
c4 -21.333 12 -38 24 -50s28 -18 48 -18c24 0 43 9.16699 57 27.5s21 46.5 21 84.5v81c-14 -22 -33.167 -39.5 -57.5 -52.5s-52.5 -19.5 -84.5 -19.5c-49.333 0 -88.833 16.5 -118.5 49.5s-44.5 77.5 -44.5 133.5v321h170v-295c0 -27.333 5.16699 -48.666 15.5 -63.999
s25.833 -23 46.5 -23c19.333 0 36.333 8.83301 51 26.5s22 45.5 22 83.5v272h170v-462c0 -87.333 -21.167 -153.333 -63.5 -198s-103.833 -67 -184.5 -67c-60 0 -111.5 14.167 -154.5 42.5s-68.833 70.833 -77.5 127.5z" />
    <glyph glyph-name="uni0136" unicode="&#x136;" horiz-adv-x="671" 
d="M74 0l-0.000976562 670.002h178v-286l196 286h205l-257 -331c44.667 -19.333 86 -49 124 -89c30.667 -32.667 58 -70.334 82 -113.001s43.667 -88.334 59 -137.001h-203c-7.33301 30 -17.5 59.833 -30.5 89.5s-28.167 57.167 -45.5 82.5
c-18.667 27.333 -39.167 50.333 -61.5 69s-45.166 29.667 -68.499 33v-274h-178zM258.999 -358.998v66.998c24.667 6 44.334 14.5 59.001 25.5s25 25.833 31 44.5c-18.667 0.666992 -36.334 8.33398 -53.001 23.001s-25 34.667 -25 60c0 24 8 43.667 24 59s35.667 23 59 23
c24 0 44.5 -9.16699 61.5 -27.5s25.5 -44.166 25.5 -77.499c0 -50.667 -16.667 -94 -50 -130s-77.333 -58.333 -132 -67z" />
    <glyph glyph-name="uni0137" unicode="&#x137;" horiz-adv-x="570" 
d="M60 0l-0.000976562 700h170v-397l140 201h180l-189 -230c37.333 -25.333 70.666 -55 99.999 -89c21.333 -24.667 40.833 -52.334 58.5 -83.001s33.834 -64.667 48.501 -102h-184c-13.333 46.667 -31.666 86.334 -54.999 119.001c-14 19.333 -29 37.5 -45 54.5
s-34 32.5 -54 46.5v-220h-170zM213.999 -347v62c48.667 12.667 77.667 36 87 70c-18 0.666992 -34.833 8.16699 -50.5 22.5s-23.5 33.5 -23.5 57.5c0 22.667 7.83301 41.334 23.5 56.001s34.167 22 55.5 22c22 0 41.333 -8.83301 58 -26.5s25 -42.5 25 -74.5
c0 -30.667 -7.33301 -59.334 -22 -86.001s-35 -49 -61 -67s-56.667 -30 -92 -36z" />
    <glyph glyph-name="Lacute" unicode="&#x139;" horiz-adv-x="542" 
d="M74 0v670h178v-539h260v-131h-438zM40 795l225 145l69 -131l-252 -97z" />
    <glyph glyph-name="lacute" unicode="&#x13a;" horiz-adv-x="290" 
d="M60 0v700h170v-700h-170zM48 826l178 128l66 -121l-201 -88z" />
    <glyph glyph-name="uni013B" unicode="&#x13b;" horiz-adv-x="542" 
d="M74 0v670h178v-539h260v-131h-438zM197 -359v66.998c24.667 6 44.334 14.5 59.001 25.5s25 25.833 31 44.5c-18.667 0.666992 -36.334 8.33398 -53.001 23.001s-25 34.667 -25 60c0 24 8 43.667 24 59s35.667 23 59 23c24 0 44.5 -9.16699 61.5 -27.5
s25.5 -44.166 25.5 -77.499c0 -50.667 -16.667 -94 -50 -130s-77.333 -58.333 -132 -67z" />
    <glyph glyph-name="uni013C" unicode="&#x13c;" horiz-adv-x="290" 
d="M60 0v700h170v-700h-170zM52 -347v62c48.667 12.667 77.667 36 87 70c-18 0.666992 -34.833 8.16699 -50.5 22.5s-23.5 33.5 -23.5 57.5c0 22.667 7.83301 41.334 23.5 56.001s34.167 22 55.5 22c22 0 41.333 -8.83301 58 -26.5s25 -42.5 25 -74.5
c0 -30.667 -7.33301 -59.334 -22 -86.001s-35 -49 -61 -67s-56.667 -30 -92 -36z" />
    <glyph glyph-name="Lcaron" unicode="&#x13d;" horiz-adv-x="542" 
d="M74 0v670h178v-539h260v-131h-438zM444 464h-82.001v206h132v-11c0 -18 -2.16699 -39.667 -6.5 -65s-10.166 -50 -17.499 -74s-16 -42.667 -26 -56z" />
    <glyph glyph-name="lcaron" unicode="&#x13e;" horiz-adv-x="395" 
d="M60 0v700h170v-700h-170zM381 516h-78.001v184h126v-8c0 -17.333 -2 -37.333 -6 -60s-9.66699 -44.667 -17 -66s-15.666 -38 -24.999 -50z" />
    <glyph glyph-name="Lslash" unicode="&#x141;" horiz-adv-x="573" 
d="M105 0v219l-80 -43v129l80 43v322h178v-226l130 70v-129l-130 -70v-184h260v-131h-438z" />
    <glyph glyph-name="lslash" unicode="&#x142;" horiz-adv-x="350" 
d="M90 0v274l-85 -48v107l85 48v319h170v-224l85 48v-107l-85 -48v-369h-170z" />
    <glyph glyph-name="Nacute" unicode="&#x143;" horiz-adv-x="725" 
d="M74 0v670h167l237 -408v408h173v-670h-164l-240 415v-415h-173zM239 795l225 145l69 -131l-252 -97z" />
    <glyph glyph-name="nacute" unicode="&#x144;" horiz-adv-x="601" 
d="M60 0v504h152l5 -77c12.667 27.333 32.5 49.166 59.5 65.499s59.167 24.5 96.5 24.5c54 0 96.5 -16.5 127.5 -49.5s46.5 -77.5 46.5 -133.5v-334h-170v308c0 26.667 -5.66699 47.834 -17 63.501s-28.333 23.5 -51 23.5c-20.667 0 -39 -8.83301 -55 -26.5
s-24 -45.5 -24 -83.5v-285h-170zM203 625l150 156l88 -105l-179 -120z" />
    <glyph glyph-name="uni0145" unicode="&#x145;" horiz-adv-x="725" 
d="M74 0v670h167l237 -408v408h173v-670h-164l-240 415v-415h-173zM266 -359v66.998c24.667 6 44.334 14.5 59.001 25.5s25 25.833 31 44.5c-18.667 0.666992 -36.334 8.33398 -53.001 23.001s-25 34.667 -25 60c0 24 8 43.667 24 59s35.667 23 59 23
c24 0 44.5 -9.16699 61.5 -27.5s25.5 -44.166 25.5 -77.499c0 -50.667 -16.667 -94 -50 -130s-77.333 -58.333 -132 -67z" />
    <glyph glyph-name="uni0146" unicode="&#x146;" horiz-adv-x="601" 
d="M60 0v504h152l5 -77c12.667 27.333 32.5 49.166 59.5 65.499s59.167 24.5 96.5 24.5c54 0 96.5 -16.5 127.5 -49.5s46.5 -77.5 46.5 -133.5v-334h-170v308c0 26.667 -5.66699 47.834 -17 63.501s-28.333 23.5 -51 23.5c-20.667 0 -39 -8.83301 -55 -26.5
s-24 -45.5 -24 -83.5v-285h-170zM210 -347v62c48.667 12.667 77.667 36 87 70c-18 0.666992 -34.833 8.16699 -50.5 22.5s-23.5 33.5 -23.5 57.5c0 22.667 7.83301 41.334 23.5 56.001s34.167 22 55.5 22c22 0 41.333 -8.83301 58 -26.5s25 -42.5 25 -74.5
c0 -30.667 -7.33301 -59.334 -22 -86.001s-35 -49 -61 -67s-56.667 -30 -92 -36z" />
    <glyph glyph-name="Ncaron" unicode="&#x147;" horiz-adv-x="725" 
d="M74 0v670h167l237 -408v408h173v-670h-164l-240 415v-415h-173zM326 725l-162 125l53 80l145 -90l145 90l53 -80l-162 -125h-72z" />
    <glyph glyph-name="ncaron" unicode="&#x148;" horiz-adv-x="601" 
d="M60 0v504h152l5 -77c12.667 27.333 32.5 49.166 59.5 65.499s59.167 24.5 96.5 24.5c54 0 96.5 -16.5 127.5 -49.5s46.5 -77.5 46.5 -133.5v-334h-170v308c0 26.667 -5.66699 47.834 -17 63.501s-28.333 23.5 -51 23.5c-20.667 0 -39 -8.83301 -55 -26.5
s-24 -45.5 -24 -83.5v-285h-170zM483 707l-139 -140h-82l-139 140l59 73l121 -99l121 99z" />
    <glyph glyph-name="Eng" unicode="&#x14a;" horiz-adv-x="724" 
d="M74 0l0.000976562 670.001h167l236 -386v386h174v-628c0 -89.333 -19.167 -155.833 -57.5 -199.5s-93.166 -65.5 -164.499 -65.5c-19.333 0 -40.833 2.16699 -64.5 6.5s-44.834 10.5 -63.501 18.5l25 118c10 -4.66699 22.167 -8.33398 36.5 -11.001s27.166 -4 38.499 -4
c23.333 0 41.833 8.16699 55.5 24.5s20.5 39.833 20.5 70.5v38l-231 379v-417h-172z" />
    <glyph glyph-name="eng" unicode="&#x14b;" horiz-adv-x="601" 
d="M60 0v503.998h152l5 -78c12.667 27.333 32.5 49.333 59.5 66s59.167 25 96.5 25c54 0 96.5 -16.5 127.5 -49.5s46.5 -77.5 46.5 -133.5v-344c0 -65.333 -15.5 -117.166 -46.5 -155.499s-79.833 -57.5 -146.5 -57.5c-15.333 0 -31.5 1.5 -48.5 4.5
s-33.167 7.83301 -48.5 14.5l21 104c14 -4.66699 28 -7 42 -7c38 0 57 24.667 57 74v341c0 26.667 -5.66699 47.834 -17 63.501s-28.333 23.5 -51 23.5c-20.667 0 -39 -8.83301 -55 -26.5s-24 -45.5 -24 -83.5v-285h-170z" />
    <glyph glyph-name="Ohungarumlaut" unicode="&#x150;" horiz-adv-x="735" 
d="M367 -16c-70.667 0 -130.667 14.834 -180 44.501s-86.833 71 -112.5 124s-38.5 113.833 -38.5 182.5c0 68 12.833 128.5 38.5 181.5s63.167 94.5 112.5 124.5s109.333 45 180 45c71.333 0 131.666 -15 180.999 -45s86.833 -71.5 112.5 -124.5s38.5 -113.5 38.5 -181.5
c0 -68.667 -12.833 -129.334 -38.5 -182.001s-63.167 -94 -112.5 -124s-109.666 -45 -180.999 -45zM367 113.001c47.333 0 83.5 20 108.5 60s37.5 94 37.5 162s-12.5 122 -37.5 162s-61.167 60 -108.5 60s-83.333 -20 -108 -60s-37 -94 -37 -162s12.333 -122 37 -162
s60.667 -60 108 -60zM201 782.001l176 185l80 -97l-207 -150zM397 790.001l207 148l60 -111l-231 -107z" />
    <glyph glyph-name="ohungarumlaut" unicode="&#x151;" horiz-adv-x="578" 
d="M289 -13c-54 0 -100.5 11.667 -139.5 35s-69 54.833 -90 94.5s-31.5 84.834 -31.5 135.501s10.5 95.834 31.5 135.501s51 71.167 90 94.5s85.5 35 139.5 35s100.5 -11.667 139.5 -35s69 -54.833 90 -94.5s31.5 -84.834 31.5 -135.501s-10.5 -95.834 -31.5 -135.501
s-51 -71.167 -90 -94.5s-85.5 -35 -139.5 -35zM289 97c26.667 0 47.5 13.833 62.5 41.5s22.5 65.5 22.5 113.5s-7.5 85.833 -22.5 113.5s-35.833 41.5 -62.5 41.5s-47.5 -13.833 -62.5 -41.5s-22.5 -65.5 -22.5 -113.5s7.5 -85.833 22.5 -113.5s35.833 -41.5 62.5 -41.5z
M142 599l143 192l86 -78l-177 -160zM305 610l180 158l68 -92l-207 -122z" />
    <glyph glyph-name="OE" unicode="&#x152;" horiz-adv-x="973" 
d="M36 335c0 64.667 14 122.168 42 172.501s69.333 90 124 119s121.667 43.5 201 43.5h521v-131h-276v-139h245v-125h-245v-144h280v-131h-525c-79.333 0 -146.333 14.667 -201 44s-96 69.166 -124 119.499s-42 107.5 -42 171.5zM403 131.001l67 -0.00195312v408h-67
c-62 0 -107.667 -18.167 -137 -54.5s-44 -86.166 -44 -149.499s14.667 -113.166 44 -149.499s75 -54.5 137 -54.5z" />
    <glyph glyph-name="oe" unicode="&#x153;" horiz-adv-x="900" 
d="M868 157c-13.333 -56.667 -41.667 -99.168 -85 -127.501s-94.333 -42.5 -153 -42.5c-34 0 -65.5 6.16699 -94.5 18.5s-54.5 32.166 -76.5 59.499c-42 -52 -98.667 -78 -170 -78c-54 0 -100.5 11.667 -139.5 35s-69 54.833 -90 94.5s-31.5 84.834 -31.5 135.501
s10.5 95.834 31.5 135.501s51 71.167 90 94.5s85.5 35 139.5 35c72.667 0 129.667 -26.333 171 -79c20 26.667 44 46.5 72 59.5s59.333 19.5 94 19.5c52.667 0 97.5 -11.167 134.5 -33.5s65.167 -53.833 84.5 -94.5s29 -88 29 -142v-33h-331c4 -44.667 14 -76.167 30 -94.5
s35.333 -27.5 58 -27.5c21.333 0 38 5.66699 50 17s20.333 27.333 25 48h162zM625.999 411.999c-22.667 0 -41.5 -9.99902 -56.5 -29.999s-23.833 -49 -26.5 -87h163c-2.66699 37.333 -10.667 66.166 -24 86.499s-32 30.5 -56 30.5zM288.999 97
c26.667 0 47.5 13.833 62.5 41.5s22.5 65.5 22.5 113.5s-7.5 85.833 -22.5 113.5s-35.833 41.5 -62.5 41.5s-47.5 -13.833 -62.5 -41.5s-22.5 -65.5 -22.5 -113.5s7.5 -85.833 22.5 -113.5s35.833 -41.5 62.5 -41.5z" />
    <glyph glyph-name="Racute" unicode="&#x154;" horiz-adv-x="666" 
d="M74 0l0.000976562 669.999h270c85.333 0 150.833 -18.167 196.5 -54.5s68.5 -82.166 68.5 -137.499c0 -34 -7.83301 -63.333 -23.5 -88s-36.334 -44.5 -62.001 -59.5s-53.5 -25.5 -83.5 -31.5c53.333 -22.667 96.333 -60.334 129 -113.001s56.667 -114.667 72 -186h-186
c-14.667 78 -39.667 140.333 -75 187s-78 71.334 -128 74.001v-261h-178zM308.001 553.999h-56v-184h56c39.333 0 69.333 8 90 24s31 38.667 31 68s-10.333 52 -31 68s-50.667 24 -90 24zM185.001 794.999l225 145l69 -131l-252 -97z" />
    <glyph glyph-name="racute" unicode="&#x155;" horiz-adv-x="390" 
d="M60 0v504.001h149l8 -88c8.66699 24 23.667 46 45 66s49.666 30 84.999 30c6.66699 0 12.334 -0.333008 17.001 -1s9 -1.33398 13 -2.00098v-157c-4 1.33301 -10 2.5 -18 3.5s-15.667 1.5 -23 1.5c-30.667 0 -56 -9.5 -76 -28.5s-30 -48.167 -30 -87.5v-241h-170z
M117 625.001l150 156l88 -105l-179 -120z" />
    <glyph glyph-name="Rcaron" unicode="&#x158;" horiz-adv-x="666" 
d="M74 0l0.000976562 669.999h270c85.333 0 150.833 -18.167 196.5 -54.5s68.5 -82.166 68.5 -137.499c0 -34 -7.83301 -63.333 -23.5 -88s-36.334 -44.5 -62.001 -59.5s-53.5 -25.5 -83.5 -31.5c53.333 -22.667 96.333 -60.334 129 -113.001s56.667 -114.667 72 -186h-186
c-14.667 78 -39.667 140.333 -75 187s-78 71.334 -128 74.001v-261h-178zM308.001 553.999h-56v-184h56c39.333 0 69.333 8 90 24s31 38.667 31 68s-10.333 52 -31 68s-50.667 24 -90 24zM272.001 724.999l-162 125l53 80l145 -90l145 90l53 -80l-162 -125h-72z" />
    <glyph glyph-name="rcaron" unicode="&#x159;" horiz-adv-x="390" 
d="M60 0v504.001h149l8 -88c8.66699 24 23.667 46 45 66s49.666 30 84.999 30c6.66699 0 12.334 -0.333008 17.001 -1s9 -1.33398 13 -2.00098v-157c-4 1.33301 -10 2.5 -18 3.5s-15.667 1.5 -23 1.5c-30.667 0 -56 -9.5 -76 -28.5s-30 -48.167 -30 -87.5v-241h-170z
M397 707.001l-139 -140h-82l-139 140l59 73l121 -99l121 99z" />
    <glyph glyph-name="Sacute" unicode="&#x15a;" horiz-adv-x="621" 
d="M317 -16c-84.667 0 -151.495 18.8301 -200.495 56.4971s-77.5 91.834 -85.5 162.501h175c5.33301 -38.667 18.666 -65.5 39.999 -80.5s45.666 -22.5 72.999 -22.5c31.333 0 54.333 7.66699 69 23s22 31.333 22 48c0 20.667 -5.5 38.334 -16.5 53.001
s-30.5 25.667 -58.5 33l-111 29c-57.333 14.667 -100.333 37.5 -129 68.5s-43 74.833 -43 131.5c0 43.333 11.5 79.833 34.5 109.5s53.833 52.167 92.5 67.5s82 23 130 23c79.333 0 141.166 -18.667 185.499 -56s71.166 -90.333 80.499 -159h-172
c-4 30.667 -14.333 54.834 -31 72.501s-39.334 26.5 -68.001 26.5c-24.667 0 -44 -6.66699 -58 -20s-21 -30.333 -21 -51c0 -39.333 22.333 -64.666 67 -75.999l105 -27c50 -12.667 88.667 -29.167 116 -49.5s46.333 -43.5 57 -69.5s16 -54.667 16 -86
c0 -64.667 -23.5 -115.334 -70.5 -152.001s-113.167 -55 -198.5 -55zM184.005 794.997l225 145l69 -131l-252 -97z" />
    <glyph glyph-name="sacute" unicode="&#x15b;" horiz-adv-x="528" 
d="M267 -13c-71.333 0 -127.171 14.8359 -167.504 44.5029s-63.5 72.167 -69.5 127.5h165c3.33301 -27.333 12.333 -46.166 27 -56.499s30.334 -15.5 47.001 -15.5c19.333 0 34.333 4.16699 45 12.5s16 18.833 16 31.5c0 11.333 -4.5 22 -13.5 32s-25.833 18.333 -50.5 25
l-84 22c-43.333 11.333 -77.166 28.666 -101.499 51.999s-36.5 55.666 -36.5 96.999c0 35.333 10 64.666 30 87.999s47 40.833 81 52.5s72.333 17.5 115 17.5c62.667 0 112.334 -14 149.001 -42s59.667 -68.333 69 -121h-164c-2.66699 19.333 -9 34.666 -19 45.999
s-24.333 17 -43 17c-17.333 0 -30.666 -4.5 -39.999 -13.5s-14 -19.833 -14 -32.5c0 -12 4 -22.5 12 -31.5s22.667 -16.167 44 -21.5l72 -18c57.333 -14.667 98 -33.5 122 -56.5s36 -54.167 36 -93.5c0 -52 -20 -92.167 -60 -120.5s-95.667 -42.5 -167 -42.5z
M160.995 625.003l150 156l88 -105l-179 -120z" />
    <glyph glyph-name="Scedilla" unicode="&#x15e;" horiz-adv-x="621" 
d="M317 -16c-84.667 0 -151.495 18.8301 -200.495 56.4971s-77.5 91.834 -85.5 162.501h175c5.33301 -38.667 18.666 -65.5 39.999 -80.5s45.666 -22.5 72.999 -22.5c31.333 0 54.333 7.66699 69 23s22 31.333 22 48c0 20.667 -5.5 38.334 -16.5 53.001
s-30.5 25.667 -58.5 33l-111 29c-57.333 14.667 -100.333 37.5 -129 68.5s-43 74.833 -43 131.5c0 43.333 11.5 79.833 34.5 109.5s53.833 52.167 92.5 67.5s82 23 130 23c79.333 0 141.166 -18.667 185.499 -56s71.166 -90.333 80.499 -159h-172
c-4 30.667 -14.333 54.834 -31 72.501s-39.334 26.5 -68.001 26.5c-24.667 0 -44 -6.66699 -58 -20s-21 -30.333 -21 -51c0 -39.333 22.333 -64.666 67 -75.999l105 -27c50 -12.667 88.667 -29.167 116 -49.5s46.333 -43.5 57 -69.5s16 -54.667 16 -86
c0 -64.667 -23.5 -115.334 -70.5 -152.001s-113.167 -55 -198.5 -55zM265.005 -0.00292969l75.999 -0.000976562l-6 -58c4.66699 1.33301 10.667 2 18 2c30.667 0 55.834 -9.16699 75.501 -27.5s29.5 -42.833 29.5 -73.5c0 -37.333 -12.5 -66.833 -37.5 -88.5
s-60.167 -32.5 -105.5 -32.5c-12 0 -26 1 -42 3s-30.333 5.33301 -43 10l7 79c12.667 -4 25.167 -6.66699 37.5 -8s23.166 -2 32.499 -2c32 0 48 12.333 48 37c0 10.667 -3.16699 19.334 -9.5 26.001s-14.833 10 -25.5 10c-13.333 0 -25.666 -3.66699 -36.999 -11h-32z" />
    <glyph glyph-name="scedilla" unicode="&#x15f;" horiz-adv-x="528" 
d="M267 -13c-71.333 0 -127.171 14.8359 -167.504 44.5029s-63.5 72.167 -69.5 127.5h165c3.33301 -27.333 12.333 -46.166 27 -56.499s30.334 -15.5 47.001 -15.5c19.333 0 34.333 4.16699 45 12.5s16 18.833 16 31.5c0 11.333 -4.5 22 -13.5 32s-25.833 18.333 -50.5 25
l-84 22c-43.333 11.333 -77.166 28.666 -101.499 51.999s-36.5 55.666 -36.5 96.999c0 35.333 10 64.666 30 87.999s47 40.833 81 52.5s72.333 17.5 115 17.5c62.667 0 112.334 -14 149.001 -42s59.667 -68.333 69 -121h-164c-2.66699 19.333 -9 34.666 -19 45.999
s-24.333 17 -43 17c-17.333 0 -30.666 -4.5 -39.999 -13.5s-14 -19.833 -14 -32.5c0 -12 4 -22.5 12 -31.5s22.667 -16.167 44 -21.5l72 -18c57.333 -14.667 98 -33.5 122 -56.5s36 -54.167 36 -93.5c0 -52 -20 -92.167 -60 -120.5s-95.667 -42.5 -167 -42.5z
M212.995 0.00292969l70 0.000976562l-9 -59c6.66699 2 14.334 3 23.001 3c30 0 54.5 -9 73.5 -27s28.5 -41.667 28.5 -71c0 -36.667 -12.333 -65.5 -37 -86.5s-60 -31.5 -106 -31.5c-26.667 0 -53 3.66699 -79 11l7 74c23.333 -6 44.666 -9 63.999 -9c36 0 54 13.333 54 40
c0 11.333 -3.5 20.666 -10.5 27.999s-16.167 11 -27.5 11c-13.333 0 -26 -3.66699 -38 -11h-28z" />
    <glyph glyph-name="Scaron" unicode="&#x160;" horiz-adv-x="621" 
d="M317 -16c-84.667 0 -151.495 18.8301 -200.495 56.4971s-77.5 91.834 -85.5 162.501h175c5.33301 -38.667 18.666 -65.5 39.999 -80.5s45.666 -22.5 72.999 -22.5c31.333 0 54.333 7.66699 69 23s22 31.333 22 48c0 20.667 -5.5 38.334 -16.5 53.001
s-30.5 25.667 -58.5 33l-111 29c-57.333 14.667 -100.333 37.5 -129 68.5s-43 74.833 -43 131.5c0 43.333 11.5 79.833 34.5 109.5s53.833 52.167 92.5 67.5s82 23 130 23c79.333 0 141.166 -18.667 185.499 -56s71.166 -90.333 80.499 -159h-172
c-4 30.667 -14.333 54.834 -31 72.501s-39.334 26.5 -68.001 26.5c-24.667 0 -44 -6.66699 -58 -20s-21 -30.333 -21 -51c0 -39.333 22.333 -64.666 67 -75.999l105 -27c50 -12.667 88.667 -29.167 116 -49.5s46.333 -43.5 57 -69.5s16 -54.667 16 -86
c0 -64.667 -23.5 -115.334 -70.5 -152.001s-113.167 -55 -198.5 -55zM271.005 724.997l-162 125l53 80l145 -90l145 90l53 -80l-162 -125h-72z" />
    <glyph glyph-name="scaron" unicode="&#x161;" horiz-adv-x="528" 
d="M267 -13c-71.333 0 -127.171 14.8359 -167.504 44.5029s-63.5 72.167 -69.5 127.5h165c3.33301 -27.333 12.333 -46.166 27 -56.499s30.334 -15.5 47.001 -15.5c19.333 0 34.333 4.16699 45 12.5s16 18.833 16 31.5c0 11.333 -4.5 22 -13.5 32s-25.833 18.333 -50.5 25
l-84 22c-43.333 11.333 -77.166 28.666 -101.499 51.999s-36.5 55.666 -36.5 96.999c0 35.333 10 64.666 30 87.999s47 40.833 81 52.5s72.333 17.5 115 17.5c62.667 0 112.334 -14 149.001 -42s59.667 -68.333 69 -121h-164c-2.66699 19.333 -9 34.666 -19 45.999
s-24.333 17 -43 17c-17.333 0 -30.666 -4.5 -39.999 -13.5s-14 -19.833 -14 -32.5c0 -12 4 -22.5 12 -31.5s22.667 -16.167 44 -21.5l72 -18c57.333 -14.667 98 -33.5 122 -56.5s36 -54.167 36 -93.5c0 -52 -20 -92.167 -60 -120.5s-95.667 -42.5 -167 -42.5z
M440.995 707.003l-139 -140h-82l-139 140l59 73l121 -99l121 99z" />
    <glyph glyph-name="uni0162" unicode="&#x162;" horiz-adv-x="596" 
d="M209 0v539h-196v131h570v-131h-196v-539h-178zM256 0l75.999 -0.000976562l-6 -58c4.66699 1.33301 10.667 2 18 2c30.667 0 55.834 -9.16699 75.501 -27.5s29.5 -42.833 29.5 -73.5c0 -37.333 -12.5 -66.833 -37.5 -88.5s-60.167 -32.5 -105.5 -32.5c-12 0 -26 1 -42 3
s-30.333 5.33301 -43 10l7 79c12.667 -4 25.167 -6.66699 37.5 -8s23.166 -2 32.499 -2c32 0 48 12.333 48 37c0 10.667 -3.16699 19.334 -9.5 26.001s-14.833 10 -25.5 10c-13.333 0 -25.666 -3.66699 -36.999 -11h-32z" />
    <glyph glyph-name="uni0163" unicode="&#x163;" horiz-adv-x="399" 
d="M260 -13c-61.333 0 -106.832 17.168 -136.499 51.501s-44.5 77.833 -44.5 130.5v225h-65v110h65v142h170v-142h119v-110h-119v-223c0 -22 5 -38.333 15 -49s23.333 -16 40 -16c9.33301 0 19 1 29 3s19.667 5 29 9l26 -104
c-15.333 -8.66699 -34.833 -15.334 -58.5 -20.001s-46.834 -7 -69.501 -7zM182.001 0.000976562l70 0.000976562l-9 -59c6.66699 2 14.334 3 23.001 3c30 0 54.5 -9 73.5 -27s28.5 -41.667 28.5 -71c0 -36.667 -12.333 -65.5 -37 -86.5s-60 -31.5 -106 -31.5
c-26.667 0 -53 3.66699 -79 11l7 74c23.333 -6 44.666 -9 63.999 -9c36 0 54 13.333 54 40c0 11.333 -3.5 20.666 -10.5 27.999s-16.167 11 -27.5 11c-13.333 0 -26 -3.66699 -38 -11h-28z" />
    <glyph glyph-name="Tcaron" unicode="&#x164;" horiz-adv-x="596" 
d="M209 0v539h-196v131h570v-131h-196v-539h-178zM262 725l-162 125l53 80l145 -90l145 90l53 -80l-162 -125h-72z" />
    <glyph glyph-name="tcaron" unicode="&#x165;" horiz-adv-x="399" 
d="M260 -13c-61.333 0 -106.832 17.168 -136.499 51.501s-44.5 77.833 -44.5 130.5v225h-65v110h65v142h170v-142h119v-110h-119v-223c0 -22 5 -38.333 15 -49s23.333 -16 40 -16c9.33301 0 19 1 29 3s19.667 5 29 9l26 -104
c-15.333 -8.66699 -34.833 -15.334 -58.5 -20.001s-46.834 -7 -69.501 -7zM381.001 549.001l-82 0.000976562v151h120v-8c0 -22.667 -3.33301 -47.334 -10 -74.001s-16 -49.667 -28 -69z" />
    <glyph glyph-name="Tbar" unicode="&#x166;" horiz-adv-x="596" 
d="M209 0v266h-126v115h126v158h-196v131h570v-131h-196v-158h126v-115h-126v-266h-178z" />
    <glyph glyph-name="tbar" unicode="&#x167;" horiz-adv-x="393" 
d="M14 205l0.00195312 110h65v79h-65v110h65v142h170v-142h119v-110h-119v-79h119v-110h-119v-38c0 -22 5 -38.333 15 -49s23.333 -16 40 -16c17.333 0 34.666 3.33301 51.999 10l26 -100c-15.333 -8 -33.833 -14.167 -55.5 -18.5s-43.834 -6.5 -66.501 -6.5
c-61.333 0 -106.833 17.167 -136.5 51.5s-44.5 77.833 -44.5 130.5v36h-65z" />
    <glyph glyph-name="Utilde" unicode="&#x168;" horiz-adv-x="704" 
d="M351 -16c-92.667 0 -163.999 26 -213.999 78s-75 122.667 -75 212v396h178v-411c0 -43.333 9.5 -78.5 28.5 -105.5s46.5 -40.5 82.5 -40.5c36.667 0 64.667 13.5 84 40.5s29 62.167 29 105.5v411h178v-396c0 -89.333 -25.333 -160 -76 -212s-122.334 -78 -215.001 -78z
M329.001 777c-10 7.33301 -18.667 13 -26 17s-14.333 6 -21 6c-8 0 -15.167 -4.5 -21.5 -13.5s-11.833 -24.833 -16.5 -47.5h-99c3.33301 31.333 10.666 59.833 21.999 85.5s26 46.167 44 61.5s38.333 23 61 23c19.333 0 37 -4 53 -12s32.667 -18.667 50 -32
c10 -7.33301 18.667 -13 26 -17s14.333 -6 21 -6c8 0 15.167 4.5 21.5 13.5s11.833 24.833 16.5 47.5h99c-3.33301 -31.333 -10.666 -59.833 -21.999 -85.5s-26 -46.167 -44 -61.5s-38.333 -23 -61 -23c-19.333 0 -37 4 -53 12s-32.667 18.667 -50 32z" />
    <glyph glyph-name="utilde" unicode="&#x169;" horiz-adv-x="594" 
d="M531 504v-503.999h-152l-6 82c-12 -28 -31.167 -50.833 -57.5 -68.5s-58.5 -26.5 -96.5 -26.5c-49.333 0 -88.833 16.5 -118.5 49.5s-44.5 77.5 -44.5 133.5v334h170v-308c0 -26.667 5.16699 -47.834 15.5 -63.501s25.833 -23.5 46.5 -23.5
c19.333 0 36.333 8.83301 51 26.5s22 45.5 22 83.5v285h170zM273 611.001c-11.333 8.66699 -20 14.667 -26 18s-11.667 5 -17 5c-14.667 0 -25.334 -19 -32.001 -57h-93c2.66699 44.667 14.334 82.5 35.001 113.5s48.334 46.5 83.001 46.5c18 0 34.167 -4 48.5 -12
s28.166 -17.333 41.499 -28c11.333 -8.66699 20 -14.667 26 -18s11.667 -5 17 -5c14.667 0 25.334 19 32.001 57h93c-2.66699 -44.667 -14.334 -82.5 -35.001 -113.5s-48.334 -46.5 -83.001 -46.5c-18 0 -34.167 4 -48.5 12s-28.166 17.333 -41.499 28z" />
    <glyph glyph-name="Umacron" unicode="&#x16a;" horiz-adv-x="704" 
d="M351 -16c-92.667 0 -163.999 26 -213.999 78s-75 122.667 -75 212v396h178v-411c0 -43.333 9.5 -78.5 28.5 -105.5s46.5 -40.5 82.5 -40.5c36.667 0 64.667 13.5 84 40.5s29 62.167 29 105.5v411h178v-396c0 -89.333 -25.333 -160 -76 -212s-122.334 -78 -215.001 -78z
M164.001 752v118h376v-118h-376z" />
    <glyph glyph-name="umacron" unicode="&#x16b;" horiz-adv-x="594" 
d="M531 504v-503.999h-152l-6 82c-12 -28 -31.167 -50.833 -57.5 -68.5s-58.5 -26.5 -96.5 -26.5c-49.333 0 -88.833 16.5 -118.5 49.5s-44.5 77.5 -44.5 133.5v334h170v-308c0 -26.667 5.16699 -47.834 15.5 -63.501s25.833 -23.5 46.5 -23.5
c19.333 0 36.333 8.83301 51 26.5s22 45.5 22 83.5v285h170zM130 589.001v106h326v-106h-326z" />
    <glyph glyph-name="Uring" unicode="&#x16e;" horiz-adv-x="704" 
d="M351 -16c-92.667 0 -163.999 26 -213.999 78s-75 122.667 -75 212v396h178v-411c0 -43.333 9.5 -78.5 28.5 -105.5s46.5 -40.5 82.5 -40.5c36.667 0 64.667 13.5 84 40.5s29 62.167 29 105.5v411h178v-396c0 -89.333 -25.333 -160 -76 -212s-122.334 -78 -215.001 -78z
M352.001 718c-36.667 0 -66.667 11.5 -90 34.5s-35 52.167 -35 87.5c0 37.333 11.667 67 35 89s53.333 33 90 33c37.333 0 67.833 -11 91.5 -33s35.5 -51.667 35.5 -89c0 -35.333 -11.833 -64.5 -35.5 -87.5s-54.167 -34.5 -91.5 -34.5zM352.001 788
c14 0 25.667 4.83301 35 14.5s14 22.167 14 37.5c0 14.667 -4.5 27 -13.5 37s-20.833 15 -35.5 15s-26.5 -5 -35.5 -15s-13.5 -22.333 -13.5 -37c0 -15.333 4.5 -27.833 13.5 -37.5s20.833 -14.5 35.5 -14.5z" />
    <glyph glyph-name="uring" unicode="&#x16f;" horiz-adv-x="594" 
d="M531 504v-503.999h-152l-6 82c-12 -28 -31.167 -50.833 -57.5 -68.5s-58.5 -26.5 -96.5 -26.5c-49.333 0 -88.833 16.5 -118.5 49.5s-44.5 77.5 -44.5 133.5v334h170v-308c0 -26.667 5.16699 -47.834 15.5 -63.501s25.833 -23.5 46.5 -23.5
c19.333 0 36.333 8.83301 51 26.5s22 45.5 22 83.5v285h170zM293 551.001c-36 0 -65.5 11.167 -88.5 33.5s-34.5 51.166 -34.5 86.499c0 36.667 11.5 65.834 34.5 87.501s52.5 32.5 88.5 32.5c37.333 0 67.5 -10.833 90.5 -32.5s34.5 -50.834 34.5 -87.501
c0 -35.333 -11.667 -64.166 -35 -86.499s-53.333 -33.5 -90 -33.5zM293 617.001c14.667 0 26.834 5 36.501 15s14.5 23 14.5 39c0 15.333 -4.83301 28.166 -14.5 38.499s-21.834 15.5 -36.501 15.5s-26.834 -5.16699 -36.501 -15.5s-14.5 -23.166 -14.5 -38.499
c0 -16 4.83301 -29 14.5 -39s21.834 -15 36.501 -15z" />
    <glyph glyph-name="Uhungarumlaut" unicode="&#x170;" horiz-adv-x="704" 
d="M351 -16c-92.667 0 -163.999 26 -213.999 78s-75 122.667 -75 212v396h178v-411c0 -43.333 9.5 -78.5 28.5 -105.5s46.5 -40.5 82.5 -40.5c36.667 0 64.667 13.5 84 40.5s29 62.167 29 105.5v411h178v-396c0 -89.333 -25.333 -160 -76 -212s-122.334 -78 -215.001 -78z
M186.001 782l176 185l80 -97l-207 -150zM382.001 790l207 148l60 -111l-231 -107z" />
    <glyph glyph-name="uhungarumlaut" unicode="&#x171;" horiz-adv-x="594" 
d="M531 504v-503.999h-152l-6 82c-12 -28 -31.167 -50.833 -57.5 -68.5s-58.5 -26.5 -96.5 -26.5c-49.333 0 -88.833 16.5 -118.5 49.5s-44.5 77.5 -44.5 133.5v334h170v-308c0 -26.667 5.16699 -47.834 15.5 -63.501s25.833 -23.5 46.5 -23.5
c19.333 0 36.333 8.83301 51 26.5s22 45.5 22 83.5v285h170zM146 599.001l143 192l86 -78l-177 -160zM309 610.001l180 158l68 -92l-207 -122z" />
    <glyph glyph-name="Uogonek" unicode="&#x172;" horiz-adv-x="704" 
d="M351 -16c-92.667 0 -163.999 26 -213.999 78s-75 122.667 -75 212v396h178v-411c0 -43.333 9.5 -78.5 28.5 -105.5s46.5 -40.5 82.5 -40.5c36.667 0 64.667 13.5 84 40.5s29 62.167 29 105.5v411h178v-396c0 -89.333 -25.333 -160 -76 -212s-122.334 -78 -215.001 -78z
M445.001 -265c-48.667 0 -86.333 12.1689 -113 36.502s-40 53.5 -40 87.5c0 26 6.66699 50.667 20 74s37.333 46.666 72 69.999l131 20c-36.667 -20.667 -61.667 -40.834 -75 -60.501s-20 -40.5 -20 -62.5c0 -18.667 6.16699 -33.834 18.5 -45.501s26.5 -17.5 42.5 -17.5
c17.333 0 36.666 4 57.999 12v-99c-14.667 -5.33301 -29.667 -9.16602 -45 -11.499s-31.666 -3.5 -48.999 -3.5z" />
    <glyph glyph-name="uogonek" unicode="&#x173;" horiz-adv-x="594" 
d="M531 504v-503.999h-152l-6 82c-12 -28 -31.167 -50.833 -57.5 -68.5s-58.5 -26.5 -96.5 -26.5c-49.333 0 -88.833 16.5 -118.5 49.5s-44.5 77.5 -44.5 133.5v334h170v-308c0 -26.667 5.16699 -47.834 15.5 -63.501s25.833 -23.5 46.5 -23.5
c19.333 0 36.333 8.83301 51 26.5s22 45.5 22 83.5v285h170zM440 -261.999c-47.333 0 -84.168 12.001 -110.501 36.001s-39.5 52.333 -39.5 85c0 25.333 6.5 49.5 19.5 72.5s36.167 45.833 69.5 68.5h123c-34 -5.33301 -57.5 -17.333 -70.5 -36s-19.5 -39.334 -19.5 -62.001
c0 -21.333 6.5 -38 19.5 -50s27.833 -18 44.5 -18c20.667 0 39 3.33301 55 10v-92c-27.333 -9.33301 -57.666 -14 -90.999 -14z" />
    <glyph glyph-name="Wcircumflex" unicode="&#x174;" horiz-adv-x="913" 
d="M166 0l-153 670h179l92 -439l115 439h125l114 -439l93 439h169l-153 -670h-181l-108 430l-111 -430h-181zM497 915l162 -125l-53 -80l-145 90l-145 -90l-53 80l162 125h72z" />
    <glyph glyph-name="wcircumflex" unicode="&#x175;" horiz-adv-x="800" 
d="M150 0l-147 504h176l70 -345l85 345h146l89 -346l68 346h160l-147 -504h-172l-78 275l-78 -275h-172zM448 770l137 -146l-57 -67l-121 100l-121 -100l-57 67l137 146h82z" />
    <glyph glyph-name="Ycircumflex" unicode="&#x176;" horiz-adv-x="634" 
d="M188 670l132 -274l135 274h178l-227 -400v-270h-178v268l-227 402h187zM356 915l162 -125l-53 -80l-145 90l-145 -90l-53 80l162 125h72z" />
    <glyph glyph-name="ycircumflex" unicode="&#x177;" horiz-adv-x="536" 
d="M4 -198l35 103.999c20.667 -8.66699 41 -13 61 -13c15.333 0 29.166 4.66699 41.499 14s24.833 28.333 37.5 57l19 44l-195 496h176l96 -318l93 318h165l-214 -547c-24 -61.333 -52 -106.666 -84 -135.999s-70.667 -44 -116 -44c-23.333 0 -44.666 2.16699 -63.999 6.5
s-36.333 10.5 -51 18.5zM314 769.999l137 -146l-57 -67l-121 100l-121 -100l-57 67l137 146h82z" />
    <glyph glyph-name="Ydieresis" unicode="&#x178;" horiz-adv-x="634" 
d="M188 670l132 -274l135 274h178l-227 -400v-270h-178v268l-227 402h187zM435 736c-23.333 0 -43 8 -59 24s-24 36 -24 60s8 44 24 60s35.667 24 59 24s43 -8 59 -24s24 -36 24 -60s-8 -44 -24 -60s-35.667 -24 -59 -24zM205 736c-23.333 0 -43 8 -59 24s-24 36 -24 60
s8 44 24 60s35.667 24 59 24s43 -8 59 -24s24 -36 24 -60s-8 -44 -24 -60s-35.667 -24 -59 -24z" />
    <glyph glyph-name="Zacute" unicode="&#x179;" horiz-adv-x="606" 
d="M40 0v99l306 442h-299v129h520v-99l-307 -442h314v-129h-534zM184 795l225 145l69 -131l-252 -97z" />
    <glyph glyph-name="zacute" unicode="&#x17a;" horiz-adv-x="503" 
d="M39 0v80l221 305h-215v119h417v-78l-227 -307h239v-119h-435zM156 625l150 156l88 -105l-179 -120z" />
    <glyph glyph-name="Zdotaccent" unicode="&#x17b;" horiz-adv-x="606" 
d="M40 0v99l306 442h-299v129h520v-99l-307 -442h314v-129h-534zM307 727c-26.667 0 -49.5 9.16699 -68.5 27.5s-28.5 40.166 -28.5 65.499s9.5 47.166 28.5 65.499s41.833 27.5 68.5 27.5s49.5 -9.16699 68.5 -27.5s28.5 -40.166 28.5 -65.499s-9.5 -47.166 -28.5 -65.499
s-41.833 -27.5 -68.5 -27.5z" />
    <glyph glyph-name="zdotaccent" unicode="&#x17c;" horiz-adv-x="503" 
d="M39 0v80l221 305h-215v119h417v-78l-227 -307h239v-119h-435zM256 561c-26.667 0 -49.167 8.83301 -67.5 26.5s-27.5 39.167 -27.5 64.5s9.16699 46.833 27.5 64.5s40.833 26.5 67.5 26.5s49.167 -8.83301 67.5 -26.5s27.5 -39.167 27.5 -64.5
s-9.16699 -46.833 -27.5 -64.5s-40.833 -26.5 -67.5 -26.5z" />
    <glyph glyph-name="Zcaron" unicode="&#x17d;" horiz-adv-x="606" 
d="M40 0v99l306 442h-299v129h520v-99l-307 -442h314v-129h-534zM271 725l-162 125l53 80l145 -90l145 90l53 -80l-162 -125h-72z" />
    <glyph glyph-name="zcaron" unicode="&#x17e;" horiz-adv-x="503" 
d="M39 0v80l221 305h-215v119h417v-78l-227 -307h239v-119h-435zM436 707l-139 -140h-82l-139 140l59 73l121 -99l121 99z" />
    <glyph glyph-name="uni0218" unicode="&#x218;" horiz-adv-x="621" 
d="M317 -16c-84.667 0 -151.495 18.8301 -200.495 56.4971s-77.5 91.834 -85.5 162.501h175c5.33301 -38.667 18.666 -65.5 39.999 -80.5s45.666 -22.5 72.999 -22.5c31.333 0 54.333 7.66699 69 23s22 31.333 22 48c0 20.667 -5.5 38.334 -16.5 53.001
s-30.5 25.667 -58.5 33l-111 29c-57.333 14.667 -100.333 37.5 -129 68.5s-43 74.833 -43 131.5c0 43.333 11.5 79.833 34.5 109.5s53.833 52.167 92.5 67.5s82 23 130 23c79.333 0 141.166 -18.667 185.499 -56s71.166 -90.333 80.499 -159h-172
c-4 30.667 -14.333 54.834 -31 72.501s-39.334 26.5 -68.001 26.5c-24.667 0 -44 -6.66699 -58 -20s-21 -30.333 -21 -51c0 -39.333 22.333 -64.666 67 -75.999l105 -27c50 -12.667 88.667 -29.167 116 -49.5s46.333 -43.5 57 -69.5s16 -54.667 16 -86
c0 -64.667 -23.5 -115.334 -70.5 -152.001s-113.167 -55 -198.5 -55zM211.005 -359.003v66.998c24.667 6 44.334 14.5 59.001 25.5s25 25.833 31 44.5c-18.667 0.666992 -36.334 8.33398 -53.001 23.001s-25 34.667 -25 60c0 24 8 43.667 24 59s35.667 23 59 23
c24 0 44.5 -9.16699 61.5 -27.5s25.5 -44.166 25.5 -77.499c0 -50.667 -16.667 -94 -50 -130s-77.333 -58.333 -132 -67z" />
    <glyph glyph-name="uni0219" unicode="&#x219;" horiz-adv-x="528" 
d="M267 -13c-71.333 0 -127.171 14.8359 -167.504 44.5029s-63.5 72.167 -69.5 127.5h165c3.33301 -27.333 12.333 -46.166 27 -56.499s30.334 -15.5 47.001 -15.5c19.333 0 34.333 4.16699 45 12.5s16 18.833 16 31.5c0 11.333 -4.5 22 -13.5 32s-25.833 18.333 -50.5 25
l-84 22c-43.333 11.333 -77.166 28.666 -101.499 51.999s-36.5 55.666 -36.5 96.999c0 35.333 10 64.666 30 87.999s47 40.833 81 52.5s72.333 17.5 115 17.5c62.667 0 112.334 -14 149.001 -42s59.667 -68.333 69 -121h-164c-2.66699 19.333 -9 34.666 -19 45.999
s-24.333 17 -43 17c-17.333 0 -30.666 -4.5 -39.999 -13.5s-14 -19.833 -14 -32.5c0 -12 4 -22.5 12 -31.5s22.667 -16.167 44 -21.5l72 -18c57.333 -14.667 98 -33.5 122 -56.5s36 -54.167 36 -93.5c0 -52 -20 -92.167 -60 -120.5s-95.667 -42.5 -167 -42.5z
M167.995 -346.997v62c48.667 12.667 77.667 36 87 70c-18 0.666992 -34.833 8.16699 -50.5 22.5s-23.5 33.5 -23.5 57.5c0 22.667 7.83301 41.334 23.5 56.001s34.167 22 55.5 22c22 0 41.333 -8.83301 58 -26.5s25 -42.5 25 -74.5c0 -30.667 -7.33301 -59.334 -22 -86.001
s-35 -49 -61 -67s-56.667 -30 -92 -36z" />
    <glyph glyph-name="uni021A" unicode="&#x21a;" horiz-adv-x="596" 
d="M209 0v539h-196v131h570v-131h-196v-539h-178zM202 -359v66.998c24.667 6 44.334 14.5 59.001 25.5s25 25.833 31 44.5c-18.667 0.666992 -36.334 8.33398 -53.001 23.001s-25 34.667 -25 60c0 24 8 43.667 24 59s35.667 23 59 23c24 0 44.5 -9.16699 61.5 -27.5
s25.5 -44.166 25.5 -77.499c0 -50.667 -16.667 -94 -50 -130s-77.333 -58.333 -132 -67z" />
    <glyph glyph-name="uni021B" unicode="&#x21b;" horiz-adv-x="399" 
d="M260 -13c-61.333 0 -106.832 17.168 -136.499 51.501s-44.5 77.833 -44.5 130.5v225h-65v110h65v142h170v-142h119v-110h-119v-223c0 -22 5 -38.333 15 -49s23.333 -16 40 -16c9.33301 0 19 1 29 3s19.667 5 29 9l26 -104
c-15.333 -8.66699 -34.833 -15.334 -58.5 -20.001s-46.834 -7 -69.501 -7zM137.001 -346.999v62c48.667 12.667 77.667 36 87 70c-18 0.666992 -34.833 8.16699 -50.5 22.5s-23.5 33.5 -23.5 57.5c0 22.667 7.83301 41.334 23.5 56.001s34.167 22 55.5 22
c22 0 41.333 -8.83301 58 -26.5s25 -42.5 25 -74.5c0 -30.667 -7.33301 -59.334 -22 -86.001s-35 -49 -61 -67s-56.667 -30 -92 -36z" />
    <glyph glyph-name="circumflex" unicode="&#x2c6;" horiz-adv-x="500" 
d="M291 770l137 -146l-57 -67l-121 100l-121 -100l-57 67l137 146h82z" />
    <glyph glyph-name="caron" unicode="&#x2c7;" horiz-adv-x="500" 
d="M430 707l-139 -140h-82l-139 140l59 73l121 -99l121 99z" />
    <glyph glyph-name="breve" unicode="&#x2d8;" horiz-adv-x="500" 
d="M250 569c-48.667 0 -87.5 16 -116.5 48s-44.833 72 -47.5 120h99c2 -19.333 8.66699 -35.833 20 -49.5s26.333 -20.5 45 -20.5c19.333 0 34.5 6.83301 45.5 20.5s17.5 30.167 19.5 49.5h99c-2.66699 -48 -18 -88 -46 -120s-67.333 -48 -118 -48z" />
    <glyph glyph-name="dotaccent" unicode="&#x2d9;" horiz-adv-x="500" 
d="M250 561c-26.667 0 -49.167 8.83301 -67.5 26.5s-27.5 39.167 -27.5 64.5s9.16699 46.833 27.5 64.5s40.833 26.5 67.5 26.5s49.167 -8.83301 67.5 -26.5s27.5 -39.167 27.5 -64.5s-9.16699 -46.833 -27.5 -64.5s-40.833 -26.5 -67.5 -26.5z" />
    <glyph glyph-name="ring" unicode="&#x2da;" horiz-adv-x="500" 
d="M249 551c-36 0 -65.5 11.167 -88.5 33.5s-34.5 51.166 -34.5 86.499c0 36.667 11.5 65.834 34.5 87.501s52.5 32.5 88.5 32.5c37.333 0 67.5 -10.833 90.5 -32.5s34.5 -50.834 34.5 -87.501c0 -35.333 -11.667 -64.166 -35 -86.499s-53.333 -33.5 -90 -33.5zM249 617
c14.667 0 26.834 5 36.501 15s14.5 23 14.5 39c0 15.333 -4.83301 28.166 -14.5 38.499s-21.834 15.5 -36.501 15.5s-26.834 -5.16699 -36.501 -15.5s-14.5 -23.166 -14.5 -38.499c0 -16 4.83301 -29 14.5 -39s21.834 -15 36.501 -15z" />
    <glyph glyph-name="ogonek" unicode="&#x2db;" horiz-adv-x="500" 
d="M279 -262c-47.333 0 -84.168 12.001 -110.501 36.001s-39.5 52.333 -39.5 85c0 25.333 6.5 49.5 19.5 72.5s36.167 45.833 69.5 68.5h123c-34 -5.33301 -57.5 -17.333 -70.5 -36s-19.5 -39.334 -19.5 -62.001c0 -21.333 6.5 -38 19.5 -50s27.833 -18 44.5 -18
c20.667 0 39 3.33301 55 10v-92c-27.333 -9.33301 -57.666 -14 -90.999 -14z" />
    <glyph glyph-name="tilde" unicode="&#x2dc;" horiz-adv-x="500" 
d="M230 611c-11.333 8.66699 -20 14.667 -26 18s-11.667 5 -17 5c-14.667 0 -25.334 -19 -32.001 -57h-93c2.66699 44.667 14.334 82.5 35.001 113.5s48.334 46.5 83.001 46.5c18 0 34.167 -4 48.5 -12s28.166 -17.333 41.499 -28c11.333 -8.66699 20 -14.667 26 -18
s11.667 -5 17 -5c14.667 0 25.334 19 32.001 57h93c-2.66699 -44.667 -14.334 -82.5 -35.001 -113.5s-48.334 -46.5 -83.001 -46.5c-18 0 -34.167 4 -48.5 12s-28.166 17.333 -41.499 28z" />
    <glyph glyph-name="hungarumlaut" unicode="&#x2dd;" horiz-adv-x="500" 
d="M47 599l143 192l86 -78l-177 -160zM210 610l180 158l68 -92l-207 -122z" />
    <glyph glyph-name="gravecomb" unicode="&#x300;" 
d="M-50 781l150 -156l-59 -69l-179 120z" />
    <glyph glyph-name="acutecomb" unicode="&#x301;" 
d="M-100 625l150 156l88 -105l-179 -120z" />
    <glyph glyph-name="uni0302" unicode="&#x302;" 
d="M41 770l137 -146l-57 -67l-121 100l-121 -100l-57 67l137 146h82z" />
    <glyph glyph-name="tildecomb" unicode="&#x303;" 
d="M-20 611c-11.333 8.66699 -20 14.667 -26 18s-11.667 5 -17 5c-14.667 0 -25.334 -19 -32.001 -57h-93c2.66699 44.667 14.334 82.5 35.001 113.5s48.334 46.5 83.001 46.5c18 0 34.167 -4 48.5 -12s28.166 -17.333 41.499 -28c11.333 -8.66699 20 -14.667 26 -18
s11.667 -5 17 -5c14.667 0 25.334 19 32.001 57h93c-2.66699 -44.667 -14.334 -82.5 -35.001 -113.5s-48.334 -46.5 -83.001 -46.5c-18 0 -34.167 4 -48.5 12s-28.166 17.333 -41.499 28z" />
    <glyph glyph-name="uni0304" unicode="&#x304;" 
d="M-163 589v106h326v-106h-326z" />
    <glyph glyph-name="uni0306" unicode="&#x306;" 
d="M0 569c-48.667 0 -87.5 16 -116.5 48s-44.833 72 -47.5 120h99c2 -19.333 8.66699 -35.833 20 -49.5s26.333 -20.5 45 -20.5c19.333 0 34.5 6.83301 45.5 20.5s17.5 30.167 19.5 49.5h99c-2.66699 -48 -18 -88 -46 -120s-67.333 -48 -118 -48z" />
    <glyph glyph-name="uni0307" unicode="&#x307;" 
d="M0 561c-26.667 0 -49.167 8.83301 -67.5 26.5s-27.5 39.167 -27.5 64.5s9.16699 46.833 27.5 64.5s40.833 26.5 67.5 26.5s49.167 -8.83301 67.5 -26.5s27.5 -39.167 27.5 -64.5s-9.16699 -46.833 -27.5 -64.5s-40.833 -26.5 -67.5 -26.5z" />
    <glyph glyph-name="uni0308" unicode="&#x308;" 
d="M100 561c-22 0 -40.833 7.66699 -56.5 23s-23.5 34.333 -23.5 57c0 21.333 7.83301 39.666 23.5 54.999s34.5 23 56.5 23c21.333 0 40 -7.66699 56 -23s24 -33.666 24 -54.999c0 -22.667 -8 -41.667 -24 -57s-34.667 -23 -56 -23zM-100 561
c-22 0 -40.833 7.66699 -56.5 23s-23.5 34.333 -23.5 57c0 21.333 7.83301 39.666 23.5 54.999s34.5 23 56.5 23c21.333 0 40 -7.66699 56 -23s24 -33.666 24 -54.999c0 -22.667 -8 -41.667 -24 -57s-34.667 -23 -56 -23z" />
    <glyph glyph-name="uni030A" unicode="&#x30a;" 
d="M0 551c-36 0 -65.5 11.167 -88.5 33.5s-34.5 51.166 -34.5 86.499c0 36.667 11.5 65.834 34.5 87.501s52.5 32.5 88.5 32.5c37.333 0 67.5 -10.833 90.5 -32.5s34.5 -50.834 34.5 -87.501c0 -35.333 -11.667 -64.166 -35 -86.499s-53.333 -33.5 -90 -33.5zM0 617
c14.667 0 26.834 5 36.501 15s14.5 23 14.5 39c0 15.333 -4.83301 28.166 -14.5 38.499s-21.834 15.5 -36.501 15.5s-26.834 -5.16699 -36.501 -15.5s-14.5 -23.166 -14.5 -38.499c0 -16 4.83301 -29 14.5 -39s21.834 -15 36.501 -15z" />
    <glyph glyph-name="uni030B" unicode="&#x30b;" 
d="M-147 599l143 192l86 -78l-177 -160zM16 610l180 158l68 -92l-207 -122z" />
    <glyph glyph-name="uni030C" unicode="&#x30c;" 
d="M180 707l-139 -140h-82l-139 140l59 73l121 -99l121 99z" />
    <glyph glyph-name="uni0312" unicode="&#x312;" 
d="M89 851v-62c-48.667 -12.667 -77.667 -36 -87 -70c18 -0.666992 34.833 -8.16699 50.5 -22.5s23.5 -33.5 23.5 -57.5c0 -22.667 -7.66699 -41.334 -23 -56.001s-34 -22 -56 -22c-22.667 0 -42.167 8.66699 -58.5 26s-24.5 42.333 -24.5 75
c0 30.667 7.33301 59.334 22 86.001s35 49 61 67s56.667 30 92 36z" />
    <glyph glyph-name="uni0315" unicode="&#x315;" 
d="M30 516h-78.001v184h126v-8c0 -17.333 -2 -37.333 -6 -60s-9.66699 -44.667 -17 -66s-15.666 -38 -24.999 -50z" />
    <glyph glyph-name="dotbelowcomb" unicode="&#x323;" 
d="M0 -239c-26.667 0 -49.167 8.83301 -67.5 26.5s-27.5 39.167 -27.5 64.5s9.16699 46.833 27.5 64.5s40.833 26.5 67.5 26.5s49.167 -8.83301 67.5 -26.5s27.5 -39.167 27.5 -64.5s-9.16699 -46.833 -27.5 -64.5s-40.833 -26.5 -67.5 -26.5z" />
    <glyph glyph-name="uni0326" unicode="&#x326;" 
d="M-93 -347v62c48.667 12.667 77.667 36 87 70c-18 0.666992 -34.833 8.16699 -50.5 22.5s-23.5 33.5 -23.5 57.5c0 22.667 7.83301 41.334 23.5 56.001s34.167 22 55.5 22c22 0 41.333 -8.83301 58 -26.5s25 -42.5 25 -74.5c0 -30.667 -7.33301 -59.334 -22 -86.001
s-35 -49 -61 -67s-56.667 -30 -92 -36z" />
    <glyph glyph-name="uni0327" unicode="&#x327;" 
d="M-48 0l70 0.000976562l-9 -59c6.66699 2 14.334 3 23.001 3c30 0 54.5 -9 73.5 -27s28.5 -41.667 28.5 -71c0 -36.667 -12.333 -65.5 -37 -86.5s-60 -31.5 -106 -31.5c-26.667 0 -53 3.66699 -79 11l7 74c23.333 -6 44.666 -9 63.999 -9c36 0 54 13.333 54 40
c0 11.333 -3.5 20.666 -10.5 27.999s-16.167 11 -27.5 11c-13.333 0 -26 -3.66699 -38 -11h-28z" />
    <glyph glyph-name="uni0328" unicode="&#x328;" 
d="M5 -262c-47.333 0 -84.168 12.001 -110.501 36.001s-39.5 52.333 -39.5 85c0 25.333 6.5 49.5 19.5 72.5s36.167 45.833 69.5 68.5h123c-34 -5.33301 -57.5 -17.333 -70.5 -36s-19.5 -39.334 -19.5 -62.001c0 -21.333 6.5 -38 19.5 -50s27.833 -18 44.5 -18
c20.667 0 39 3.33301 55 10v-92c-27.333 -9.33301 -57.666 -14 -90.999 -14z" />
    <glyph glyph-name="uni1E24" unicode="&#x1e24;" horiz-adv-x="728" 
d="M74 0v670h178v-265h224v265h178v-670h-178v274h-224v-274h-178zM364 -242c-26.667 0 -48.834 8.66699 -66.501 26s-26.5 38.333 -26.5 63s8.83301 45.667 26.5 63s39.834 26 66.501 26s48.834 -8.66699 66.501 -26s26.5 -38.333 26.5 -63s-8.83301 -45.667 -26.5 -63
s-39.834 -26 -66.501 -26z" />
    <glyph glyph-name="uni1E25" unicode="&#x1e25;" horiz-adv-x="601" 
d="M60 0v699.999h170v-263c14 24.667 33.167 44.167 57.5 58.5s52.833 21.5 85.5 21.5c54 0 96.5 -16.5 127.5 -49.5s46.5 -77.5 46.5 -133.5v-334h-170v308c0 26.667 -5.66699 47.834 -17 63.501s-28.333 23.5 -51 23.5c-20.667 0 -39 -8.83301 -55 -26.5
s-24 -45.5 -24 -83.5v-285h-170zM303 -239.001c-26.667 0 -49.167 8.83301 -67.5 26.5s-27.5 39.167 -27.5 64.5s9.16699 46.833 27.5 64.5s40.833 26.5 67.5 26.5s49.167 -8.83301 67.5 -26.5s27.5 -39.167 27.5 -64.5s-9.16699 -46.833 -27.5 -64.5
s-40.833 -26.5 -67.5 -26.5z" />
    <glyph glyph-name="uni1E36" unicode="&#x1e36;" horiz-adv-x="542" 
d="M74 0v670h178v-539h260v-131h-438zM293 -242c-26.667 0 -48.834 8.66699 -66.501 26s-26.5 38.333 -26.5 63s8.83301 45.667 26.5 63s39.834 26 66.501 26s48.834 -8.66699 66.501 -26s26.5 -38.333 26.5 -63s-8.83301 -45.667 -26.5 -63s-39.834 -26 -66.501 -26z" />
    <glyph glyph-name="uni1E37" unicode="&#x1e37;" horiz-adv-x="290" 
d="M60 0v700h170v-700h-170zM145 -239c-26.667 0 -49.167 8.83301 -67.5 26.5s-27.5 39.167 -27.5 64.5s9.16699 46.833 27.5 64.5s40.833 26.5 67.5 26.5s49.167 -8.83301 67.5 -26.5s27.5 -39.167 27.5 -64.5s-9.16699 -46.833 -27.5 -64.5s-40.833 -26.5 -67.5 -26.5z
" />
    <glyph glyph-name="Wgrave" unicode="&#x1e80;" horiz-adv-x="913" 
d="M166 0l-153 670h179l92 -439l115 439h125l114 -439l93 439h169l-153 -670h-181l-108 430l-111 -430h-181zM359 940l225 -145l-42 -83l-252 97z" />
    <glyph glyph-name="wgrave" unicode="&#x1e81;" horiz-adv-x="800" 
d="M150 0l-147 504h176l70 -345l85 345h146l89 -346l68 346h160l-147 -504h-172l-78 275l-78 -275h-172zM357 781l150 -156l-59 -69l-179 120z" />
    <glyph glyph-name="Wacute" unicode="&#x1e82;" horiz-adv-x="913" 
d="M166 0l-153 670h179l92 -439l115 439h125l114 -439l93 439h169l-153 -670h-181l-108 430l-111 -430h-181zM338 795l225 145l69 -131l-252 -97z" />
    <glyph glyph-name="wacute" unicode="&#x1e83;" horiz-adv-x="800" 
d="M150 0l-147 504h176l70 -345l85 345h146l89 -346l68 346h160l-147 -504h-172l-78 275l-78 -275h-172zM307 625l150 156l88 -105l-179 -120z" />
    <glyph glyph-name="Wdieresis" unicode="&#x1e84;" horiz-adv-x="913" 
d="M166 0l-153 670h179l92 -439l115 439h125l114 -439l93 439h169l-153 -670h-181l-108 430l-111 -430h-181zM576 736c-23.333 0 -43 8 -59 24s-24 36 -24 60s8 44 24 60s35.667 24 59 24s43 -8 59 -24s24 -36 24 -60s-8 -44 -24 -60s-35.667 -24 -59 -24zM346 736
c-23.333 0 -43 8 -59 24s-24 36 -24 60s8 44 24 60s35.667 24 59 24s43 -8 59 -24s24 -36 24 -60s-8 -44 -24 -60s-35.667 -24 -59 -24z" />
    <glyph glyph-name="wdieresis" unicode="&#x1e85;" horiz-adv-x="800" 
d="M150 0l-147 504h176l70 -345l85 345h146l89 -346l68 346h160l-147 -504h-172l-78 275l-78 -275h-172zM507 561c-22 0 -40.833 7.66699 -56.5 23s-23.5 34.333 -23.5 57c0 21.333 7.83301 39.666 23.5 54.999s34.5 23 56.5 23c21.333 0 40 -7.66699 56 -23
s24 -33.666 24 -54.999c0 -22.667 -8 -41.667 -24 -57s-34.667 -23 -56 -23zM307 561c-22 0 -40.833 7.66699 -56.5 23s-23.5 34.333 -23.5 57c0 21.333 7.83301 39.666 23.5 54.999s34.5 23 56.5 23c21.333 0 40 -7.66699 56 -23s24 -33.666 24 -54.999
c0 -22.667 -8 -41.667 -24 -57s-34.667 -23 -56 -23z" />
    <glyph glyph-name="uni1E9E" unicode="&#x1e9e;" horiz-adv-x="684" 
d="M63 0v409.001c0 92.667 24.833 162 74.5 208s119.5 69 209.5 69c66 0 122 -16.667 168 -50s80.333 -78.333 103 -135l-124 -119c57.333 -12 98 -35.167 122 -69.5s36 -74.5 36 -120.5c0 -66.667 -21.833 -118 -65.5 -154s-102.5 -54 -176.5 -54
c-14.667 0 -33.667 1.66699 -57 5s-43.333 9.33301 -60 18l21 104c10.667 -4 21.167 -6.83301 31.5 -8.5s19.833 -2.5 28.5 -2.5c26 0 48 8.16699 66 24.5s27 42.166 27 77.499c0 34.667 -8.66699 60.667 -26 78s-41.333 26 -72 26h-13v89l106 112
c-10 18 -24.5 33.167 -43.5 45.5s-42.833 18.5 -71.5 18.5c-32 0 -57.667 -10.333 -77 -31s-29 -53.667 -29 -99v-441h-178z" />
    <glyph glyph-name="Ygrave" unicode="&#x1ef2;" horiz-adv-x="634" 
d="M188 670l132 -274l135 274h178l-227 -400v-270h-178v268l-227 402h187zM218 940l225 -145l-42 -83l-252 97z" />
    <glyph glyph-name="ygrave" unicode="&#x1ef3;" horiz-adv-x="536" 
d="M4 -198l35 103.999c20.667 -8.66699 41 -13 61 -13c15.333 0 29.166 4.66699 41.499 14s24.833 28.333 37.5 57l19 44l-195 496h176l96 -318l93 318h165l-214 -547c-24 -61.333 -52 -106.666 -84 -135.999s-70.667 -44 -116 -44c-23.333 0 -44.666 2.16699 -63.999 6.5
s-36.333 10.5 -51 18.5zM223 780.999l150 -156l-59 -69l-179 120z" />
    <glyph glyph-name="uni2000" unicode="&#x2000;" horiz-adv-x="500" 
 />
    <glyph glyph-name="uni2001" unicode="&#x2001;" horiz-adv-x="1000" 
 />
    <glyph glyph-name="uni2002" unicode="&#x2002;" horiz-adv-x="500" 
 />
    <glyph glyph-name="uni2003" unicode="&#x2003;" horiz-adv-x="1000" 
 />
    <glyph glyph-name="uni2004" unicode="&#x2004;" horiz-adv-x="333" 
 />
    <glyph glyph-name="uni2005" unicode="&#x2005;" horiz-adv-x="250" 
 />
    <glyph glyph-name="uni2006" unicode="&#x2006;" horiz-adv-x="166" 
 />
    <glyph glyph-name="uni2007" unicode="&#x2007;" horiz-adv-x="590" 
 />
    <glyph glyph-name="uni2008" unicode="&#x2008;" horiz-adv-x="220" 
 />
    <glyph glyph-name="uni2009" unicode="&#x2009;" horiz-adv-x="200" 
 />
    <glyph glyph-name="uni200A" unicode="&#x200a;" horiz-adv-x="62" 
 />
    <glyph glyph-name="uni200B" unicode="&#x200b;" 
 />
    <glyph glyph-name="uni2010" unicode="&#x2010;" horiz-adv-x="374" 
d="M25 182v130h324v-130h-324z" />
    <glyph glyph-name="uni2011" unicode="&#x2011;" horiz-adv-x="374" 
d="M25 182v130h324v-130h-324z" />
    <glyph glyph-name="figuredash" unicode="&#x2012;" horiz-adv-x="590" 
d="M45 182v130h500v-130h-500z" />
    <glyph glyph-name="endash" unicode="&#x2013;" horiz-adv-x="500" 
d="M0 182v130h500v-130h-500z" />
    <glyph glyph-name="emdash" unicode="&#x2014;" horiz-adv-x="1000" 
d="M0 182v130h1000v-130h-1000z" />
    <glyph glyph-name="uni2015" unicode="&#x2015;" horiz-adv-x="1000" 
d="M0 182v130h1000v-130h-1000z" />
    <glyph glyph-name="quoteleft" unicode="&#x2018;" horiz-adv-x="206" 
d="M186 710v-68c-36 -7.33301 -59.667 -25 -71 -53c21.333 -1.33301 38.833 -9.16602 52.5 -23.499s20.5 -32.833 20.5 -55.5c0 -26.667 -8 -47.5 -24 -62.5s-36.667 -22.5 -62 -22.5c-26.667 0 -48.167 9.16699 -64.5 27.5s-24.5 46.166 -24.5 83.499
c0 44.667 15.167 83.5 45.5 116.5s72.833 52.167 127.5 57.5z" />
    <glyph glyph-name="quoteright" unicode="&#x2019;" horiz-adv-x="206" 
d="M20 425v68.002c36 7.33301 59.667 25 71 53c-21.333 1.33301 -38.833 9.16602 -52.5 23.499s-20.5 32.833 -20.5 55.5c0 26.667 8 47.5 24 62.5s36.667 22.5 62 22.5c26.667 0 48.167 -9.33301 64.5 -28s24.5 -46.334 24.5 -83.001c0 -44.667 -15.167 -83.5 -45.5 -116.5
s-72.833 -52.167 -127.5 -57.5z" />
    <glyph glyph-name="quotesinglbase" unicode="&#x201a;" horiz-adv-x="206" 
d="M20 -131v68.002c36 7.33301 59.667 25 71 53c-21.333 1.33301 -38.833 9.16602 -52.5 23.499s-20.5 32.833 -20.5 55.5c0 26.667 8 47.5 24 62.5s36.667 22.5 62 22.5c26.667 0 48.167 -9.33301 64.5 -28s24.5 -46.334 24.5 -83.001
c0 -44.667 -15.167 -83.5 -45.5 -116.5s-72.833 -52.167 -127.5 -57.5z" />
    <glyph glyph-name="quotedblleft" unicode="&#x201c;" horiz-adv-x="429" 
d="M186 710v-68c-36 -7.33301 -59.667 -25 -71 -53c21.333 -1.33301 38.833 -9.16602 52.5 -23.499s20.5 -32.833 20.5 -55.5c0 -26.667 -8 -47.5 -24 -62.5s-36.667 -22.5 -62 -22.5c-26.667 0 -48.167 9.16699 -64.5 27.5s-24.5 46.166 -24.5 83.499
c0 44.667 15.167 83.5 45.5 116.5s72.833 52.167 127.5 57.5zM409 710v-68c-36 -7.33301 -59.667 -25 -71 -53c21.333 -1.33301 38.833 -9.16602 52.5 -23.499s20.5 -32.833 20.5 -55.5c0 -26.667 -8 -47.5 -24 -62.5s-36.667 -22.5 -62 -22.5
c-26.667 0 -48.167 9.16699 -64.5 27.5s-24.5 46.166 -24.5 83.499c0 44.667 15.167 83.5 45.5 116.5s72.833 52.167 127.5 57.5z" />
    <glyph glyph-name="quotedblright" unicode="&#x201d;" horiz-adv-x="429" 
d="M20 425v68.002c36 7.33301 59.667 25 71 53c-21.333 1.33301 -38.833 9.16602 -52.5 23.499s-20.5 32.833 -20.5 55.5c0 26.667 8 47.5 24 62.5s36.667 22.5 62 22.5c26.667 0 48.167 -9.33301 64.5 -28s24.5 -46.334 24.5 -83.001c0 -44.667 -15.167 -83.5 -45.5 -116.5
s-72.833 -52.167 -127.5 -57.5zM243 425.002v68.002c36 7.33301 59.667 25 71 53c-21.333 1.33301 -38.833 9.16602 -52.5 23.499s-20.5 32.833 -20.5 55.5c0 26.667 8 47.5 24 62.5s36.667 22.5 62 22.5c26.667 0 48.167 -9.33301 64.5 -28s24.5 -46.334 24.5 -83.001
c0 -44.667 -15.167 -83.5 -45.5 -116.5s-72.833 -52.167 -127.5 -57.5z" />
    <glyph glyph-name="quotedblbase" unicode="&#x201e;" horiz-adv-x="429" 
d="M20 -131v68.002c36 7.33301 59.667 25 71 53c-21.333 1.33301 -38.833 9.16602 -52.5 23.499s-20.5 32.833 -20.5 55.5c0 26.667 8 47.5 24 62.5s36.667 22.5 62 22.5c26.667 0 48.167 -9.33301 64.5 -28s24.5 -46.334 24.5 -83.001
c0 -44.667 -15.167 -83.5 -45.5 -116.5s-72.833 -52.167 -127.5 -57.5zM243 -130.998v68.002c36 7.33301 59.667 25 71 53c-21.333 1.33301 -38.833 9.16602 -52.5 23.499s-20.5 32.833 -20.5 55.5c0 26.667 8 47.5 24 62.5s36.667 22.5 62 22.5
c26.667 0 48.167 -9.33301 64.5 -28s24.5 -46.334 24.5 -83.001c0 -44.667 -15.167 -83.5 -45.5 -116.5s-72.833 -52.167 -127.5 -57.5z" />
    <glyph glyph-name="dagger" unicode="&#x2020;" horiz-adv-x="417" 
d="M138 -105l8 498l-121 -6v127l120 -6l-7 162h137l-7 -162l124 6v-127l-125 6l8 -498h-137z" />
    <glyph glyph-name="daggerdbl" unicode="&#x2021;" horiz-adv-x="417" 
d="M25 51v127l121 -6v221l-121 -6v127l120 -6l-7 162h137l-7 -162l124 6v-127l-125 6v-221l125 6v-127l-124 6l7 -162h-137l7 162z" />
    <glyph glyph-name="bullet" unicode="&#x2022;" horiz-adv-x="391" 
d="M195 102c-27.333 0 -52.166 6.66699 -74.499 20s-39.833 31 -52.5 53s-19 46.333 -19 73c0 28 6.33301 53 19 75s30.167 39.333 52.5 52s47.166 19 74.499 19c28 0 53.167 -6.33301 75.5 -19s39.833 -30 52.5 -52s19 -47 19 -75c0 -26.667 -6.83301 -51 -20.5 -73
s-31.667 -39.667 -54 -53s-46.5 -20 -72.5 -20z" />
    <glyph glyph-name="ellipsis" unicode="&#x2026;" horiz-adv-x="1000" 
d="M166 -10c-25.333 0 -46.666 8.83301 -63.999 26.5s-26 38.834 -26 63.501c0 26.667 8.66699 48.334 26 65.001s38.666 25 63.999 25c26 0 47.667 -8.33301 65 -25s26 -38.334 26 -65.001c0 -24.667 -9 -45.834 -27 -63.501s-39.333 -26.5 -64 -26.5zM499 -10
c-25.333 0 -46.666 8.83301 -63.999 26.5s-26 38.834 -26 63.501c0 26.667 8.66699 48.334 26 65.001s38.666 25 63.999 25c26 0 47.667 -8.33301 65 -25s26 -38.334 26 -65.001c0 -24.667 -9 -45.834 -27 -63.501s-39.333 -26.5 -64 -26.5zM832 -10
c-25.333 0 -46.666 8.83301 -63.999 26.5s-26 38.834 -26 63.501c0 26.667 8.66699 48.334 26 65.001s38.666 25 63.999 25c26 0 47.667 -8.33301 65 -25s26 -38.334 26 -65.001c0 -24.667 -9 -45.834 -27 -63.501s-39.333 -26.5 -64 -26.5z" />
    <glyph glyph-name="perthousand" unicode="&#x2030;" horiz-adv-x="1276" 
d="M226 0l318 660h138l-318 -660h-138zM716 -10c-56 0 -97.667 18.5 -125 55.5s-41 87.167 -41 150.5s13.667 113.5 41 150.5s69 55.5 125 55.5s97.667 -18.5 125 -55.5s41 -87.167 41 -150.5s-13.667 -113.5 -41 -150.5s-69 -55.5 -125 -55.5zM716 74
c15.333 0 26 9.66699 32 29s9 50.333 9 93s-3 73.667 -9 93s-16.667 29 -32 29s-26 -9.66699 -32 -29s-9 -50.333 -9 -93s3 -73.667 9 -93s16.667 -29 32 -29zM1083 -10c-56 0 -97.667 18.5 -125 55.5s-41 87.167 -41 150.5s13.667 113.5 41 150.5s69 55.5 125 55.5
s97.667 -18.5 125 -55.5s41 -87.167 41 -150.5s-13.667 -113.5 -41 -150.5s-69 -55.5 -125 -55.5zM1083 74c15.333 0 26 9.66699 32 29s9 50.333 9 93s-3 73.667 -9 93s-16.667 29 -32 29s-26 -9.66699 -32 -29s-9 -50.333 -9 -93s3 -73.667 9 -93s16.667 -29 32 -29z
M190 258c-56 0 -97.667 18.5 -125 55.5s-41 87.167 -41 150.5s13.667 113.5 41 150.5s69 55.5 125 55.5s97.667 -18.5 125 -55.5s41 -87.167 41 -150.5s-13.667 -113.5 -41 -150.5s-69 -55.5 -125 -55.5zM190 342c15.333 0 26 9.66699 32 29s9 50.333 9 93s-3 73.667 -9 93
s-16.667 29 -32 29s-26 -9.66699 -32 -29s-9 -50.333 -9 -93s3 -73.667 9 -93s16.667 -29 32 -29z" />
    <glyph glyph-name="guilsinglleft" unicode="&#x2039;" horiz-adv-x="343" 
d="M168 52l-138 201l138 201h159l-131 -199l134 -203h-162z" />
    <glyph glyph-name="guilsinglright" unicode="&#x203a;" horiz-adv-x="343" 
d="M175 454l138 -201l-138 -201h-159l131 199l-134 203h162z" />
    <glyph glyph-name="fraction" unicode="&#x2044;" horiz-adv-x="140" 
d="M-158 0l318 660h138l-318 -660h-138z" />
    <glyph glyph-name="uni2070" unicode="&#x2070;" horiz-adv-x="382" 
d="M191 368c-56 0 -97.667 18.5 -125 55.5s-41 87.167 -41 150.5s13.667 113.5 41 150.5s69 55.5 125 55.5s97.667 -18.5 125 -55.5s41 -87.167 41 -150.5s-13.667 -113.5 -41 -150.5s-69 -55.5 -125 -55.5zM191 452c15.333 0 26 9.66699 32 29s9 50.333 9 93
s-3 73.667 -9 93s-16.667 29 -32 29s-26 -9.66699 -32 -29s-9 -50.333 -9 -93s3 -73.667 9 -93s16.667 -29 32 -29z" />
    <glyph glyph-name="uni2074" unicode="&#x2074;" horiz-adv-x="363" 
d="M16 446v75l189 245h101v-236h44v-84h-44v-72h-111v72h-179zM115 530h80v106z" />
    <glyph glyph-name="uni2075" unicode="&#x2075;" horiz-adv-x="369" 
d="M39 538l16 227.999h267v-88h-175l-4 -63c20 15.333 44 23 72 23c40 0 72.333 -12 97 -36s37 -55.333 37 -94c0 -44 -15.167 -79 -45.5 -105s-70.833 -39 -121.5 -39c-46 0 -83 10.333 -111 31s-44 49.667 -48 87h116c4.66699 -23.333 18.334 -35 41.001 -35
c28.667 0 43 19 43 57c0 18.667 -3.83301 33.334 -11.5 44.001s-17.834 16 -30.501 16c-20 0 -35.667 -8.66699 -47 -26h-95z" />
    <glyph glyph-name="uni2076" unicode="&#x2076;" horiz-adv-x="373" 
d="M197 368c-55.333 0 -97.834 17.999 -127.501 53.999s-44.5 89 -44.5 159c0 58.667 14.333 106.5 43 143.5s73.334 55.5 134.001 55.5c37.333 0 69 -9 95 -27s42.333 -44.333 49 -79h-121c-4 20 -14.333 30 -31 30c-29.333 0 -45.666 -31.667 -48.999 -95
c20.667 20.667 47.667 31 81 31c37.333 0 68.166 -11.667 92.499 -35s36.5 -54.666 36.5 -93.999c0 -43.333 -14.833 -78 -44.5 -104s-67.5 -39 -113.5 -39zM189.999 444.999c30 0 45 19.667 45 59s-15 59 -45 59s-45 -19.667 -45 -59c0 -18.667 4 -33.167 12 -43.5
s19 -15.5 33 -15.5z" />
    <glyph glyph-name="uni2077" unicode="&#x2077;" horiz-adv-x="324" 
d="M8 688l-0.000976562 87.9971h305v-88c-44 -52.667 -77.5 -103.167 -100.5 -151.5s-36.5 -99.166 -40.5 -152.499h-118c7.33301 58.667 22.833 111.834 46.5 159.501s57.834 95.834 102.501 144.501h-195z" />
    <glyph glyph-name="uni2078" unicode="&#x2078;" horiz-adv-x="380" 
d="M190 368c-50.667 0 -92 11 -124 33s-48 51.667 -48 89c0 23.333 7 43.333 21 60s33.333 29.667 58 39c-20.667 8.66699 -36.667 20.5 -48 35.5s-17 32.167 -17 51.5c0 30.667 14.167 55.667 42.5 75s66.833 29 115.5 29c48 0 86.333 -9.66699 115 -29s43 -44.333 43 -75
c0 -19.333 -5.66699 -36.5 -17 -51.5s-27.333 -26.833 -48 -35.5c24.667 -9.33301 44 -22.333 58 -39s21 -36.667 21 -60c0 -37.333 -16 -67 -48 -89s-73.333 -33 -124 -33zM190 623c24.667 0 37 14.667 37 44s-12.333 44 -37 44s-37 -14.667 -37 -44s12.333 -44 37 -44z
M190 440c12 0 22.5 4.66699 31.5 14s13.5 23.666 13.5 42.999s-4.5 33.666 -13.5 42.999s-19.5 14 -31.5 14s-22.5 -4.66699 -31.5 -14s-13.5 -23.666 -13.5 -42.999s4.5 -33.666 13.5 -42.999s19.5 -14 31.5 -14z" />
    <glyph glyph-name="uni2079" unicode="&#x2079;" horiz-adv-x="373" 
d="M182 780c31.333 0 59.502 -6.83203 84.502 -20.499s44.833 -35.334 59.5 -65.001s22 -68.167 22 -115.5c0 -62.667 -14.167 -113.5 -42.5 -152.5s-72.833 -58.5 -133.5 -58.5c-38 0 -70.167 9 -96.5 27s-42.833 44.333 -49.5 79h122
c3.33301 -19.333 13.666 -29 30.999 -29c29.333 0 45.666 31 48.999 93c-19.333 -19.333 -45 -29 -77 -29c-39.333 0 -71.333 11.5 -96 34.5s-37 53.833 -37 92.5c0 44 15 79 45 105s69.667 39 119 39zM183.002 703.001c-30 0 -45 -19.667 -45 -59s15 -59 45 -59
s45 19.667 45 59c0 18.667 -4 33.167 -12 43.5s-19 15.5 -33 15.5z" />
    <glyph glyph-name="uni2080" unicode="&#x2080;" horiz-adv-x="382" 
d="M191 -110c-56 0 -97.667 18.5 -125 55.5s-41 87.167 -41 150.5s13.667 113.5 41 150.5s69 55.5 125 55.5s97.667 -18.5 125 -55.5s41 -87.167 41 -150.5s-13.667 -113.5 -41 -150.5s-69 -55.5 -125 -55.5zM191 -26c15.333 0 26 9.66699 32 29s9 50.333 9 93
s-3 73.667 -9 93s-16.667 29 -32 29s-26 -9.66699 -32 -29s-9 -50.333 -9 -93s3 -73.667 9 -93s16.667 -29 32 -29z" />
    <glyph glyph-name="uni2081" unicode="&#x2081;" horiz-adv-x="290" 
d="M17 144v95.001c23.333 4 45.166 10 65.499 18s38.833 19.667 55.5 35h91v-392h-121v264c-31.333 -10.667 -61.666 -17.334 -90.999 -20.001z" />
    <glyph glyph-name="uni2082" unicode="&#x2082;" horiz-adv-x="373" 
d="M29 -100l-0.00195312 14c0 34 7.83301 63.667 23.5 89s40.834 50.333 75.501 75l45 32c16.667 12 28.667 22.667 36 32s11 20.333 11 33c0 30 -11.667 45 -35 45c-12.667 0 -22.5 -5.33301 -29.5 -16s-11.167 -27.667 -12.5 -51h-115c2.66699 47.333 18.667 84 48 110
s68.333 39 117 39c44.667 0 80.834 -11.167 108.501 -33.5s41.5 -51.833 41.5 -88.5c0 -24.667 -6 -47.167 -18 -67.5s-31.667 -39.5 -59 -57.5l-53 -35c-20 -12.667 -32.333 -23 -37 -31h170v-89h-317z" />
    <glyph glyph-name="uni2083" unicode="&#x2083;" horiz-adv-x="367" 
d="M186 -110c-50.667 0 -90.668 11.666 -120.001 34.999s-46.333 57.666 -51 102.999h113c2.66699 -38 20 -57 52 -57c31.333 0 47 15.333 47 46c0 19.333 -6.16699 33.5 -18.5 42.5s-31.833 13.5 -58.5 13.5h-11v70h11c25.333 0 43.166 3.16699 53.499 9.5
s15.5 16.5 15.5 30.5c0 26.667 -13 40 -39 40c-21.333 0 -33.666 -13 -36.999 -39h-113c6 38.667 22.5 68 49.5 88s62.833 30 107.5 30s80.834 -10.167 108.501 -30.5s41.5 -47.166 41.5 -80.499c0 -40 -22.333 -68.333 -67 -85c52.667 -17.333 79 -48.666 79 -93.999
c0 -37.333 -14.667 -67 -44 -89s-69 -33 -119 -33z" />
    <glyph glyph-name="uni2084" unicode="&#x2084;" horiz-adv-x="363" 
d="M16 -28v75l189 245h101v-236h44v-84h-44v-72h-111v72h-179zM115 56h80v106z" />
    <glyph glyph-name="uni2085" unicode="&#x2085;" horiz-adv-x="369" 
d="M39 63l16 227.999h267v-88h-175l-4 -63c20 15.333 44 23 72 23c40 0 72.333 -12 97 -36s37 -55.333 37 -94c0 -44 -15.167 -79 -45.5 -105s-70.833 -39 -121.5 -39c-46 0 -83 10.333 -111 31s-44 49.667 -48 87h116c4.66699 -23.333 18.334 -35 41.001 -35
c28.667 0 43 19 43 57c0 18.667 -3.83301 33.334 -11.5 44.001s-17.834 16 -30.501 16c-20 0 -35.667 -8.66699 -47 -26h-95z" />
    <glyph glyph-name="uni2086" unicode="&#x2086;" horiz-adv-x="373" 
d="M197 -110c-55.333 0 -97.834 17.999 -127.501 53.999s-44.5 89 -44.5 159c0 58.667 14.333 106.5 43 143.5s73.334 55.5 134.001 55.5c37.333 0 69 -9 95 -27s42.333 -44.333 49 -79h-121c-4 20 -14.333 30 -31 30c-29.333 0 -45.666 -31.667 -48.999 -95
c20.667 20.667 47.667 31 81 31c37.333 0 68.166 -11.667 92.499 -35s36.5 -54.666 36.5 -93.999c0 -43.333 -14.833 -78 -44.5 -104s-67.5 -39 -113.5 -39zM189.999 -33.001c30 0 45 19.667 45 59s-15 59 -45 59s-45 -19.667 -45 -59c0 -18.667 4 -33.167 12 -43.5
s19 -15.5 33 -15.5z" />
    <glyph glyph-name="uni2087" unicode="&#x2087;" horiz-adv-x="324" 
d="M8 204l-0.000976562 87.9971h305v-88c-44 -52.667 -77.5 -103.167 -100.5 -151.5s-36.5 -99.166 -40.5 -152.499h-118c7.33301 58.667 22.833 111.834 46.5 159.501s57.834 95.834 102.501 144.501h-195z" />
    <glyph glyph-name="uni2088" unicode="&#x2088;" horiz-adv-x="380" 
d="M190 -110c-50.667 0 -92 11 -124 33s-48 51.667 -48 89c0 23.333 7 43.333 21 60s33.333 29.667 58 39c-20.667 8.66699 -36.667 20.5 -48 35.5s-17 32.167 -17 51.5c0 30.667 14.167 55.667 42.5 75s66.833 29 115.5 29c48 0 86.333 -9.66699 115 -29s43 -44.333 43 -75
c0 -19.333 -5.66699 -36.5 -17 -51.5s-27.333 -26.833 -48 -35.5c24.667 -9.33301 44 -22.333 58 -39s21 -36.667 21 -60c0 -37.333 -16 -67 -48 -89s-73.333 -33 -124 -33zM190 145c24.667 0 37 14.667 37 44s-12.333 44 -37 44s-37 -14.667 -37 -44s12.333 -44 37 -44z
M190 -38c12 0 22.5 4.66699 31.5 14s13.5 23.666 13.5 42.999s-4.5 33.666 -13.5 42.999s-19.5 14 -31.5 14s-22.5 -4.66699 -31.5 -14s-13.5 -23.666 -13.5 -42.999s4.5 -33.666 13.5 -42.999s19.5 -14 31.5 -14z" />
    <glyph glyph-name="uni2089" unicode="&#x2089;" horiz-adv-x="373" 
d="M182 302c31.333 0 59.502 -6.83203 84.502 -20.499s44.833 -35.334 59.5 -65.001s22 -68.167 22 -115.5c0 -62.667 -14.167 -113.5 -42.5 -152.5s-72.833 -58.5 -133.5 -58.5c-38 0 -70.167 9 -96.5 27s-42.833 44.333 -49.5 79h122
c3.33301 -19.333 13.666 -29 30.999 -29c29.333 0 45.666 31 48.999 93c-19.333 -19.333 -45 -29 -77 -29c-39.333 0 -71.333 11.5 -96 34.5s-37 53.833 -37 92.5c0 44 15 79 45 105s69.667 39 119 39zM183.002 225.001c-30 0 -45 -19.667 -45 -59s15 -59 45 -59
s45 19.667 45 59c0 18.667 -4 33.167 -12 43.5s-19 15.5 -33 15.5z" />
    <glyph glyph-name="Euro" unicode="&#x20ac;" horiz-adv-x="590" 
d="M338 -16c-72 0 -130.5 21.667 -175.5 65s-74.5 102 -88.5 176h-55v80h46v22v21h-46v80h55c14 73.333 43.5 132 88.5 176s103.167 66 174.5 66c38.667 0 74.167 -8.33301 106.5 -25s59.5 -40 81.5 -70s37 -65.333 45 -106h-167c-3.33301 22 -11 40.333 -23 55
s-27.333 22 -46 22c-46.667 0 -76 -39.333 -88 -118h172l-14 -80h-165v-21v-22h159l-14 -80h-138c12 -78 42 -117 90 -117c18 0 33.333 6.83301 46 20.5s20.667 33.167 24 58.5h167c-6 -40.667 -20 -76.167 -42 -106.5s-49.667 -54 -83 -71s-70 -25.5 -110 -25.5z" />
    <glyph glyph-name="uni20B9" unicode="&#x20b9;" horiz-adv-x="590" 
d="M72 497l231.004 0.000976562c-6.66699 23.333 -20.667 42 -42 56s-50.666 21 -87.999 21h-101v80h499l-14 -80h-134c21.333 -22.667 35.666 -48.334 42.999 -77.001h96l-14 -80h-81c-8.66699 -41.333 -30.834 -75.833 -66.501 -103.5s-84.834 -44.5 -147.501 -50.5
l274 -263h-175l-280 260v80h101c37.333 0 66.666 6.83301 87.999 20.5s35.666 32.5 42.999 56.5h-232v80z" />
    <glyph glyph-name="uni20BA" unicode="&#x20ba;" horiz-adv-x="590" 
d="M27 297l58 21.002v55l-58 -21v86l58 21v195h162v-137l114 41v-86l-114 -41v-55l114 41v-86l-114 -41v-169h31c45.333 0 77.333 14.667 96 44s29.667 78 33 146h144c-2 -76.667 -13.667 -137.834 -35 -183.501s-52.5 -78.334 -93.5 -98.001s-91.5 -29.5 -151.5 -29.5h-186
v232l-58 -21v86z" />
    <glyph glyph-name="trademark" unicode="&#x2122;" horiz-adv-x="934" 
d="M128 250v320h-122v100h371v-100h-121v-320h-128zM395 250l41 420h133l79 -241l83 241h132l41 -420h-130l-18 236l-68 -193h-78l-69 196l-19 -239h-127z" />
    <glyph glyph-name="minus" unicode="&#x2212;" horiz-adv-x="590" 
d="M77 272v116h436v-116h-436z" />
    <glyph glyph-name="uniFB00" unicode="&#xfb00;" horiz-adv-x="709" 
d="M10 504h71c0.666992 63.333 16.667 114 48 152s80 57 146 57c19.333 0 39 -2.33301 59 -7s39 -11.667 57 -21l-24 -100c-19.333 8.66699 -38.333 13 -57 13c-39.333 0 -59 -25 -59 -75v-19h163c0.666992 63.333 16.667 114 48 152s80 57 146 57
c18.667 0 38.167 -2.33301 58.5 -7s39.5 -11.667 57.5 -21l-24 -100c-19.333 8.66699 -38.333 13 -57 13c-39.333 0 -59 -25 -59 -75v-19h108v-110h-108v-394h-170v394h-163v-394h-170v394h-71v110z" />
    <glyph glyph-name="uniFB01" unicode="&#xfb01;" horiz-adv-x="644" 
d="M404 652c0 25.333 9.16699 46.833 27.5 64.5s40.833 26.5 67.5 26.5s49.167 -8.83301 67.5 -26.5s27.5 -39.167 27.5 -64.5s-9.16699 -46.833 -27.5 -64.5s-40.833 -26.5 -67.5 -26.5s-49.167 8.83301 -67.5 26.5s-27.5 39.167 -27.5 64.5zM10 504h71.001
c0.666992 63.333 16.667 114 48 152s80 57 146 57c29.333 0 58.666 -5.33301 87.999 -16l-24 -103c-10 2.66699 -19.667 4 -29 4c-39.333 0 -59 -25 -59 -75v-19h90v-110h-90v-394h-170v394h-71v110zM414.001 504h170v-504h-170v504z" />
    <glyph glyph-name="uniFB02" unicode="&#xfb02;" horiz-adv-x="641" 
d="M10 504h71.001c0.666992 63.333 16.667 114 48 152s80 57 146 57c29.333 0 58.666 -5.33301 87.999 -16l-24 -103c-10 2.66699 -19.667 4 -29 4c-39.333 0 -59 -25 -59 -75v-19h90v-110h-90v-394h-170v394h-71v110zM411.001 700h170v-700h-170v700z" />
    <glyph glyph-name="uniFB03" unicode="&#xfb03;" horiz-adv-x="977" 
d="M737 652c0 25.333 9.16699 46.833 27.5 64.5s40.833 26.5 67.5 26.5s49.167 -8.83301 67.5 -26.5s27.5 -39.167 27.5 -64.5s-9.16699 -46.833 -27.5 -64.5s-40.833 -26.5 -67.5 -26.5s-49.167 8.83301 -67.5 26.5s-27.5 39.167 -27.5 64.5zM10 504h71.001
c0.666992 63.333 16.667 114 48 152s80 57 146 57c19.333 0 39 -2.33301 59 -7s39 -11.667 57 -21l-24 -100c-19.333 8.66699 -38.333 13 -57 13c-39.333 0 -59 -25 -59 -75v-19h163c0.666992 63.333 16.667 114 48 152s80 57 146 57c29.333 0 58.666 -5.33301 87.999 -16
l-24 -103c-10 2.66699 -19.667 4 -29 4c-39.333 0 -59 -25 -59 -75v-19h90v-110h-90v-394h-170v394h-163v-394h-170v394h-71v110zM747.001 504h170v-504h-170v504z" />
    <glyph glyph-name="uniFB04" unicode="&#xfb04;" horiz-adv-x="974" 
d="M10 504h71.001c0.666992 63.333 16.667 114 48 152s80 57 146 57c19.333 0 39 -2.33301 59 -7s39 -11.667 57 -21l-24 -100c-19.333 8.66699 -38.333 13 -57 13c-39.333 0 -59 -25 -59 -75v-19h163c0.666992 63.333 16.667 114 48 152s80 57 146 57
c29.333 0 58.666 -5.33301 87.999 -16l-24 -103c-10 2.66699 -19.667 4 -29 4c-39.333 0 -59 -25 -59 -75v-19h90v-110h-90v-394h-170v394h-163v-394h-170v394h-71v110zM744.001 700h170v-700h-170v700z" />
    <glyph glyph-name="hyphen.case" horiz-adv-x="374" 
d="M25 274v130h324v-130h-324z" />
    <glyph glyph-name="uni2010.case" horiz-adv-x="374" 
d="M25 274v130h324v-130h-324z" />
    <glyph glyph-name="uni2011.case" horiz-adv-x="374" 
d="M25 274v130h324v-130h-324z" />
    <glyph glyph-name="endash.case" horiz-adv-x="500" 
d="M0 274v130h500v-130h-500z" />
    <glyph glyph-name="emdash.case" horiz-adv-x="1000" 
d="M0 274v130h1000v-130h-1000z" />
    <glyph glyph-name="parenleft.case" horiz-adv-x="353" 
d="M328 -75h-118c-100 126 -150 262.667 -150 410c0 74 12.5 145.5 37.5 214.5s62.5 134.167 112.5 195.5h118c-37.333 -62.667 -64.166 -129.5 -80.499 -200.5s-24.5 -140.833 -24.5 -209.5s8.16699 -138 24.5 -208s43.166 -137.333 80.499 -202z" />
    <glyph glyph-name="parenright.case" horiz-adv-x="353" 
d="M143 -75h-118c37.333 62.667 64.166 129.5 80.499 200.5s24.5 140.833 24.5 209.5s-8.16699 138 -24.5 208s-43.166 137.333 -80.499 202h118c100 -126 150 -262.667 150 -410c0 -74 -12.5 -145.5 -37.5 -214.5s-62.5 -134.167 -112.5 -195.5z" />
    <glyph glyph-name="slash.case" horiz-adv-x="366" 
d="M1 -60l218 789h145l-218 -789h-145z" />
    <glyph glyph-name="backslash.case" horiz-adv-x="366" 
d="M147 729l218 -789h-145l-218 789h145z" />
    <glyph glyph-name="bracketleft.case" horiz-adv-x="355" 
d="M70 -75v820h268v-110h-112v-600h112v-110h-268z" />
    <glyph glyph-name="bracketright.case" horiz-adv-x="355" 
d="M285 745v-820h-268v110h112v600h-112v110h268z" />
    <glyph glyph-name="braceleft.case" horiz-adv-x="389" 
d="M25 280v109.998h29c29.333 0 49.166 6.83301 59.499 20.5s15.5 30.834 15.5 51.501c0 23.333 -2.83301 45.5 -8.5 66.5s-8.5 45.5 -8.5 73.5c0 45.333 14.333 80.5 43 105.5s80.667 37.5 156 37.5h63v-110h-45c-23.333 0 -40.333 -5 -51 -15s-16 -26.667 -16 -50
c0 -16 1.5 -30.333 4.5 -43l9 -38.5c3 -13 4.5 -28.5 4.5 -46.5c0 -34.667 -10.333 -60.167 -31 -76.5s-43.667 -26.5 -69 -30.5c25.333 -4 48.333 -14.167 69 -30.5s31 -41.833 31 -76.5c0 -18 -1.5 -33.667 -4.5 -47l-9 -38.5c-3 -12.333 -4.5 -26.5 -4.5 -42.5
c0 -23.333 5.33301 -40 16 -50s27.667 -15 51 -15h45v-110h-63c-75.333 0 -127.333 12.5 -156 37.5s-43 60.167 -43 105.5c0 28 2.83301 52.5 8.5 73.5s8.5 43.167 8.5 66.5c0 20.667 -5.16699 37.834 -15.5 51.501s-30.166 20.5 -59.499 20.5h-29z" />
    <glyph glyph-name="braceright.case" horiz-adv-x="389" 
d="M15 -75v110.002h45c22.667 0 39.5 5 50.5 15s16.5 26.667 16.5 50c0 16 -1.5 30.167 -4.5 42.5l-9 38.5c-3 13.333 -4.5 29 -4.5 47c0 34.667 10.333 60.167 31 76.5s43.667 26.5 69 30.5c-25.333 4 -48.333 14.167 -69 30.5s-31 41.833 -31 76.5c0 18 1.5 33.5 4.5 46.5
l9 38.5c3 12.667 4.5 27 4.5 43c0 23.333 -5.5 40 -16.5 50s-27.833 15 -50.5 15h-45v110h63c74.667 0 126.5 -12.5 155.5 -37.5s43.5 -60.167 43.5 -105.5c0 -28 -2.83301 -52.5 -8.5 -73.5s-8.5 -43.167 -8.5 -66.5c0 -20.667 5.33301 -37.834 16 -51.501
s30.334 -20.5 59.001 -20.5h29v-110h-29c-28.667 0 -48.334 -6.83301 -59.001 -20.5s-16 -30.834 -16 -51.501c0 -23.333 2.83301 -45.5 8.5 -66.5s8.5 -45.5 8.5 -73.5c0 -45.333 -14.5 -80.5 -43.5 -105.5s-80.833 -37.5 -155.5 -37.5h-63z" />
    <glyph glyph-name="bullet.case" horiz-adv-x="391" 
d="M195 189c-27.333 0 -52.166 6.66699 -74.499 20s-39.833 31 -52.5 53s-19 46.333 -19 73c0 28 6.33301 53 19 75s30.167 39.333 52.5 52s47.166 19 74.499 19c28 0 53.167 -6.33301 75.5 -19s39.833 -30 52.5 -52s19 -47 19 -75c0 -26.667 -6.83301 -51 -20.5 -73
s-31.667 -39.667 -54 -53s-46.5 -20 -72.5 -20z" />
    <glyph glyph-name="guilsinglleft.case" horiz-adv-x="343" 
d="M168 134l-138 201l138 201h159l-131 -199l134 -203h-162z" />
    <glyph glyph-name="guilsinglright.case" horiz-adv-x="343" 
d="M175 536l138 -201l-138 -201h-159l131 199l-134 203h162z" />
    <glyph glyph-name="guillemotleft.case" horiz-adv-x="623" 
d="M168 134l-138 201l138 201h159l-131 -199l134 -203h-162zM448 134l-138 201l138 201h159l-131 -199l134 -203h-162z" />
    <glyph glyph-name="guillemotright.case" horiz-adv-x="623" 
d="M175 536l138 -201l-138 -201h-159l131 199l-134 203h162zM455 536l138 -201l-138 -201h-159l131 199l-134 203h162z" />
    <glyph glyph-name="at.case" horiz-adv-x="955" 
d="M477 -131c-90 0 -168.497 18.0049 -235.497 54.0049s-119 87.333 -156 154s-55.5 145.667 -55.5 237c0 64.667 10.667 124.167 32 178.5s52 101.666 92 141.999s87.5 71.5 142.5 93.5s116.167 33 183.5 33c73.333 0 138.166 -10.333 194.499 -31
s103.833 -49.334 142.5 -86.001s68 -79.5 88 -128.5s30 -101.833 30 -158.5c0 -90.667 -21.167 -160.5 -63.5 -209.5s-97.833 -73.5 -166.5 -73.5c-18 0 -36.167 2.66699 -54.5 8s-34.833 14.666 -49.5 27.999s-25.334 32.333 -32.001 57
c-12.667 -23.333 -32.167 -42 -58.5 -56s-57.166 -21 -92.499 -21c-37.333 0 -69.333 9.33301 -96 28s-47.334 44.167 -62.001 76.5s-22 69.166 -22 110.499c0 42 7.66699 79.167 23 111.5s36.666 57.666 63.999 75.999s59.333 27.5 96 27.5c26.667 0 52 -6.33301 76 -19
s43.333 -31 58 -55l9 71h135v-288c0 -26.667 4.16699 -45.167 12.5 -55.5s19.833 -15.5 34.5 -15.5c14 0 28.5 6.16699 43.5 18.5s27.5 32.833 37.5 61.5s15 68.334 15 119.001c0 58 -13.667 111.5 -41 160.5s-67.833 88.167 -121.5 117.5s-120.167 44 -199.5 44
c-52 0 -99.667 -9.33301 -143 -28s-80.833 -44.5 -112.5 -77.5s-56.167 -71.667 -73.5 -116s-26 -92.166 -26 -143.499c0 -56 9.33301 -106.333 28 -151s44.334 -82.834 77.001 -114.501s70.334 -55.834 113.001 -72.501s88 -25 136 -25c44.667 0 84.667 3.83301 120 11.5
s73.333 21.5 114 41.5l20 -78c-40.667 -20 -81.334 -34.5 -122.001 -43.5s-85.334 -13.5 -134.001 -13.5zM466.003 200.005c22.667 0 41.334 8.49902 56.001 25.499s22 40.5 22 70.5v18c0 29.333 -7.33301 52.5 -22 69.5s-33.334 25.5 -56.001 25.5s-39.834 -10 -51.501 -30
s-17.5 -44.667 -17.5 -74s5.83301 -54.166 17.5 -74.499s28.834 -30.5 51.501 -30.5z" />
    <glyph glyph-name="periodcentered.case" horiz-adv-x="270" 
d="M134 245c-25.333 0 -46.666 8.83301 -63.999 26.5s-26 38.834 -26 63.501c0 26.667 8.66699 48.334 26 65.001s38.666 25 63.999 25c26 0 47.667 -8.33301 65 -25s26 -38.334 26 -65.001c0 -24.667 -9 -45.834 -27 -63.501s-39.333 -26.5 -64 -26.5z" />
    <glyph glyph-name="questiondown.case" horiz-adv-x="475" 
d="M266 500c-26 0 -47.667 8.33301 -65 25s-26 38.334 -26 65.001c0 24.667 9 45.834 27 63.501s39.333 26.5 64 26.5c25.333 0 46.666 -8.83301 63.999 -26.5s26 -38.834 26 -63.501c0 -26.667 -8.66699 -48.334 -26 -65.001s-38.666 -25 -63.999 -25zM318 193
l164 0.00195312c-3.33301 -64 -25.833 -114.833 -67.5 -152.5s-99.5 -56.5 -173.5 -56.5c-47.333 0 -88.833 7.5 -124.5 22.5s-63.5 36.333 -83.5 64s-30 60.5 -30 98.5c0 39.333 9 71.166 27 95.499s42.667 47.833 74 70.5l45 33c16.667 12 27.5 24.333 32.5 37
s7.5 27 7.5 43v10h153v-30c0 -30 -5.66699 -54.833 -17 -74.5s-31.333 -40.834 -60 -63.501l-38 -30c-18.667 -14.667 -31.167 -28 -37.5 -40s-9.5 -28 -9.5 -48c0 -18.667 5.5 -34.667 16.5 -48s26.833 -20 47.5 -20c21.333 0 38.5 7.16699 51.5 21.5
s20.5 36.833 22.5 67.5z" />
    <glyph glyph-name="exclamdown.case" horiz-adv-x="275" 
d="M138 500c-26 0 -47.667 8.33301 -65 25s-26 38.334 -26 65.001c0 24.667 9 45.834 27 63.501s39.333 26.5 64 26.5c25.333 0 46.666 -8.83301 63.999 -26.5s26 -38.834 26 -63.501c0 -26.667 -8.66699 -48.334 -26 -65.001s-38.666 -25 -63.999 -25zM227 0h-179l30 458
h118z" />
    <glyph glyph-name="zero.tnum" horiz-adv-x="590" 
d="M295 -16c-59.333 0 -108.5 14 -147.5 42s-68 67.667 -87 119s-28.5 112 -28.5 182s9.5 130.667 28.5 182s48 91 87 119s88.167 42 147.5 42s108.5 -14 147.5 -42s68 -67.667 87 -119s28.5 -112 28.5 -182s-9.5 -130.667 -28.5 -182s-48 -91 -87 -119
s-88.167 -42 -147.5 -42zM295 106c29.333 0 50.5 18 63.5 54s19.5 91.667 19.5 167s-6.5 131 -19.5 167s-34.167 54 -63.5 54s-50.5 -18 -63.5 -54s-19.5 -91.667 -19.5 -167s6.5 -131 19.5 -167s34.167 -54 63.5 -54z" />
    <glyph glyph-name="one.tnum" horiz-adv-x="590" 
d="M94 425l-0.000976562 138c36.667 6.66699 71.834 17 105.501 31s64.167 34 91.5 60h131v-654h-174v464c-25.333 -9.33301 -51 -17.333 -77 -24s-51.667 -11.667 -77 -15z" />
    <glyph glyph-name="two.tnum" horiz-adv-x="590" 
d="M47 0l-0.000976562 22c0 56 12.5 104.5 37.5 145.5s64.833 81.167 119.5 120.5l81 58c28.667 20.667 49 39.834 61 57.501s18 38.167 18 61.5c0 27.333 -6 48.333 -18 63s-29.333 22 -52 22c-25.333 0 -44.666 -9.83301 -57.999 -29.5s-21.666 -50.167 -24.999 -91.5
h-166c4 76 29.333 135.167 76 177.5s108 63.5 184 63.5c47.333 0 88.666 -8.16699 123.999 -24.5s62.833 -39.333 82.5 -69s29.5 -64.5 29.5 -104.5c0 -41.333 -9.83301 -78.333 -29.5 -111s-51.167 -64.334 -94.5 -95.001l-92 -65
c-21.333 -15.333 -37.833 -28.333 -49.5 -39s-19.167 -21.667 -22.5 -33h291v-129h-497z" />
    <glyph glyph-name="three.tnum" horiz-adv-x="590" 
d="M295 -16c-86 0 -151.002 20.498 -195.002 61.498s-69 95.167 -75 162.5h164c2.66699 -37.333 12.834 -64.333 30.501 -81s40.5 -25 68.5 -25s49.833 7.83301 65.5 23.5s23.5 38.834 23.5 69.501c0 28.667 -9.5 52.334 -28.5 71.001s-55.167 28 -108.5 28h-23v105h22
c42 0 71.5 7 88.5 21s25.5 32.667 25.5 56c0 22.667 -6.16699 41 -18.5 55s-29.833 21 -52.5 21c-44 0 -69 -23.333 -75 -70h-163c7.33301 58 31.5 103.833 72.5 137.5s97.833 50.5 170.5 50.5c48 0 90 -7.33301 126 -22s64.167 -35.5 84.5 -62.5s30.5 -59.833 30.5 -98.5
c0 -28 -6.66699 -54.667 -20 -80s-37.333 -46 -72 -62c30.667 -12 54.5 -26.667 71.5 -44s28.667 -36 35 -56s9.5 -39.667 9.5 -59c0 -42.667 -10.667 -79 -32 -109s-51.166 -53 -89.499 -69s-83.5 -24 -135.5 -24z" />
    <glyph glyph-name="four.tnum" horiz-adv-x="590" 
d="M25 125v114l308 414h147v-403h78v-125h-78v-125h-160v125h-295zM173 250h147v200z" />
    <glyph glyph-name="five.tnum" horiz-adv-x="590" 
d="M66 275l26.002 379.001h421v-129h-287l-9 -125c16 12 33.833 21.5 53.5 28.5s41.5 10.5 65.5 10.5c44 0 82.333 -9.16699 115 -27.5s58 -43.833 76 -76.5s27 -70.667 27 -114c0 -48.667 -11 -90.834 -33 -126.501s-53 -63 -93 -82s-87 -28.5 -141 -28.5
c-70.667 0 -127.834 17.167 -171.501 51.5s-68.834 81.5 -75.501 141.5h167c4.66699 -24.667 13.5 -43 26.5 -55s31.833 -18 56.5 -18c26 0 46.333 9.5 61 28.5s22 46.167 22 81.5c0 38.667 -8 67.5 -24 86.5s-36 28.5 -60 28.5c-38.667 0 -67.667 -18 -87 -54h-136z" />
    <glyph glyph-name="six.tnum" horiz-adv-x="590" 
d="M307 -16c-86 0 -152.169 29.501 -198.502 88.501s-69.5 146.5 -69.5 262.5c0 66 9.66699 124.167 29 174.5s49.333 89.666 90 117.999s93.334 42.5 158.001 42.5c59.333 0 109.833 -14.667 151.5 -44s67.5 -72.333 77.5 -129h-175
c-3.33301 19.333 -10.666 34.333 -21.999 45s-25.333 16 -42 16c-30 0 -52.833 -14.5 -68.5 -43.5s-24.834 -74.833 -27.501 -137.5c34.667 37.333 81.334 56 140.001 56c40.667 0 76.667 -8.83301 108 -26.5s56 -42.667 74 -75s27 -70.5 27 -114.5
c0 -47.333 -10.667 -88.5 -32 -123.5s-51 -62 -89 -81s-81.667 -28.5 -131 -28.5zM299.998 97.001c27.333 0 48.666 9.83301 63.999 29.5s23 47.167 23 82.5s-7.66699 62.833 -23 82.5s-36.666 29.5 -63.999 29.5s-48.666 -9.83301 -63.999 -29.5s-23 -47.167 -23 -82.5
s7.66699 -62.833 23 -82.5s36.666 -29.5 63.999 -29.5z" />
    <glyph glyph-name="seven.tnum" horiz-adv-x="590" 
d="M56 525l-0.00195312 128.999h483v-129c-71.333 -90 -126.166 -176.667 -164.499 -260s-61.166 -171.666 -68.499 -264.999h-171c8 67.333 22.167 130.166 42.5 188.499s47.5 114.833 81.5 169.5s75.667 110.334 125 167.001h-328z" />
    <glyph glyph-name="eight.tnum" horiz-adv-x="590" 
d="M295 -16c-53.333 0 -100.5 8.16699 -141.5 24.5s-72.833 39.5 -95.5 69.5s-34 65.667 -34 107c0 39.333 11.667 73.166 35 101.499s55.333 49.5 96 63.5c-34 14 -60.667 33.667 -80 59s-29 55 -29 89c0 35.333 10.333 65.833 31 91.5s49.667 45.5 87 59.5s81 21 131 21
s93.667 -7 131 -21s66.333 -33.833 87 -59.5s31 -56.167 31 -91.5c0 -34 -9.66699 -63.667 -29 -89s-46 -45 -80 -59c40.667 -14 72.667 -35.167 96 -63.5s35 -62.166 35 -101.499c0 -41.333 -11.333 -77 -34 -107s-54.5 -53.167 -95.5 -69.5s-88.167 -24.5 -141.5 -24.5z
M295 400c22.667 0 40.667 7.16699 54 21.5s20 35.166 20 62.499s-6.66699 48.166 -20 62.499s-31.333 21.5 -54 21.5s-40.667 -7.16699 -54 -21.5s-20 -35.166 -20 -62.499s6.66699 -48.166 20 -62.499s31.333 -21.5 54 -21.5zM295 89c25.333 0 46.5 8.83301 63.5 26.5
s25.5 43.834 25.5 78.501s-8.5 60.834 -25.5 78.501s-38.167 26.5 -63.5 26.5s-46.5 -8.83301 -63.5 -26.5s-25.5 -43.834 -25.5 -78.501s8.5 -60.834 25.5 -78.501s38.167 -26.5 63.5 -26.5z" />
    <glyph glyph-name="nine.tnum" horiz-adv-x="590" 
d="M290 670c48.667 0 92.667 -11.5 132 -34.5s70.666 -59 93.999 -108s35 -112.167 35 -189.5c0 -70 -9.83301 -131.5 -29.5 -184.5s-49.834 -94.5 -90.501 -124.5s-93 -45 -157 -45c-59.333 0 -109.833 14.667 -151.5 44s-67.5 72.333 -77.5 129h175
c3.33301 -19.333 10.666 -34.333 21.999 -45s25.333 -16 42 -16c29.333 0 51.833 14.167 67.5 42.5s24.834 73.833 27.501 136.5c-33.333 -36 -77.666 -54 -132.999 -54c-42.667 0 -80 8.83301 -112 26.5s-57.167 42.5 -75.5 74.5s-27.5 69.667 -27.5 113
c0 48 10.833 89.5 32.5 124.5s51.834 62.167 90.501 81.5s84 29 136 29zM293 557c-28 0 -49.5 -9.83301 -64.5 -29.5s-22.5 -47.167 -22.5 -82.5s7.5 -62.833 22.5 -82.5s36.5 -29.5 64.5 -29.5c26 0 46.5 9.83301 61.5 29.5s22.5 47.167 22.5 82.5s-7.5 62.833 -22.5 82.5
s-35.5 29.5 -61.5 29.5z" />
    <glyph glyph-name="zero.dnom" horiz-adv-x="382" 
d="M191 -10c-56 0 -97.667 18.5 -125 55.5s-41 87.167 -41 150.5s13.667 113.5 41 150.5s69 55.5 125 55.5s97.667 -18.5 125 -55.5s41 -87.167 41 -150.5s-13.667 -113.5 -41 -150.5s-69 -55.5 -125 -55.5zM191 74c15.333 0 26 9.66699 32 29s9 50.333 9 93
s-3 73.667 -9 93s-16.667 29 -32 29s-26 -9.66699 -32 -29s-9 -50.333 -9 -93s3 -73.667 9 -93s16.667 -29 32 -29z" />
    <glyph glyph-name="one.dnom" horiz-adv-x="290" 
d="M17 244v95.001c23.333 4 45.166 10 65.499 18s38.833 19.667 55.5 35h91v-392h-121v264c-31.333 -10.667 -61.666 -17.334 -90.999 -20.001z" />
    <glyph glyph-name="two.dnom" horiz-adv-x="373" 
d="M29 0l-0.00195312 14c0 34 7.83301 63.667 23.5 89s40.834 50.333 75.501 75l45 32c16.667 12 28.667 22.667 36 32s11 20.333 11 33c0 30 -11.667 45 -35 45c-12.667 0 -22.5 -5.33301 -29.5 -16s-11.167 -27.667 -12.5 -51h-115c2.66699 47.333 18.667 84 48 110
s68.333 39 117 39c44.667 0 80.834 -11.167 108.501 -33.5s41.5 -51.833 41.5 -88.5c0 -24.667 -6 -47.167 -18 -67.5s-31.667 -39.5 -59 -57.5l-53 -35c-20 -12.667 -32.333 -23 -37 -31h170v-89h-317z" />
    <glyph glyph-name="three.dnom" horiz-adv-x="367" 
d="M186 -10c-50.667 0 -90.668 11.666 -120.001 34.999s-46.333 57.666 -51 102.999h113c2.66699 -38 20 -57 52 -57c31.333 0 47 15.333 47 46c0 19.333 -6.16699 33.5 -18.5 42.5s-31.833 13.5 -58.5 13.5h-11v70h11c25.333 0 43.166 3.16699 53.499 9.5
s15.5 16.5 15.5 30.5c0 26.667 -13 40 -39 40c-21.333 0 -33.666 -13 -36.999 -39h-113c6 38.667 22.5 68 49.5 88s62.833 30 107.5 30s80.834 -10.167 108.501 -30.5s41.5 -47.166 41.5 -80.499c0 -40 -22.333 -68.333 -67 -85c52.667 -17.333 79 -48.666 79 -93.999
c0 -37.333 -14.667 -67 -44 -89s-69 -33 -119 -33z" />
    <glyph glyph-name="four.dnom" horiz-adv-x="363" 
d="M16 72v75l189 245h101v-236h44v-84h-44v-72h-111v72h-179zM115 156h80v106z" />
    <glyph glyph-name="five.dnom" horiz-adv-x="369" 
d="M39 164l16 227.999h267v-88h-175l-4 -63c20 15.333 44 23 72 23c40 0 72.333 -12 97 -36s37 -55.333 37 -94c0 -44 -15.167 -79 -45.5 -105s-70.833 -39 -121.5 -39c-46 0 -83 10.333 -111 31s-44 49.667 -48 87h116c4.66699 -23.333 18.334 -35 41.001 -35
c28.667 0 43 19 43 57c0 18.667 -3.83301 33.334 -11.5 44.001s-17.834 16 -30.501 16c-20 0 -35.667 -8.66699 -47 -26h-95z" />
    <glyph glyph-name="six.dnom" horiz-adv-x="373" 
d="M197 -10c-55.333 0 -97.834 17.999 -127.501 53.999s-44.5 89 -44.5 159c0 58.667 14.333 106.5 43 143.5s73.334 55.5 134.001 55.5c37.333 0 69 -9 95 -27s42.333 -44.333 49 -79h-121c-4 20 -14.333 30 -31 30c-29.333 0 -45.666 -31.667 -48.999 -95
c20.667 20.667 47.667 31 81 31c37.333 0 68.166 -11.667 92.499 -35s36.5 -54.666 36.5 -93.999c0 -43.333 -14.833 -78 -44.5 -104s-67.5 -39 -113.5 -39zM189.999 66.999c30 0 45 19.667 45 59s-15 59 -45 59s-45 -19.667 -45 -59c0 -18.667 4 -33.167 12 -43.5
s19 -15.5 33 -15.5z" />
    <glyph glyph-name="seven.dnom" horiz-adv-x="324" 
d="M8 304l-0.000976562 87.9971h305v-88c-44 -52.667 -77.5 -103.167 -100.5 -151.5s-36.5 -99.166 -40.5 -152.499h-118c7.33301 58.667 22.833 111.834 46.5 159.501s57.834 95.834 102.501 144.501h-195z" />
    <glyph glyph-name="eight.dnom" horiz-adv-x="380" 
d="M190 -10c-50.667 0 -92 11 -124 33s-48 51.667 -48 89c0 23.333 7 43.333 21 60s33.333 29.667 58 39c-20.667 8.66699 -36.667 20.5 -48 35.5s-17 32.167 -17 51.5c0 30.667 14.167 55.667 42.5 75s66.833 29 115.5 29c48 0 86.333 -9.66699 115 -29s43 -44.333 43 -75
c0 -19.333 -5.66699 -36.5 -17 -51.5s-27.333 -26.833 -48 -35.5c24.667 -9.33301 44 -22.333 58 -39s21 -36.667 21 -60c0 -37.333 -16 -67 -48 -89s-73.333 -33 -124 -33zM190 245c24.667 0 37 14.667 37 44s-12.333 44 -37 44s-37 -14.667 -37 -44s12.333 -44 37 -44z
M190 62c12 0 22.5 4.66699 31.5 14s13.5 23.666 13.5 42.999s-4.5 33.666 -13.5 42.999s-19.5 14 -31.5 14s-22.5 -4.66699 -31.5 -14s-13.5 -23.666 -13.5 -42.999s4.5 -33.666 13.5 -42.999s19.5 -14 31.5 -14z" />
    <glyph glyph-name="nine.dnom" horiz-adv-x="373" 
d="M182 402c31.333 0 59.502 -6.83203 84.502 -20.499s44.833 -35.334 59.5 -65.001s22 -68.167 22 -115.5c0 -62.667 -14.167 -113.5 -42.5 -152.5s-72.833 -58.5 -133.5 -58.5c-38 0 -70.167 9 -96.5 27s-42.833 44.333 -49.5 79h122
c3.33301 -19.333 13.666 -29 30.999 -29c29.333 0 45.666 31 48.999 93c-19.333 -19.333 -45 -29 -77 -29c-39.333 0 -71.333 11.5 -96 34.5s-37 53.833 -37 92.5c0 44 15 79 45 105s69.667 39 119 39zM183.002 325.001c-30 0 -45 -19.667 -45 -59s15 -59 45 -59
s45 19.667 45 59c0 18.667 -4 33.167 -12 43.5s-19 15.5 -33 15.5z" />
    <glyph glyph-name="zero.numr" horiz-adv-x="382" 
d="M191 258c-56 0 -97.667 18.5 -125 55.5s-41 87.167 -41 150.5s13.667 113.5 41 150.5s69 55.5 125 55.5s97.667 -18.5 125 -55.5s41 -87.167 41 -150.5s-13.667 -113.5 -41 -150.5s-69 -55.5 -125 -55.5zM191 342c15.333 0 26 9.66699 32 29s9 50.333 9 93
s-3 73.667 -9 93s-16.667 29 -32 29s-26 -9.66699 -32 -29s-9 -50.333 -9 -93s3 -73.667 9 -93s16.667 -29 32 -29z" />
    <glyph glyph-name="one.numr" horiz-adv-x="290" 
d="M17 512v95.001c23.333 4 45.166 10 65.499 18s38.833 19.667 55.5 35h91v-392h-121v264c-31.333 -10.667 -61.666 -17.334 -90.999 -20.001z" />
    <glyph glyph-name="two.numr" horiz-adv-x="373" 
d="M29 268l-0.00195312 14c0 34 7.83301 63.667 23.5 89s40.834 50.333 75.501 75l45 32c16.667 12 28.667 22.667 36 32s11 20.333 11 33c0 30 -11.667 45 -35 45c-12.667 0 -22.5 -5.33301 -29.5 -16s-11.167 -27.667 -12.5 -51h-115c2.66699 47.333 18.667 84 48 110
s68.333 39 117 39c44.667 0 80.834 -11.167 108.501 -33.5s41.5 -51.833 41.5 -88.5c0 -24.667 -6 -47.167 -18 -67.5s-31.667 -39.5 -59 -57.5l-53 -35c-20 -12.667 -32.333 -23 -37 -31h170v-89h-317z" />
    <glyph glyph-name="three.numr" horiz-adv-x="367" 
d="M186 258c-50.667 0 -90.668 11.666 -120.001 34.999s-46.333 57.666 -51 102.999h113c2.66699 -38 20 -57 52 -57c31.333 0 47 15.333 47 46c0 19.333 -6.16699 33.5 -18.5 42.5s-31.833 13.5 -58.5 13.5h-11v70h11c25.333 0 43.166 3.16699 53.499 9.5
s15.5 16.5 15.5 30.5c0 26.667 -13 40 -39 40c-21.333 0 -33.666 -13 -36.999 -39h-113c6 38.667 22.5 68 49.5 88s62.833 30 107.5 30s80.834 -10.167 108.501 -30.5s41.5 -47.166 41.5 -80.499c0 -40 -22.333 -68.333 -67 -85c52.667 -17.333 79 -48.666 79 -93.999
c0 -37.333 -14.667 -67 -44 -89s-69 -33 -119 -33z" />
    <glyph glyph-name="four.numr" horiz-adv-x="363" 
d="M16 336v75l189 245h101v-236h44v-84h-44v-72h-111v72h-179zM115 420h80v106z" />
    <glyph glyph-name="five.numr" horiz-adv-x="369" 
d="M39 428l16 227.999h267v-88h-175l-4 -63c20 15.333 44 23 72 23c40 0 72.333 -12 97 -36s37 -55.333 37 -94c0 -44 -15.167 -79 -45.5 -105s-70.833 -39 -121.5 -39c-46 0 -83 10.333 -111 31s-44 49.667 -48 87h116c4.66699 -23.333 18.334 -35 41.001 -35
c28.667 0 43 19 43 57c0 18.667 -3.83301 33.334 -11.5 44.001s-17.834 16 -30.501 16c-20 0 -35.667 -8.66699 -47 -26h-95z" />
    </font>
</defs>
</svg>
