<svg xmlns="http://www.w3.org/2000/svg" width="13.679" height="13.137" viewBox="0 0 13.679 13.137">
  <g id="Sliders" transform="translate(-3.9 -4.4)">
    <path id="Path_5901" data-name="Path 5901" d="M16,13.5v7.325" transform="translate(-5.26 -3.888)" fill="none" stroke="#e50101" stroke-linecap="round" stroke-linejoin="round" stroke-width="1.2"/>
    <path id="Path_5902" data-name="Path 5902" d="M16,5V6.9" transform="translate(-5.26)" fill="none" stroke="#e50101" stroke-linecap="round" stroke-linejoin="round" stroke-width="1.2"/>
    <path id="Path_5903" data-name="Path 5903" d="M14.857,11.213A1.356,1.356,0,1,0,13.5,9.856,1.356,1.356,0,0,0,14.857,11.213Z" transform="translate(-4.117 -1.601)" fill="none" stroke="#e50101" stroke-linecap="round" stroke-linejoin="round" stroke-width="1.2"/>
    <path id="Path_5904" data-name="Path 5904" d="M25,23.5v1.9" transform="translate(-9.377 -8.462)" fill="none" stroke="#e50101" stroke-linecap="round" stroke-linejoin="round" stroke-width="1.2"/>
    <path id="Path_5905" data-name="Path 5905" d="M25,5v7.325" transform="translate(-9.377)" fill="none" stroke="#e50101" stroke-linecap="round" stroke-linejoin="round" stroke-width="1.2"/>
    <path id="Path_5906" data-name="Path 5906" d="M23.857,21.213A1.356,1.356,0,1,0,22.5,19.856,1.356,1.356,0,0,0,23.857,21.213Z" transform="translate(-8.234 -6.175)" fill="none" stroke="#e50101" stroke-linecap="round" stroke-linejoin="round" stroke-width="1.2"/>
    <path id="Path_5907" data-name="Path 5907" d="M7,19.5v4.069" transform="translate(-1.143 -6.633)" fill="none" stroke="#e50101" stroke-linecap="round" stroke-linejoin="round" stroke-width="1.2"/>
    <path id="Path_5908" data-name="Path 5908" d="M7,5v5.155" transform="translate(-1.143)" fill="none" stroke="#e50101" stroke-linecap="round" stroke-linejoin="round" stroke-width="1.2"/>
    <path id="Path_5909" data-name="Path 5909" d="M5.857,17.213A1.356,1.356,0,1,0,4.5,15.856,1.356,1.356,0,0,0,5.857,17.213Z" transform="translate(0 -4.345)" fill="none" stroke="#e50101" stroke-linecap="round" stroke-linejoin="round" stroke-width="1.2"/>
  </g>
</svg>
